<svg id="Layer_1" data-name="Layer 1" xmlns="http://www.w3.org/2000/svg" viewBox="0 0 7000.32 3000"><defs><style>.cls-1{fill:#4693c2;}.cls-2{fill:#02598d;}.cls-3,.cls-7,.cls-9{font-size:44.23px;}.cls-13,.cls-14,.cls-16,.cls-17,.cls-18,.cls-19,.cls-3,.cls-5,.cls-7,.cls-9{fill:#fff;}.cls-11,.cls-13,.cls-14,.cls-16,.cls-17,.cls-18,.cls-19,.cls-3,.cls-5,.cls-6,.cls-7,.cls-9{font-family:Menlo-Bold, Menlo;font-weight:700;}.cls-3{opacity:0.3;}.cls-4{letter-spacing:0.2em;}.cls-11,.cls-13,.cls-14,.cls-16,.cls-17,.cls-5{font-size:39.31px;}.cls-5,.cls-7{opacity:0.45;}.cls-6{opacity:0.35;font-size:49.14px;}.cls-11,.cls-12,.cls-13,.cls-14,.cls-15,.cls-16,.cls-17,.cls-18,.cls-19,.cls-6{isolation:isolate;}.cls-11,.cls-6{fill:#f7f8f8;}.cls-8{letter-spacing:-0.08em;}.cls-9{opacity:0.55;}.cls-10{letter-spacing:0.2em;}.cls-11{opacity:0.45;}.cls-13,.cls-14,.cls-18,.cls-19{opacity:0.6;}.cls-14{letter-spacing:0.27em;}.cls-15,.cls-16,.cls-17{opacity:0.55;}.cls-17{letter-spacing:0.4em;}.cls-18,.cls-19{font-size:34.4px;}.cls-19{letter-spacing:0.4em;}.cls-20{fill:#188ca7;}.cls-21{fill:#22b0bf;}</style></defs><title>home-background</title><path class="cls-1" d="M6491.93,2185.42c-185.79-157.13-343.58-276.41-474.63-369.83-227.6-162.24-341.4-243.37-441.52-276-204.16-66.51-373.25-38.56-673.33,11-208,34.38-368.65,85.48-689.88,187.67-346,110.06-511.89,175.66-590.53,220.79-74.49,42.73-153.46,120.59-215.24-110.4-23.07-86.23-42.3-141.26-171.09-342.22-181.12-282.61-272.43-424.49-309.07-452.62C2885.06,1022,2670.12,857,2452,921.4c-116.41,34.4-182.21,122.75-309.06,298.06-88.78,122.7-184.33,279.5-287,513.34-155.41,354-129.12,433.54-253.88,552-69.54,66-136.08,96.71-408.41,187.67-475.77,158.92-678.84,209.75-678.84,209.75-237.31,59.4-393.37,92.76-514,116.73L.89,3000H7000l-.72-343.51-32.71-35C6812.34,2456.38,6677.56,2342.4,6491.93,2185.42Z" transform="translate(-0.72)"/><path class="cls-2" d="M515.55,2263.6s203.07-50.83,678.84-209.75c272.32-91,338.87-121.66,408.41-187.67,124.76-118.43,98.47-198,253.87-552,102.66-233.84,198.21-390.64,287-513.34,126.85-175.31,192.65-263.66,309.07-298.06,218.11-64.45,433.05,100.55,474.63,132.47,36.64,28.13,127.95,170,309.07,452.62,128.79,201,148,256,171.09,342.22,61.78,231,140.75,153.13,215.24,110.4,78.65-45.13,244.55-110.73,590.54-220.79,321.23-102.19,481.84-153.29,689.88-187.67,300.07-49.6,469.16-77.55,673.32-11,100.13,32.61,213.93,113.74,441.52,276,131,93.42,288.84,212.7,474.64,369.83,185.62,157,320.4,271,474.63,436.05q16.74,17.92,32.9,35.22V2018.91L7000,0H.89l.18,1924.61.27,455.76C122,2356.4,278.07,2323,515.55,2263.6Z" transform="translate(-0.72)"/><text class="cls-3" transform="translate(5713.52 818.82)">def addCandidatesSuccess(request, id):<tspan class="cls-4" x="0" y="53.07">	</tspan><tspan x="35.38" y="53.07">candidate = get_object_or_404(Candidate, pk=id)</tspan><tspan class="cls-4" x="0" y="159.21">	</tspan><tspan x="35.38" y="159.21">context = {</tspan><tspan class="cls-4" x="0" y="212.28" xml:space="preserve">		</tspan><tspan x="70.76" y="212.28">&apos;candidate&apos;: candidate,</tspan><tspan class="cls-4" x="0" y="265.35">	</tspan><tspan x="35.38" y="265.35">}</tspan><tspan class="cls-4" x="0" y="371.5">	</tspan><tspan x="35.38" y="371.5">return render(request, &apos;add-success.html&apos;, </tspan><tspan class="cls-4" x="0" y="424.57" xml:space="preserve">											</tspan><tspan x="389.19" y="424.57" xml:space="preserve"> context)</tspan></text><text class="cls-5" transform="translate(254.59 697.11)">@IBAction func startWorkout(_ sender: UIButton) {<tspan x="0" y="47.17" xml:space="preserve">        if (!timerRunning) {</tspan><tspan x="0" y="94.35" xml:space="preserve">            startTimer()</tspan><tspan x="0" y="141.52" xml:space="preserve">            startWorkoutButton.setTitle(&quot;Stop Workout&quot;, for: .normal)</tspan><tspan x="0" y="188.7" xml:space="preserve">            </tspan><tspan x="0" y="235.87" xml:space="preserve">        } else {</tspan><tspan x="0" y="283.04" xml:space="preserve">            resetTimer()</tspan><tspan x="0" y="330.22" xml:space="preserve">            startWorkoutButton.setTitle(&quot;Start Workout&quot;, for: .normal)</tspan><tspan x="0" y="377.39" xml:space="preserve">        }</tspan><tspan x="0" y="424.57" xml:space="preserve">    }</tspan></text><text class="cls-6" transform="translate(2708.33 119.23)">tempBoard = Arrays.toString(sucessorsBoard[a]);</text><text class="cls-7" transform="translate(30.3 77.96)">public void addEdge(Location src, Location dest, Path edge){<tspan class="cls-4" x="0" y="53.07" xml:space="preserve">		</tspan><tspan x="70.76" y="53.07">int index = getindex(src);</tspan><tspan class="cls-4" x="0" y="106.14" xml:space="preserve">		</tspan><tspan x="70.76" y="106.14">if(graphnodes.isEmpty() || graphnodes.size() &lt;= index){</tspan><tspan class="cls-4" x="0" y="159.21" xml:space="preserve">			</tspan><tspan x="106.14" y="159.21">GraphNode&lt;Location,Path&gt; gnode = new </tspan><tspan class="cls-4" x="0" y="212.28" xml:space="preserve">					</tspan><tspan x="176.9" y="212.28" xml:space="preserve">             GraphNode&lt;Location,Path&gt;(src,index);</tspan><tspan class="cls-4" x="0" y="265.35" xml:space="preserve">			</tspan><tspan x="106.14" y="265.35">gnode.addOutEdge(edge);</tspan><tspan class="cls-4" x="0" y="318.42" xml:space="preserve">			</tspan><tspan x="106.14" y="318.42">graphnodes.add(gnode);</tspan><tspan class="cls-4" x="0" y="371.5" xml:space="preserve">		</tspan><tspan x="70.76" y="371.5">}else{</tspan><tspan class="cls-4" x="0" y="424.57" xml:space="preserve">			</tspan><tspan x="106.14" y="424.57">graphnodes.get(index).addOutEdge(edge);</tspan><tspan class="cls-8" x="1144.55" y="424.57">	</tspan><tspan class="cls-4" x="0" y="477.64" xml:space="preserve">		</tspan><tspan x="70.76" y="477.64">}</tspan><tspan class="cls-4" x="0" y="530.71">	</tspan><tspan x="35.38" y="530.71">}</tspan></text><text class="cls-9" transform="translate(58.02 1310.38)">Queue* q1 = CreateStringQueue(queue_size);<tspan x="0" y="53.07">pthread_t reader_thr;</tspan><tspan x="0" y="159.21">if(pthread_create(&amp;reader_thr, NULL, Reader,q1)) {</tspan><tspan class="cls-10" x="0" y="212.28">	</tspan><tspan x="35.38" y="212.28">fprintf(stderr,&quot;pthread_create for reader thread failed\n&quot;);</tspan><tspan class="cls-10" x="0" y="265.35">	</tspan><tspan x="35.38" y="265.35">exit(1);</tspan><tspan x="0" y="318.42">}</tspan><tspan x="0" y="424.57">if(pthread_join(reader_thr, NULL)) {</tspan><tspan class="cls-10" x="0" y="477.64">	</tspan><tspan x="35.38" y="477.64">fprintf(stderr,&quot;pthread_join for reader thread failed\n&quot;);</tspan><tspan class="cls-10" x="0" y="530.71">	</tspan><tspan x="35.38" y="530.71">exit(1);</tspan><tspan x="0" y="583.78">}</tspan></text><text class="cls-6" transform="translate(2609.71 60.26)">for (int a = 0; a &lt; 4; a++) {</text><text class="cls-6" transform="translate(2708.33 178.2)">unsortedList.add(tempBoard);</text><text class="cls-6" transform="translate(2708.33 237.17)">sortedList.add(tempBoard);</text><text class="cls-6" transform="translate(2708.33 355.1)">Collections.sort(sortedList);</text><text class="cls-6" transform="translate(2708.33 473.04)">for (int a = 0; a &lt; 4; a++) {</text><text class="cls-6" transform="translate(2806.94 532)">for (int b = 0; b &lt; 4; b++) {</text><text class="cls-6" transform="translate(2905.56 590.97)">if (sortedList.get(a).equals(unsortedList.get(b))) {</text><text class="cls-11" transform="translate(5786.87 107.44)">for (int i = 0; i &lt; sizeOfContent; i++) {</text><text class="cls-11" transform="translate(5871.35 154.61)">for (int j = 0; j &lt; sizeOfContent; j++) {</text><text class="cls-11" transform="translate(5955.83 201.79)">if (i != j &amp;&amp; this.Content[j] &gt; 0) {</text><text class="cls-11" transform="translate(6040.3 248.96)">JugState jugCopy = new JugState(this);</text><g class="cls-12"><text class="cls-13" transform="translate(3531.52 744.29)">.navbar-item-container {</text><text class="cls-14" transform="translate(3531.52 791.46)"> </text><text class="cls-13" transform="translate(3566.9 791.46)">display: flex;</text><text class="cls-14" transform="translate(3531.52 838.64)"> </text><text class="cls-13" transform="translate(3566.9 838.64)">flex-flow: row wrap;</text><text class="cls-14" transform="translate(3531.52 885.81)"> </text><text class="cls-13" transform="translate(3566.9 885.81)">margin-left: auto;</text><text class="cls-13" transform="translate(3531.52 932.98)">}</text><text class="cls-13" transform="translate(3531.52 1027.33)">.navbar-item {</text><text class="cls-14" transform="translate(3531.52 1074.51)"> </text><text class="cls-13" transform="translate(3566.9 1074.51)">color: var(--second-color);</text><text class="cls-14" transform="translate(3531.52 1121.68)"> </text><text class="cls-13" transform="translate(3566.9 1121.68)">font-size: 1.1rem;</text><text class="cls-14" transform="translate(3531.52 1168.85)"> </text><text class="cls-13" transform="translate(3566.9 1168.85)">padding: 0.5rem 1rem;</text><text class="cls-14" transform="translate(3531.52 1216.03)"> </text><text class="cls-13" transform="translate(3566.9 1216.03)">text-align: center;</text><text class="cls-14" transform="translate(3531.52 1263.2)"> </text><text class="cls-13" transform="translate(3566.9 1263.2)">transition: color 0.15s;</text><text class="cls-13" transform="translate(3531.52 1310.38)">}</text></g><g class="cls-15"><text class="cls-16" transform="translate(4372.07 139.87)">&lt;div id=&quot;main-grid&quot; class=&quot;grid&quot;&gt;</text><text class="cls-17" transform="translate(4372.07 181.15)"> </text><text class="cls-16" transform="translate(4407.46 181.15)">@foreach (Event item in events) {</text><text class="cls-17" transform="translate(4372.07 222.43)"><tspan xml:space="preserve">  </tspan></text><text class="cls-16" transform="translate(4442.84 222.43)">&lt;!-- Modal tile --&gt;</text><text class="cls-17" transform="translate(4372.07 263.7)"><tspan xml:space="preserve">  </tspan></text><text class="cls-16" transform="translate(4442.84 263.7)">&lt;div class=&quot;col-6 col-lg-4 col-xl-3 grid-item </text><text class="cls-17" transform="translate(4372.07 304.98)"><tspan xml:space="preserve">     </tspan></text><text class="cls-16" transform="translate(4548.98 304.98)">@item.Category.FilterID&quot; </text><text class="cls-17" transform="translate(4372.07 346.26)"><tspan xml:space="preserve">     </tspan></text><text class="cls-16" transform="translate(4548.98 346.26)">data-category=&quot;@item.Category.FilterID&quot;&gt;</text><text class="cls-17" transform="translate(4372.07 387.53)"><tspan xml:space="preserve">   </tspan></text><text class="cls-16" transform="translate(4478.22 387.53)">&lt;button data-toggle=&quot;modal&quot; </text><text class="cls-17" transform="translate(4372.07 428.81)"><tspan xml:space="preserve">       </tspan></text><text class="cls-16" transform="translate(4619.74 428.81)">data-target=&quot;#event-@item.ID” </text><text class="cls-17" transform="translate(4372.07 470.09)"><tspan xml:space="preserve">       </tspan></text><text class="cls-16" transform="translate(4619.74 470.09)">class=&quot;modal-tile&quot;&gt;</text><text class="cls-17" transform="translate(4372.07 511.37)"><tspan xml:space="preserve">   </tspan></text><text class="cls-16" transform="translate(4478.22 511.37)">&lt;img src=&quot;~/images/events/@item.ImageName&quot; </text><text class="cls-17" transform="translate(4372.07 552.64)"><tspan xml:space="preserve">      </tspan></text><text class="cls-16" transform="translate(4584.36 552.64)">alt=&quot;Clique para mais detalhes&quot;&gt;</text><text class="cls-17" transform="translate(4372.07 593.92)"><tspan xml:space="preserve">   </tspan></text><text class="cls-16" transform="translate(4478.22 593.92)">&lt;div class=&quot;modal-tile-details-text&quot;&gt;</text><text class="cls-17" transform="translate(4372.07 635.2)"><tspan xml:space="preserve">    </tspan></text><text class="cls-16" transform="translate(4513.6 635.2)">&lt;small&gt;Ver detalhes&lt;/small&gt;</text><text class="cls-17" transform="translate(4372.07 676.47)"><tspan xml:space="preserve">   </tspan></text><text class="cls-16" transform="translate(4478.22 676.47)">&lt;/div&gt;</text><text class="cls-17" transform="translate(4372.07 717.75)"><tspan xml:space="preserve">   </tspan></text><text class="cls-16" transform="translate(4478.22 717.75)">&lt;div class=&quot;modal-tile-body&quot;&gt;</text><text class="cls-17" transform="translate(4372.07 759.03)"><tspan xml:space="preserve">    </tspan></text><text class="cls-16" transform="translate(4513.6 759.03)">&lt;h5&gt;&lt;span&gt;@item.Name&lt;/span&gt;&lt;/h5&gt;</text><text class="cls-17" transform="translate(4372.07 800.31)"><tspan xml:space="preserve">    </tspan></text><text class="cls-16" transform="translate(4513.6 800.31)">&lt;p&gt;</text><text class="cls-17" transform="translate(4372.07 841.58)"><tspan xml:space="preserve">      </tspan></text><text class="cls-16" transform="translate(4584.36 841.58)">@(item.ShortDescription ?? </text><text class="cls-17" transform="translate(4372.07 882.86)"><tspan xml:space="preserve">      </tspan></text><text class="cls-16" transform="translate(4584.36 882.86)">(item.Presentor != null ? &quot;Apresentado por &quot; + </text><text class="cls-17" transform="translate(4372.07 924.14)"><tspan xml:space="preserve">      </tspan></text><text class="cls-16" transform="translate(4584.36 924.14)">@item.Presentor + &quot;.&quot; : &quot;Em breve.&quot;))</text><text class="cls-17" transform="translate(4372.07 965.41)"><tspan xml:space="preserve">    </tspan></text><text class="cls-16" transform="translate(4513.6 965.41)">&lt;/p&gt;</text><text class="cls-17" transform="translate(4372.07 1006.69)"><tspan xml:space="preserve">   </tspan></text><text class="cls-16" transform="translate(4478.22 1006.69)">&lt;/div&gt;</text><text class="cls-17" transform="translate(4372.07 1047.97)"><tspan xml:space="preserve">  </tspan></text><text class="cls-16" transform="translate(4442.84 1047.97)">&lt;/button&gt;</text><text class="cls-17" transform="translate(4372.07 1089.25)"> </text><text class="cls-16" transform="translate(4407.46 1089.25)">&lt;/div&gt;</text></g><g class="cls-12"><text class="cls-18" transform="translate(1819.91 77.96)">.resume-item-container {</text><text class="cls-19" transform="translate(1819.91 119.23)"> </text><text class="cls-18" transform="translate(1855.29 119.23)">display: flex;</text><text class="cls-19" transform="translate(1819.91 160.51)"> </text><text class="cls-18" transform="translate(1855.29 160.51)">padding-bottom: 1rem;</text><text class="cls-18" transform="translate(1819.91 201.79)">}</text><text class="cls-18" transform="translate(1819.91 284.34)">.resume-item-icon-text-container {</text><text class="cls-19" transform="translate(1819.91 325.62)"> </text><text class="cls-18" transform="translate(1855.29 325.62)">display: flex;</text><text class="cls-18" transform="translate(1819.91 366.9)">}</text><text class="cls-18" transform="translate(1819.91 449.45)">.resume-item-icon {</text><text class="cls-19" transform="translate(1819.91 490.73)"> </text><text class="cls-18" transform="translate(1855.29 490.73)">flex: 0 0 6rem;</text><text class="cls-19" transform="translate(1819.91 532)"> </text><text class="cls-18" transform="translate(1855.29 532)">padding-right: 2rem;</text><text class="cls-18" transform="translate(1819.91 573.28)">}</text></g><path class="cls-2" d="M.89,1536.68v455.81l.26,0Z" transform="translate(-0.72)"/><path class="cls-20" d="M1193.66,2247.05c272.33-91,338.87-121.66,408.41-187.67,124.76-118.43,98.47-198,253.88-552,102.66-233.83,198.21-390.63,287-513.33C2269.79,818.76,2335.59,730.4,2452,696c218.12-64.44,433.06,100.56,474.64,132.48,36.64,28.12,128,170,309.07,452.61,128.79,201,148,256,171.09,342.23,61.78,231,140.75,153.13,215.24,110.39,78.64-45.12,244.55-110.72,590.53-220.79,321.23-102.19,481.85-153.28,689.88-187.67,300.08-49.6,469.17-77.54,673.33-11,100.12,32.62,213.92,113.74,441.52,276,131.05,93.42,288.84,212.69,474.63,369.82,185.63,157,320.41,271,474.64,436.06l32.71,35V2240.61l-32.71-35c-154.23-165.09-289-279.07-474.64-436.06-185.79-157.13-343.58-276.4-474.63-369.82-227.6-162.25-341.4-243.37-441.52-276-204.16-66.5-373.25-38.56-673.33,11-208,34.39-368.65,85.48-689.88,187.67-346,110.07-511.89,175.67-590.53,220.79-74.49,42.74-153.46,120.6-215.24-110.39-23.07-86.23-42.3-141.26-171.09-342.22C3054.59,808,2963.28,666.12,2926.64,638c-41.58-31.92-256.52-196.92-474.64-132.48-116.41,34.4-182.21,122.76-309.06,298.07-88.78,122.7-184.33,279.5-287,513.33-155.41,354-129.12,433.55-253.88,552-69.54,66-136.08,96.7-408.41,187.67-475.77,158.92-678.84,209.75-678.84,209.75-237.4,59.42-393.48,92.78-514.1,116.75v190.48c120.62-24,276.7-57.33,514.1-116.75C514.82,2456.8,717.89,2406,1193.66,2247.05Z" transform="translate(-0.72)"/><path class="cls-21" d="M6966.57,2396.08C6812.34,2231,6677.56,2117,6491.93,1960c-185.79-157.13-343.58-276.4-474.63-369.82-227.6-162.25-341.4-243.37-441.52-276-204.16-66.5-373.25-38.56-673.33,11-208,34.39-368.65,85.48-689.88,187.67-346,110.07-511.89,175.67-590.53,220.79-74.49,42.74-153.46,120.6-215.24-110.39-23.07-86.24-42.3-141.26-171.09-342.23-181.12-282.61-272.43-424.49-309.07-452.61C2885.06,796.56,2670.12,631.56,2452,696c-116.41,34.4-182.21,122.76-309.06,298.07-88.78,122.7-184.33,279.5-287,513.33-155.41,354-129.12,433.55-253.88,552-69.54,66-136.08,96.7-408.41,187.67C717.89,2406,514.82,2456.8,514.82,2456.8c-237.4,59.42-393.48,92.77-514.1,116.75l.13,225.37c120.6-24,276.66-57.33,514-116.73,0,0,203.07-50.83,678.84-209.75,272.33-91,338.87-121.66,408.41-187.67,124.76-118.43,98.47-198,253.88-552,102.66-233.84,198.21-390.64,287-513.34C2269.79,1044.15,2335.59,955.8,2452,921.4,2670.12,857,2885.06,1022,2926.64,1053.87c36.64,28.13,128,170,309.07,452.62,128.79,201,148,256,171.09,342.22,61.78,231,140.75,153.13,215.24,110.4,78.64-45.13,244.55-110.73,590.53-220.79,321.23-102.19,481.85-153.29,689.88-187.67,300.08-49.6,469.17-77.55,673.33-11,100.12,32.61,213.92,113.74,441.52,276,131.05,93.42,288.84,212.7,474.63,369.83,185.63,157,320.41,271,474.64,436l32.71,35v-225.4Z" transform="translate(-0.72)"/></svg>