<?xml version="1.0" encoding="utf-8"?>
<!-- Generator: Adobe Illustrator 23.0.2, SVG Export Plug-In . SVG Version: 6.00 Build 0)  -->
<svg version="1.1" id="Layer_1" xmlns="http://www.w3.org/2000/svg" xmlns:xlink="http://www.w3.org/1999/xlink" x="0px" y="0px"
	 viewBox="0 0 1900 1400" style="enable-background:new 0 0 1900 1400;" xml:space="preserve">
<style type="text/css">
	.st0{fill:url(#SVGID_1_);}
	.st1{fill:#FFFFFF;}
</style>
<linearGradient id="SVGID_1_" gradientUnits="userSpaceOnUse" x1="0" y1="700" x2="1900" y2="700">
	<stop  offset="0" style="stop-color:#B4261E"/>
	<stop  offset="0.5155" style="stop-color:#AF171E"/>
	<stop  offset="1" style="stop-color:#B4261E"/>
</linearGradient>
<rect class="st0" width="1900" height="1400"/>
<g>
	<path class="st1" d="M1015.92,837.07c5.64-24.06,11.26-48.13,16.93-72.19c10.66-45.23,21.53-90.42,31.93-135.72
		c4.04-17.59,2.05-19.96-15.8-22.84c-0.33-2.96-0.88-6.08-0.98-9.22c-0.09-3.19,0.27-6.4,0.51-10.79c21.54,0,42.84,0,65.21,0
		c0,6.38,0,12.6,0,20.3c-13.88-0.37-16.28,10-18.83,21.41c-26.47,118.59-53.19,237.12-80.19,355.58c-0.99,4.33-5.67,7.81-8.64,11.68
		c-2.85-3.77-7.43-7.18-8.28-11.35c-16.61-81.16-32.77-162.42-49.03-243.66c-0.33-1.61-0.75-3.21-3.36-4.94
		c-3.43,21.63-6.92,43.25-10.29,64.89c-9.41,60.51-18.72,121.05-28.23,181.54c-0.68,4.39-1.47,11.03-4.27,12.39
		c-9.41,4.57-12.48-2.15-14.39-10.26c-11.94-51.07-24.05-102.12-36.17-153.15c-16.49-69.4-32.9-138.83-49.88-208.1
		c-1.44-5.87-7.51-10.45-10.47-16.13c-3.04-5.86-4.9-12.33-8.06-20.56c27.47,0,51.55,0,76.34,0c0,6.09,0,11.93,0,18.88
		c-17.95,1.73-16.52,13.49-13.31,26.88c15.05,62.66,29.78,125.39,44.69,188.08c0.92,3.83,2.27,7.57,5.78,11.43
		c4.18-25.7,8.43-51.39,12.53-77.1c10.01-62.73,19.84-125.51,30.13-188.19c0.75-4.53,4.69-8.52,7.15-12.78
		c2.7,4.04,6.91,7.77,7.88,12.19c19.66,90.38,38.94,180.85,58.29,271.29C1014.05,836.77,1014.98,836.92,1015.92,837.07z"/>
	<path class="st1" d="M861.12,282.06c18.99-35.87,61.81-30.19,89.96,14.02c9.64-26.95,27.8-40.36,55.68-37
		c14.39,1.73,25.48,9.26,34.09,22.66c-4.53,1.64-7.72,3.25-11.12,3.97c-45.58,9.59-77.08,62.27-69.53,111.51
		c3.02,19.73,14.56,35.2,33.45,40.54c18.69,5.28,38.69,6.45,58.22,8.06c10.77,0.88,17.74-6.14,21.57-16.21
		c7.88-20.75,8.29-41.81-0.47-61.96c-2.8-6.43-12.13-15.06-17.19-14.28c-7.35,1.13-16.85,8.61-19.52,15.63
		c-6.09,16.01-3.72,32.83,6.28,47.45c6.44,9.42,14.99,8.98,18.34-1.61c2.65-8.36,2.49-17.89,1.96-26.81
		c-0.17-2.75-5.67-5.18-8.74-7.76c-0.74,0.94-1.47,1.86-2.21,2.8c1.19,7.08,2.37,14.18,3.87,23.14c-13.42-7.9-15.74-31.4-5.44-37.32
		c2.82-1.62,10.69,0.95,13.12,4.04c8.84,11.28,8.43,39.67,0.51,51.65c-6.37,9.63-15.5,10.76-24.65,3.02
		c-20.7-17.49-21.31-61.92-1.35-80.3c12.12-11.17,26.71-9.55,40.63-7.2c32.89,5.54,58.5,23.84,79.23,49.21
		c2.17,2.65,2.75,8.99,1.09,12c-18.56,33.95-48.16,56.4-80.82,75.33c-2.36,1.37-6.51,1.26-9.19,0.2
		c-32.36-12.93-65.42-11.03-97.83-2.26c-21.55,5.82-41.1-1.11-61.31-4.05c-25.99-3.78-51.31-3.78-76.25,5.71
		c-3.75,1.43-9.56,1.4-12.87-0.57c-28.74-17.07-54.53-37.47-74.17-65.21c-8.36-11.8-6.81-19.54,3.07-29.38
		c25.49-25.35,54.23-43.27,91.38-41.62c8.27,0.37,18.1,4.88,24.08,10.7c17.75,17.28,16.45,57.57-0.98,75.03
		c-12.06,12.08-23.68,9.78-29.65-6.22c-5.76-15.42-5.19-30.86,2.48-45.46c1.61-3.07,6.22-6.51,9.27-6.36
		c3.06,0.16,7.47,4.08,8.54,7.27c3.59,10.79,5.71,21.93-7.79,30.31c0.27-5,0.77-9.99,0.75-14.99c-0.01-2.78-0.86-5.56-1.34-8.32
		c-2.77,1.77-8.05,3.77-7.91,5.27c0.98,10.99,2.85,21.91,5.36,32.65c0.12,0.52,10.5,0.78,13.27-1.83
		c11.79-11.16,13.9-40.91,4.98-54.55c-9.05-13.83-24.53-14.05-31.95,0.57c-12.01,23.65-11.78,48.21,0.27,71.73
		c2.65,5.17,10.55,10.81,16.01,10.8c17.81-0.04,36.27-0.13,53.26-4.69c35.18-9.47,49.78-40.41,39.59-80.69
		c-9.6-37.94-30.96-65.47-71.06-74.85c-1.77-0.41-3.5-1.04-5.15-1.81C862.19,283.68,861.72,282.74,861.12,282.06z"/>
	<path class="st1" d="M1129.05,1029.51c14.88-28.36,30.99-55.23,43.56-83.66c54.17-122.61,76.28-250.89,60.76-384.3
		c-7.96-68.38-26.75-133.78-73.77-187.43c-24.88-28.38-55.82-44.89-93.73-46.78c-25.85-1.29-43.91,12.42-50.99,37.4
		c-7.15,25.21-1.56,48.13,13.89,69.39c-39.04,1.46-65.36-27.93-58.97-64.58c10.16-58.25,57.47-86.06,119.53-70.38
		c51.62,13.05,88.7,44.96,116.81,88.95c35.39,55.39,50.98,117.08,57.17,181.46c14.79,153.95-11.44,300.24-85.68,436.62
		C1161.62,1035.63,1172.47,1030.2,1129.05,1029.51z"/>
	<path class="st1" d="M870.73,433.57c14.72-21.32,20.73-42.71,14.79-66.69c-6.84-27.56-26.37-42.19-54.34-40.18
		c-49.41,3.56-83.27,31.09-109.34,70.73c-29.99,45.63-45.59,96.85-52.2,150.04c-21.03,169.16,9.47,328.17,98.98,474.58
		c1.15,1.87,2.06,3.89,4.19,7.95c-11.03,0-20.65,1.16-29.77-0.47c-4.77-0.85-10.01-5.78-12.73-10.26
		c-38.65-63.65-63.08-132.89-78.71-205.35c-23.72-110.01-27.03-220.17,1.46-329.88c14.69-56.59,38.33-108.96,84.09-147.75
		c38.22-32.4,82.2-49.67,132.98-38.28c40.14,9.01,67.99,56.48,58.83,96.72C923.97,416.6,901.46,432.27,870.73,433.57z"/>
	<path class="st1" d="M751.45,971.65c-57.07-118.11-82.57-238.57-77.43-366.52c22.91,6.07,44.31,11.74,66.76,17.69
		c-12.44,113.65,11.33,220.1,70.28,322.19C790.64,954.14,771.72,962.59,751.45,971.65z"/>
	<path class="st1" d="M1226.45,604.99c5.04,127.83-20.08,248.75-77.11,366.62c-19.87-8.81-38.81-17.2-59.39-26.32
		c28.59-51.72,50.27-102.71,62.1-157.52c11.77-54.5,14.28-109.4,7.51-164.95C1181.53,616.96,1203.06,611.22,1226.45,604.99z"/>
	<path class="st1" d="M818.52,483.08c-43.18,29.8-63.41,71.42-73.67,118.63c-2.24,10.32-6.1,13.54-15.54,10.87
		c-15.47-4.39-31.04-8.54-46.16-13.92c-3.54-1.26-7.99-7.25-7.74-10.75c4.76-64.09,17.85-125.83,53.83-180.65
		c0.69-1.05,1.89-1.78,3.73-3.44C753.58,438.06,783.78,461.74,818.52,483.08z"/>
	<path class="st1" d="M1168.58,402.4c28.65,42.4,42.76,87.32,50.97,134.34c2.76,15.82,3.85,31.93,6,47.86
		c1,7.42-0.92,12.52-8.66,14.67c-15.89,4.4-31.7,9.12-47.63,13.4c-7.71,2.07-11.24-0.99-12.98-9.3
		c-7.85-37.54-22.64-71.9-49.83-99.83c-6.97-7.16-14.91-13.36-23.49-20.95C1117.05,461.86,1147.81,438.26,1168.58,402.4z"/>
	<path class="st1" d="M796.37,1179.78c-34.96-0.65-28.54,3.59-29.03-29.3c-0.33-22.53,0.42-45.08-0.23-67.59
		c-0.31-10.4,3.57-14.08,13.52-13.62c12.84,0.61,25.91-0.75,38.53,1.11c32.11,4.71,50.42,26.27,49.3,56.05
		c-1.13,29.82-20.97,49.99-52.8,53.24C809.3,1180.33,802.8,1179.78,796.37,1179.78z M794.81,1153.93
		c18.49,4.54,32.89,0.69,40.21-10.38c6.95-10.49,6.94-28.17-0.02-37.91c-7.81-10.92-22.82-14.8-40.19-10.08
		C794.81,1114.97,794.81,1134.53,794.81,1153.93z"/>
	<path class="st1" d="M870.08,1030.02c-26.86,0-52,0.17-77.13-0.22c-3.08-0.05-7.27-2.33-8.98-4.89
		c-10.13-15.21-19.7-30.79-29.48-46.29c20.39-9.2,39.33-17.73,59.08-26.65C831.28,976.42,849.96,1002.22,870.08,1030.02z"/>
	<path class="st1" d="M1087.11,952.05c19.11,8.76,38.12,17.46,59.01,27.03c-9.49,15.05-19.53,31.32-30.08,47.25
		c-1.4,2.12-5.41,3.5-8.22,3.53c-25.15,0.27-50.31,0.16-76.74,0.16C1050.52,1002.95,1069.08,977.13,1087.11,952.05z"/>
	<path class="st1" d="M976.75,1135.76c-0.03,28.32-18.43,47.19-46.11,47.3c-27.73,0.11-45.9-18.69-45.75-47.34
		c0.14-28.56,18.32-47.23,46.09-47.34C958.79,1088.27,976.78,1106.9,976.75,1135.76z M954.01,1135.02
		c-0.23-15.5-10.4-27.09-23.56-26.84c-13.26,0.24-22.83,11.79-22.85,27.57c-0.02,15.66,9.7,27.42,22.84,27.6
		C944.01,1163.55,954.25,1151.25,954.01,1135.02z"/>
	<path class="st1" d="M1136.54,1069.96c0,7.83,0,14.95,0,23.43c-10.62,0-20.57,0-32.01,0c0,29.15,0,57,0,85.87
		c-9.47,0-17.47,0-27.31,0c0-28.01,0-55.86,0-84.94c-11.29,0-20.8,0-31.74,0c0-8.64,0-16.03,0-24.35
		C1075.68,1069.96,1105.76,1069.96,1136.54,1069.96z"/>
	<path class="st1" d="M952.18,272.09c-15.28-9.71-29.35-18.66-44.06-28.01c3.67-13.83,17.2-25.04,34.57-26.74
		c25.14-2.47,41.31,6.23,51.97,28.54c-8.25,3.49-17.07,6.07-24.57,10.76C962.82,261.18,956.9,267.9,952.18,272.09z"/>
	<path class="st1" d="M1023,1070.14c0,37.05,0,72.78,0,109.35c-8.37,0-16,0-24.74,0c0-36.08,0-72.18,0-109.35
		C1006.12,1070.14,1014.07,1070.14,1023,1070.14z"/>
</g>
</svg>
