<?xml version="1.0" encoding="utf-8"?>
<!-- Generator: Adobe Illustrator 23.0.2, SVG Export Plug-In . SVG Version: 6.00 Build 0)  -->
<svg version="1.1" id="Layer_1" xmlns="http://www.w3.org/2000/svg" xmlns:xlink="http://www.w3.org/1999/xlink" x="0px" y="0px"
	 viewBox="0 0 357.4 561.9" style="enable-background:new 0 0 357.4 561.9;" xml:space="preserve">
<style type="text/css">
	.st0{fill:#231F20;}
	.st1{fill:#5D5656;}
	.st2{fill:#494343;}
	.st3{fill:#777070;}
	.st4{fill:#B2ADAD;}
	.st5{fill:#AEAAAA;}
	.st6{fill:#C32227;}
	.st7{fill:#D5AD7F;}
	.st8{fill:#E2C7A9;}
	.st9{fill:#E5CCB0;}
	.st10{fill:#DCBB97;}
	.st11{fill:#DFC3A2;}
	.st12{fill:#E1C5A6;}
	.st13{fill:#DBB893;}
	.st14{fill:#E3C9AC;}
	.st15{fill:#DDBF9C;}
	.st16{fill:#D7B085;}
	.st17{fill:#E7D0B6;}
	.st18{fill:#DAB790;}
	.st19{fill:#D8B38A;}
	.st20{fill:#E5CDB2;}
	.st21{fill:#E7D0B7;}
	.st22{fill:#E7D1B8;}
	.st23{fill:#D7B084;}
	.st24{fill:#DAB791;}
	.st25{fill:#D6AF83;}
	.st26{fill:#DCBB96;}
	.st27{fill:#E3C9AD;}
	.st28{fill:#E8D3BC;}
	.st29{fill:#DEC19F;}
	.st30{fill:#D7B187;}
	.st31{fill:#DEC09F;}
	.st32{fill:#D6AF82;}
	.st33{fill:#E3CAAD;}
	.st34{fill:#D8B48B;}
	.st35{fill:#D7B086;}
	.st36{fill:#E5CDB1;}
	.st37{fill:#EAD5BE;}
	.st38{fill:#DCBC98;}
	.st39{fill:#DFC1A0;}
	.st40{fill:#D6AF84;}
	.st41{fill:#DAB892;}
	.st42{fill:#DAB893;}
	.st43{fill:#D6AE82;}
	.st44{fill:#DBBB96;}
	.st45{fill:#D8B48C;}
	.st46{fill:#D6B085;}
	.st47{fill:#E6CFB6;}
	.st48{fill:#D7B289;}
	.st49{fill:#FFFEFE;}
</style>
<title>education-1</title>
<path class="st0" d="M357.1,258c-0.2,8.5-0.8,16.9-1.5,25.4c-1.1,11.7-2.5,23.3-4.5,34.9c-2.7,16.2-6.2,32.3-10.6,48.2
	c-6.3,23.1-14.7,45.5-25.1,67.1c-8.1,16.9-17.7,33.1-28.8,48.2c-7.3,10-15.3,19.4-24.1,28.1c-13.3,13-28,24.1-44.7,32.4
	c-9.5,4.8-19.6,8.4-30,10.9c-0.6,0.1-1.1,0.5-1.5,1.1c-1.5,2.4-3.4,4.6-5.5,6.4c-1.7,1.3-2.5,1.3-4.1,0c-2.1-1.8-3.9-3.8-5.3-6.1
	c-0.5-0.7-1.2-1.2-2.1-1.4c-18.5-4.6-36-12.8-51.4-24c-16-11.6-30.2-25.5-42.3-41.2c-18.1-23.2-31.9-48.8-43-75.9
	c-9-22.1-16.1-45-21.2-68.3c-2.4-10.9-4.5-21.9-6.1-33c-1.4-9.5-2.5-19.1-3.4-28.7c-0.7-8.5-1.2-17-1.5-25.5
	c-0.3-8.3-0.3-16.6-0.1-25c0.2-8.7,0.7-17.3,1.5-25.9c1.1-12.7,3-25.3,5.6-37.8c5.3-25,13.5-48.9,27.1-70.8
	C43.4,82.7,54.3,70.2,68,60.4c11.8-8.6,25.4-14.3,39.8-16.6c4.1-0.7,8.3-1,12.5-1c0.5,0,0.9,0,1.2-0.5c4.2-7.9,10.9-12.8,19-16.2
	c2.1-0.9,4.3-1.5,6.5-1.8c0.9-0.1,1.1-0.6,1.3-1.3c2.6-7.7,6.9-14.1,13.9-18.4c3.7-2.3,7.9-3.7,12.2-4.2c0.2,0,0.4,0,0.5-0.2h7.4
	c1.4,0.2,2.9,0.2,4.4,0.5c7.8,1.8,14.5,6.7,18.7,13.5c1.8,2.7,3.2,5.6,4.1,8.8c0.2,0.6,0.7,1.1,1.4,1.1c6.1,1.2,11.7,3.9,16.6,7.7
	c3.5,2.6,6.4,5.9,8.5,9.7c0.3,0.7,1,1.1,1.7,1c13.9,0.2,27.5,3.7,39.7,10.1c7.5,3.9,14.5,8.7,20.8,14.3c12.4,10.9,22,23.9,29.9,38.3
	c5.3,9.8,9.8,20.1,13.5,30.7c5.3,15.3,9.1,31,11.6,47c1.1,7.1,2,14.2,2.7,21.3c0.6,6.4,1.2,12.9,1.2,19.4c0,1.8,0,3.6,0.1,5.4v1.8
	c-0.1,1.7,0,3.3,0.1,5v15.1c-0.1,1-0.2,1.9-0.1,2.9v2.4C357.3,256.7,357.3,257.4,357.1,258z"/>
<path class="st1" d="M357.4,235.7c-0.3-1.7-0.4-3.4-0.2-5.1c0.1-0.1,0.2-0.1,0.2,0V235.7z"/>
<path class="st2" d="M357.1,253.7c0.1-1-0.3-2,0.2-2.9v2.9C357.3,253.8,357.3,253.8,357.1,253.7z"/>
<path class="st3" d="M357.1,253.7h0.2v2.4c-0.1,0.1-0.1,0.1-0.2,0V253.7z"/>
<path class="st4" d="M357.1,256.1h0.2v1.9h-0.2V256.1z"/>
<path class="st5" d="M357.4,230.7c-0.1,0-0.1,0-0.2,0c0-0.6,0-1.3,0-1.9c0.1,0,0.1,0,0.2,0L357.4,230.7z"/>
<path class="st6" d="M288.7,263.8c0.1,6.9-0.2,13.8-0.8,20.7c-1.2,15.7-3.7,31.3-7.5,46.6c-4.3,17.7-10.4,34.9-18.2,51.3
	c-8.2,16.9-17.1,33.3-27.7,48.8c-7.8,11.6-16.7,22.3-26.8,31.9c-7.7,7.2-16,13.5-25.6,18c-3.4,1.6-3.4,1.6-6.8,0
	c-7.2-3.5-13.9-7.8-20-13.1c-12.3-10.3-22.4-22.5-31.5-35.7c-14.5-21-26.6-43.6-36.1-67.2c-5.2-13.2-9.3-26.8-12.2-40.6
	c-1.7-7.9-3.1-15.8-4.2-23.8c-0.8-5.9-1.4-11.9-1.8-17.9c-0.6-8.3-0.8-16.7-0.6-25c0.1-6.9,0.7-13.9,1.6-20.8
	c1.2-10.1,3.4-20,6.6-29.7c4.3-13.2,10.4-25.4,19.8-35.8c5-5.7,11-10.5,17.7-14c5.3-2.5,11-4.2,16.8-4.9c4.2-0.7,8.5-1,12.8-0.9
	c7,0.3,14,1.3,20.8,3.2c3.8,1.1,7.6,1.9,11.4,2.6c3.3,0.5,6.5-0.2,9.7-0.9c5.5-1.3,10.9-2.9,16.4-3.8c6.2-1.1,12.6-1.3,18.8-0.7
	c5.6,0.5,11.1,1.6,16.5,3.3c6.3,2.3,12.2,5.8,17.1,10.3c10.7,9.4,17.8,21.2,23,34.3c4.2,10.7,7.1,21.9,8.7,33.3
	c1.1,7.2,1.8,14.5,2,21.8C288.7,258,288.7,260.9,288.7,263.8z"/>
<path class="st7" d="M143.3,88.6c-1-3.2-2.4-6.3-4.2-9.1c-4-6.2-9.5-10.3-16.8-11.6c-3.7-0.5-7.4-0.5-11.1,0
	c-16.4,2-30,9.5-41.7,20.8c-9.4,9.1-16.7,19.8-22.7,31.4c-3.4,6.6-6.3,13.3-8.9,20.3c-0.1,0.2-0.2,0.4-0.3,0.5c-0.9,0.4-1.3,1.4-2,2
	c-4,4-7.7,8.3-11.3,12.7c-3.9,4.8-7.5,9.7-10.9,14.8c-0.3,0.4-0.5,1.2-1.3,1c0.5-3.6,1.4-7.1,2.2-10.7c3.9-16.9,9.7-33.2,17.5-48.6
	c6.7-13.2,14.9-25.4,25.5-35.9c13.2-12.9,28.5-22,46.7-25.8c10.8-2.3,21.6-2.7,32.4,0.4c9.6,2.7,16.7,8.6,22.4,16.5
	c4,5.5,6.7,11.7,8.1,18.4c-1.8,0.8-3.8,0.6-5.6,0.8c-5.4,0.5-10.8,1.2-16.2,2.1C144.6,88.7,143.9,88.9,143.3,88.6z"/>
<path class="st7" d="M191.1,83.8c3.6-12.9,10.7-23.3,22.6-30c5.4-2.9,11.5-4.6,17.6-4.9c7.6-0.6,15.3-0.1,22.8,1.5
	c14.6,3.3,28.2,10.1,39.6,19.8c13.2,11.1,23.1,24.7,31,39.8c9.1,17.8,15.8,36.7,19.8,56.4c0.3,1.5,0.6,3,0.9,4.6
	c-0.8,0.1-1-0.6-1.3-1c-3.4-5-6.9-9.8-10.7-14.4c-3.3-4-6.6-8-10.3-11.6c-0.5-0.5-0.9-1-1.4-1.5c-0.4-0.5-0.9-1.3-1.7-1.4
	c-1.8-4.2-3.4-8.5-5.2-12.7c-6-13.3-13.4-25.7-23.5-36.4c-10.8-11.4-23.5-19.7-39-23c-5.1-1.2-10.3-1.6-15.5-1.2
	c-7.2,0.8-12.7,4.4-17.1,10c-2.1,2.9-3.7,6-4.9,9.3c-6-1.2-12.1-2.1-18.3-2.6C194.8,84.3,192.9,84.1,191.1,83.8z"/>
<path class="st7" d="M171.8,83.4c-1.1-3.7-2.5-7.2-4.1-10.7c-4.2-8.2-9.6-15.5-17.2-20.9c-5-3.6-10.7-5.6-16.6-7.1
	c-1.6-0.4-3.2-0.8-4.8-1.1c-0.9-0.2-0.9-0.5-0.5-1.2c3.6-6.4,9.6-11,16.7-12.8c10.7-2.8,23.2,1.8,29.1,10.9c1.3,2,2.2,4.2,2.8,6.4
	c0.1,0.7,0.4,1.4,0.9,2c0.6,0.7,1.2,0.7,1.7,0c0.4-0.5,0.6-1,0.8-1.6c2.1-8.5,7.9-13.7,15.8-16.7c12.2-4.7,26,0.1,32.6,11.4
	c0.8,1.4,0.8,1.3-0.7,1.7c-6.3,1.1-12.3,3.2-18,6.1c-6.8,3.8-11.8,9.5-16.1,15.8c-3.6,5.2-6.3,11-8,17.1c-0.1,0.2-0.2,0.4-0.2,0.7
	c-3.3-0.2-6.5-0.7-9.8-0.3C174.6,83.3,173.2,83.1,171.8,83.4z"/>
<path class="st7" d="M79.5,453.4c2.8,4.1,5.6,8.4,8.6,12.4c6,8.2,12.5,16,19.6,23.3c12.1,12.4,25.6,22.9,41.2,30.6
	c3.8,1.9,7.6,3.5,11.5,5c0.5,0.2,0.9,0.3,0.9,1c-0.1,6.4,1.3,12.8,4,18.6c0,0.1,0.1,0.3,0.1,0.4c-1,0-1.9-0.2-2.8-0.6
	c-21-6.5-39.5-17.4-56.1-31.8c-17-14.8-30.9-32.2-42.9-51.2c-6.1-9.7-11.7-19.8-16.7-30.1c-0.1-0.2-0.1-0.4-0.2-0.5
	c0.6-0.4,1,0,1.3,0.4c3.9,3.4,7.9,6.6,12,9.7c5.7,4.3,11.7,8.2,17.8,11.8C78.4,452.6,78.9,453.1,79.5,453.4z"/>
<path class="st7" d="M310.9,430.6c-2.5,5.5-5.4,10.8-8.3,16c-8.8,16.1-19.2,31.2-31.1,45.1c-15.7,18.3-33.9,33.5-55.8,44
	c-7.2,3.5-14.6,6.4-22.3,8.6c-0.3,0.1-0.7,0.2-1.1,0.1c-0.2-0.3,0-0.5,0.1-0.8c2.6-5.7,3.9-11.8,3.8-18c-0.1-0.5,0.2-1.1,0.8-1.2
	c0,0,0,0,0.1,0c16.8-6.2,31.4-15.8,44.6-27.7c13.9-12.5,25.5-27,35.7-42.6c0.2-0.3,0.5-0.6,0.7-1c4.9-2.7,9.6-5.6,14.1-8.8
	c5.2-3.6,10.2-7.4,15-11.5c0.8-0.7,1.6-1.4,2.5-2.1C310.1,430.6,310.4,430.2,310.9,430.6z"/>
<path class="st7" d="M161.6,480.3c4.6,3.2,9.4,6,14.4,8.3c1.7,0.9,3.8,0.9,5.5,0c4.7-2.2,9.2-4.8,13.5-7.7c0.3-0.2,0.6-0.4,1-0.6
	c2.4,5.5,5.6,10.5,9.5,15.1c3.7,4.4,7.8,8.4,12.2,12c0.8,0.6,0.8,0.9-0.1,1.5c-6.6,4.1-13.5,7.5-20.8,10.3c-0.8,0.3-1.1,0.4-1.3-0.7
	c-0.6-3.1-2.6-5.6-5.4-7c-7.9-4.2-15.9-4.1-23.6,0.6c-2.5,1.4-4.2,3.9-4.6,6.7c-0.1,0.9-0.6,0.6-1.1,0.4c-5.1-1.9-10.1-4.2-14.9-6.9
	c-2.1-1.1-4-2.4-6.1-3.5c-0.9-0.5-0.9-0.8-0.1-1.4c5.4-4.3,10.3-9.3,14.5-14.8C157.3,488.8,159.7,484.7,161.6,480.3z"/>
<path class="st8" d="M91.2,388.6c2.2,4.4,4.5,8.7,6.7,13.1c0.5,1,1,2,1.4,3c-0.6,0.5-1.1,0-1.5-0.3c-4.5-2.9-8.7-6.1-12.9-9.4
	c-4.3-3.5-8.3-7.2-12.1-11.1c-7.1-7.4-13.5-15.6-19-24.3c-6.2-9.9-11.3-20.5-15-31.6c-2.9-8.6-4.9-17.4-6.1-26.4
	c-0.5-3.6-0.9-7.2-1.1-10.8s-0.3-7.1-0.3-10.6c0.1-15,2.4-30,7-44.3c0.9-2.9,2-5.8,3.1-8.6c0.1-0.5,0.3-0.9,0.7-1.2l7.4,2
	c0.2,0.1,0.4,0.1,0.5,0.2c0.4,0.6,0.2,1.2-0.1,1.7c-2,5.1-3.7,10.2-5.1,15.5c-1.8,6.5-3,13.1-3.8,19.8c-0.4,3.7-0.5,7.5-0.8,11.2
	c-0.2,4.2-0.2,8.5,0.1,12.7c0.9,15.9,4.5,31.6,10.8,46.2c5,11.8,11.6,22.8,19.6,32.7c5.8,7.2,12.4,13.9,19.5,19.7
	C90.8,388.1,91,388.3,91.2,388.6z"/>
<path class="st9" d="M91.2,388.6c-1.9-0.8-3.1-2.3-4.6-3.5c-3.4-3-6.6-6.1-9.7-9.5c-9.7-10.5-17.7-22.4-23.8-35.3
	c-5.8-12.3-9.7-25.4-11.8-38.8c-0.5-3.5-0.9-7-1-10.5c-0.2-3.8-0.6-7.6-0.4-11.5c0.2-4.6,0.4-9.3,0.9-13.9c0.7-6.4,1.8-12.8,3.4-19
	c1.4-5.6,3.2-11.2,5.4-16.6c0.3-0.5,0.4-1.1,0.4-1.7l8.7,1.6c0.2,0.6-0.1,1.1-0.3,1.6c-3.9,9.6-6.7,19.6-8.2,29.8
	c-0.8,4.9-1.2,9.9-1.3,14.9c0,1.6-0.2,3.2-0.2,4.8c0.1,12.4,1.9,24.7,5.2,36.5c5.2,18,14.3,34.6,26.6,48.7c0.6,0.8,1.2,1.5,2,2.2
	c1.9,4.4,3.8,8.9,5.7,13.3C89.1,383.9,90.2,386.2,91.2,388.6z"/>
<path class="st7" d="M156.1,476.4c2.7,1.6,2.7,1.7,1.4,4.4c-3.1,6.2-7.1,11.9-12,16.8c-2.7,2.8-5.6,5.4-8.6,7.9
	c-0.5,0.6-1.3,0.6-1.9,0.2c0,0-0.1-0.1-0.1-0.1c-12.1-8.5-22.9-18.5-32.4-29.8c-5-5.9-9.7-12-14-18.4c-0.2-0.3-0.4-0.7-0.7-1
	c0.7-0.7,1.4-0.2,2.1,0.1c3,1.5,6,2.9,9.1,4.3c15.7,7,32.3,11.9,49.4,14.6C150.9,475.6,153.5,476,156.1,476.4z"/>
<path class="st7" d="M269.8,456.3c-2.9,4.6-6.2,9-9.6,13.3c-9.6,12.5-20.9,23.7-33.6,33.1c-1.4,1-2.7,1.9-4.1,2.9
	c-0.3,0.3-0.9,0.4-1.2,0c0,0,0,0,0,0c-8.9-7.2-16.6-15.4-21.5-26c-0.6-1.2-0.5-2,0.7-2.6c0.3-0.2,0.7-0.4,1-0.7
	c5.9-0.9,11.9-1.7,17.7-2.9c12.2-2.6,24.2-6.3,35.8-11.1c4.4-1.9,8.8-3.9,13.1-6C268.6,456.2,269.1,455.8,269.8,456.3z"/>
<path class="st7" d="M131.5,89.8c-0.9-1.8-2.1-3.5-3.6-4.9c-3.4-2.9-8.2-4.2-12.1-0.3c-1.2,1.3-2.2,2.7-3,4.3
	c-1.2,2.6-2.2,5.2-2.8,8c-0.6,0-1.1,0.1-1.6,0.3c-9.8,3.7-19.2,8.2-28.3,13.5c-3.1,1.8-6.1,3.8-9.2,5.6c-0.4,0.2-0.8,0.6-1.3,0.4
	c-2.8-3.5-5-7.4-6.7-11.6c-0.2-0.4-0.1-0.9,0.2-1.3C71.9,92.4,82.4,83,95.9,77.4c7.5-3.2,15.6-4.7,23.7-4.5
	c6.5,0.2,11.3,3.4,14.8,8.7c1.4,2,2.4,4.1,3.1,6.4c-0.1,0.2-0.4,0.4-0.6,0.5C135.1,89.1,133.3,89.5,131.5,89.8z"/>
<path class="st7" d="M220.1,88.1c2.4-6.8,6.3-12.3,13.6-14.5c3.2-1,6.5-0.8,9.8-0.5c18.9,1.6,33.6,11,46,24.7c1.8,1.9,3.3,4,5,6
	c0.4,0.3,0.5,0.8,0.3,1.3c-1.6,4.1-3.8,7.9-6.6,11.3c-1.1-0.3-2.1-0.9-2.9-1.6c-6.8-4.3-13.8-8.3-21-11.7
	c-5.1-2.5-10.4-4.7-15.8-6.7c-0.4-0.1-0.8-0.3-1.1-0.5c-0.6-2.1-1.3-4.2-2.2-6.2c-0.8-1.6-1.7-3.1-2.8-4.4c-2.3-3-6.4-3.9-9.8-2.2
	c-2.3,1.1-4.3,2.8-5.5,5.1l-0.7,1.2c-0.9,0-1.8-0.1-2.6-0.4C222.5,88.7,221.3,88.4,220.1,88.1z"/>
<path class="st7" d="M178.9,5.8c7,0,13.2,1.9,18.4,6.8c2.8,2.6,5,5.9,6.3,9.5c0.5,1.3,0.5,1.3-0.9,1.5c-5.4,0.6-10.5,2.6-14.8,5.9
	c-3.4,2.5-6.3,5.7-8.4,9.4c-0.6,1.1-0.7,1.1-1.3,0c-4.7-8.2-12.9-13.7-22.2-15.2h-0.1c-2.4-0.3-2.4-0.3-1.4-2.6
	c4.4-9.7,12-14.7,22.6-15.2C177.7,5.7,178.3,5.8,178.9,5.8z"/>
<path class="st10" d="M22.6,218.2l-0.7,20.2c-0.8,2.7-1.4,5.5-2,8.2c-1.5,7.1-2.6,14.3-3.1,21.6c-0.4,5.3-0.6,10.5-0.5,15.8
	c0.4,16.2,3.1,32.2,8,47.6c2.9,8.8,6.5,17.3,10.8,25.5c1.6,3.1,3.5,6.2,5.2,9.3c0.1,0.2,0.2,0.3,0.4,0.5c1.5,4.5,3,9.1,4.5,13.6
	c0.5,1.5,1,3,1.5,4.5c0,0.5-0.3,0.4-0.6,0.3c-0.4-0.2-0.7-0.5-0.9-0.9c-5-6.4-9.5-13.2-13.5-20.2c-4-7-7.4-14.3-10.3-21.8
	c-4.9-12.5-8.2-25.6-10.1-38.9c-0.6-4.5-1-9.1-1.3-13.6c-0.3-5.2-0.3-10.4-0.1-15.5c0.4-9.8,1.6-19.5,3.7-29
	c1.9-8.7,4.5-17.3,7.7-25.6C21.5,219.1,21.6,218.2,22.6,218.2z"/>
<path class="st11" d="M128.1,133.9c2.2,0,4.5,0,6.7-0.1c7.5-0.2,14.9-1.9,21.8-5c0.1-0.1,0.3-0.1,0.4-0.1c4.4-0.6,8.9-1,13.4-1.3
	c4.5-0.3,9-0.3,13.4-0.2c5.6,0.1,11.2,0.6,16.7,1.5c5.7,2.9,11.8,4.1,18.1,4.9c6.9,1.8,13.6,4.1,20.1,6.9c4.3,1.9,8.6,3.9,12.7,6.1
	c0.5,0.3,1.2,0.4,1.2,1.3c-1.6,1.1-3.3,2.1-5,2.9c-0.6,0.1-1.1-0.3-1.6-0.5c-32.4-16.6-69.9-20.6-105.1-11.3
	c-10.3,2.8-20.3,6.6-29.8,11.5c-0.4,0.2-0.9,0.4-1.3,0.5c-2.6-1.4-5.1-2.9-7.5-4.5c-0.3-0.8,0.3-1.1,0.8-1.4c2.6-1.5,5.2-3,7.9-4.2
	c5-2.3,10.1-4.6,15.4-6.4C127.1,134.3,127.7,134.3,128.1,133.9z"/>
<path class="st10" d="M335.8,237.6c-0.3-3-0.1-6-0.3-9.1c-0.2-3.5-0.3-7.1-0.4-10.6c0.8-0.3,0.9,0.3,1.1,0.8c0.7,1.6,1.3,3.3,1.9,5
	c4.2,11.9,7.1,24.2,8.7,36.7c1.1,9.2,1.5,18.6,1.1,27.9c-0.3,7.5-1.1,14.9-2.5,22.3c-2,11.2-5.1,22.1-9.3,32.7
	c-5.9,14.7-13.7,28.5-23.4,41c-0.3,0.4-0.6,0.7-0.9,1.1c-0.3,0.3-0.6,0.6-1,0.3c2-6.1,4-12.2,6-18.2c4.1-6.6,7.7-13.5,10.9-20.5
	c5-11.3,8.7-23.1,11-35.3c1.1-5.5,1.8-11.1,2.3-16.7c0.4-4.5,0.7-9,0.6-13.5c0-13.4-1.6-26.8-4.9-39.9
	C336.5,240.1,336.2,238.9,335.8,237.6z"/>
<path class="st11" d="M98,148.1l7.9,5c-0.7,0.7-1.5,1.2-2.3,1.6c-26.2,15.6-46.9,39-59.2,66.9c-0.1,0.4-0.4,0.8-0.7,1.1
	c-2.7-0.8-5.4-1.7-7.9-2.9c-0.3-0.4,0-0.8,0.1-1.1c3.3-7.5,7.1-14.7,11.5-21.6c3.7-5.8,7.7-11.3,12.1-16.5c4.2-5,8.8-9.7,13.6-14.2
	c4.7-4.3,9.6-8.3,14.7-12c2.8-2,5.7-4,8.7-5.8C96.9,148.2,97.4,147.8,98,148.1z"/>
<path class="st12" d="M256.3,408c1.3-2.7,2.8-5.3,4.3-8c1-0.3,1.9-0.8,2.6-1.4c17.6-12.7,32.1-29.2,42.7-48.1
	c8-14.6,13.4-30.4,16-46.9c0.8-5,1.3-10,1.6-15.1c0.3-4.3,0.3-8.6,0.1-12.9c-0.2-6.4-0.9-12.8-2-19.2c-1.7-9.5-4.2-18.7-7.7-27.7
	c-0.3-0.6-0.6-1.2-0.8-1.9c1.4-0.6,2.9-1,4.4-1.4c0.7,0.9,1.3,2,1.5,3.2c4,10.8,6.8,22,8.3,33.5c0.5,3.9,0.9,7.9,1,11.8
	c0.1,0.5,0.2,1,0.2,1.5c-0.1,4-0.7,8-1.1,12c-0.8,7.3-1.8,14.6-3,21.9c-0.9,5.6-1.9,11.2-3.1,16.8c-5.6,17.5-14.4,33.8-25.8,48.1
	c-2.6,3.3-5.5,6.4-8.4,9.5c-6.3,6.6-13.1,12.6-20.5,18c-2.9,2.1-5.8,4.1-8.9,6C257.4,408.1,256.9,408.5,256.3,408z"/>
<path class="st11" d="M251.7,153.1l7.9-5c0.8-0.4,1.3,0.1,1.9,0.5c4.1,2.6,8.2,5.3,12,8.3c6.2,4.7,12.1,9.9,17.5,15.5
	c5.8,6.1,11.2,12.6,16,19.5c4.9,7,9.2,14.4,12.9,22.1c0.7,1.5,1.4,3.1,2,4.6c0.2,0.4,0.3,0.8,0,1.2c-2.6,1.1-5.2,2.1-7.9,2.9
	c-5.7-13.2-13.4-25.6-22.7-36.6c-3.8-4.5-7.8-8.7-12.1-12.7c-5.4-5.1-11.2-9.8-17.4-14C258.5,157.3,255.1,155.2,251.7,153.1z"/>
<path class="st11" d="M42,226c-0.8,2.4-1.7,4.8-2.5,7.2c-1.8,5.2-3.3,10.6-4.4,16c-0.7,3.3-1.3,6.6-1.9,9.9
	c-0.4,2.4-0.5,4.7-0.8,7.1c-0.5,3.3-0.3,6.6-0.9,9.9c-0.3,1.8,0.3,3.7,0.1,5.6c-0.4,4.1,0.3,8.2,0.5,12.3c0.4,4.9,1.1,9.7,2,14.5
	c1.2,6.4,2.8,12.6,4.8,18.8c1.6,4.8,3.5,9.6,5.6,14.2c2.4,5.3,5.1,10.5,8.1,15.5c3.2,5.3,6.8,10.5,10.7,15.4c2.3,3,4.8,5.8,7.4,8.6
	c2.1,2.3,4.3,4.6,6.6,6.8c4.9,4.7,10.2,8.9,15.7,12.9c1.7,1.2,3.4,2.3,5.1,3.5c0.4,0.2,0.7,0.5,1.2,0.5c0.9,1.5,1.7,3,2.6,4.5
	c0.5,0.8-0.2,1.1-0.7,1.6c-0.5,0.3-0.9-0.1-1.3-0.4c-6.7-4.1-13.1-8.7-19.1-13.8c-5.3-4.5-10.3-9.4-14.9-14.5
	c-10.8-12-19.5-25.7-26-40.5c-0.2-0.6-0.5-1.3-0.8-1.9c-0.7-3.1-1.5-6.3-2.2-9.4c-1.5-7.1-2.8-14.2-3.9-21.4
	c-1.1-6.9-2.1-13.8-2.9-20.8c-1.1-9.2-1.8-18.5-2.3-27.8c-0.1-2.6-0.4-5.2-0.3-7.8c0.7-3.3,1.4-6.6,2.2-9.9c1.5-5.8,3.3-11.4,5.4-17
	c0.2-0.6,0.3-1.5,1.3-1.4C38.3,225,40.3,225.2,42,226z"/>
<path class="st13" d="M310.8,385.7c0.9,0,1.2-0.9,1.6-1.5c4.4-5.7,8.5-11.7,12.1-17.9c8.1-13.9,14.2-28.8,18.1-44.4
	c1.5-5.8,2.6-11.8,3.5-17.8c0.5-3.4,0.7-6.8,1.1-10.2c0.5-6.8,0.6-13.7,0.4-20.6c0-3.5-0.5-7-0.8-10.4c-0.5-5.1-1.3-10.1-2.3-15.1
	c-0.9-4.8-2.1-9.6-3.5-14.4c-1.5-5-3.1-9.9-5-14.7c-0.2-0.4-0.2-0.9-0.8-0.9c-0.3-1.3-0.4-2.6-0.4-3.9c-0.3-2.6-0.4-5.2-0.6-7.9
	c0.9-0.3,1,0.5,1.2,1c1,2.3,2.1,4.7,3.1,7c4.4,10.5,7.8,21.4,10,32.6c1.4,6.9,2.3,13.9,2.8,20.9c0,0.3,0.1,0.6,0.2,0.9
	c-0.1,2.1-0.2,4.1-0.4,6.2c-0.2,0.4,0,0.9-0.2,1.3c-0.1,2.7-0.4,5.3-0.6,8c-0.2,1.8-0.3,3.7-0.5,5.5c-0.4,3.3-0.7,6.7-1.1,10
	c-0.3,2.5-0.7,4.9-1,7.4c-0.8,6-1.7,11.9-2.8,17.8c-1,5.4-2.2,10.8-3.3,16.2c-0.4,1.8-0.8,3.6-1.2,5.3c-1,2-1.8,4.1-2.7,6.1
	c-3.9,8.7-8.6,17-13.8,25c-4,6.1-8.4,11.9-13.2,17.3c-1.3,1.4-2.4,3-3.8,4.3c-0.4,0.3-0.7,0.9-1.3,0.5l3.6-9.5
	C309.6,388.6,310.2,387.2,310.8,385.7z"/>
<path class="st8" d="M313.1,226.8c1.2,1,1.3,2.4,1.8,3.7c2.5,6.7,4.5,13.5,6,20.5c0.8,3.9,1.5,7.8,2,11.7c0.4,3.7,0.7,7.3,1,11
	c0.3,4.3,0.3,8.7,0.1,13c-0.8,17.9-4.9,35.5-12,52c-3.6,8.3-7.9,16.2-13,23.6c-3.4,4.9-7,9.7-11,14.1c-3,3.4-6,6.6-9.3,9.7
	c-5.2,5-10.7,9.5-16.6,13.6c-0.4,0.3-0.8,0.9-1.4,0.2c1.3-2.5,2.5-5,3.8-7.5c1.1-0.5,2.1-1.2,3-2.1c3.9-3,7.5-6.3,11-9.8
	c5.5-5.5,10.5-11.4,15-17.8c4-5.6,7.6-11.5,10.8-17.6c7.3-14.3,12.1-29.8,14.3-45.7c0.6-4.2,0.9-8.4,1.1-12.6
	c0.1-2.2,0.2-4.5,0.2-6.7c-0.1-8.2-0.9-16.4-2.3-24.4c-1.7-9.1-4.2-18.1-7.6-26.7c-0.2-0.4-0.4-0.9-0.3-1.4L313.1,226.8z"/>
<path class="st14" d="M309.6,227.8c1.5,3.4,2.8,6.9,3.8,10.4c2.1,6.7,3.8,13.5,4.9,20.4c0.7,4.1,1.1,8.3,1.5,12.5
	c0.4,4.5,0.5,9,0.4,13.5c-0.2,3.8-0.4,7.7-0.9,11.5c-0.8,7.7-2.3,15.3-4.4,22.8c-1.6,5.8-3.6,11.6-6,17.1c-1.1,2.6-2.2,5.1-3.5,7.6
	c-4.5,9-9.9,17.5-16.2,25.4c-2.9,3.6-6,7.1-9.2,10.4c-4.5,4.6-9.2,8.9-14.3,12.8c-0.4,0.3-0.7,0.9-1.3,0.3c1.1-2.8,2.5-5.4,3.8-8.1
	c2.9-2.7,5.9-5.3,8.6-8.1c8.6-8.9,15.9-18.8,21.9-29.6c4.1-7.4,7.4-15.2,10.1-23.2c3-9.2,5-18.6,6-28.2c0.7-6.9,0.9-13.9,0.6-20.8
	c-0.5-11.4-2.5-22.7-5.8-33.6c-1.1-3.8-2.5-7.4-3.9-11.1c-0.2-0.4-0.3-0.8-0.2-1.2C306.8,228.3,308.2,228,309.6,227.8z"/>
<path class="st7" d="M191.1,526.3c0,8.6-3,16.1-7.7,23.2c-0.8,1.2-1.7,2.4-2.6,3.6c-1.3,1.6-2.6,1.7-3.8,0.1
	c-6.7-8.5-10.9-18-10.3-29.1c0.1-1.4,0.3-2.8,0.5-4.2c0.3-1.3,1.1-2.5,2.3-3.3c4.9-3.6,14-3.6,18.9,0c1.3,0.9,2.2,2.3,2.4,3.9
	C191,522.3,191.2,524.3,191.1,526.3z"/>
<path class="st13" d="M22.6,218.2c-1.1,0.8-1.3,2.1-1.7,3.2c-2.7,7.1-4.9,14.4-6.6,21.8c-1.2,5.2-2.2,10.4-2.8,15.7
	c-0.6,4.5-1,9.1-1.2,13.6c-0.3,5.1-0.4,10.3-0.2,15.4c0.3,6.6,0.9,13.1,2,19.6c1.3,7.5,3,15,5.2,22.3c4.4,14.6,10.7,28.5,18.9,41.3
	c2.9,4.6,6.1,9.1,9.4,13.4c0.2,0.3,0.4,0.9,1,0.4c0.9,1.8,1.3,3.8,2.1,5.7c1.2,2.7,2.1,5.5,3.2,8.2c-0.4,0.9-0.8,0.1-1.1-0.1
	c-1.1-1-2-2-2.9-3.2c-5.8-6.6-11.1-13.7-15.8-21.1c-4.8-7.5-9-15.3-12.6-23.4c-0.8-1.9-1.5-3.9-2.4-5.7c-1.5-6-2.7-12.1-3.9-18.2
	c-1.2-6.4-2.3-12.9-3.2-19.3c-0.8-5.8-1.5-11.7-2.2-17.6c-0.6-5.8-1.2-11.6-1.5-17.5c0-0.1,0-0.1,0-0.2c-0.1-2.1,0-4.1,0.2-6.2
	c0.6-6,1.3-12,2.5-17.9c1.2-6.2,2.7-12.2,4.6-18.2c2-6.5,4.3-12.8,7-19c0.5-1.1,1.1-2.2,1.6-3.4c0.2-0.5,0.4-1,1.1-0.9l-0.5,6.2
	c-0.2,0.4,0,0.9-0.2,1.3C23,215.7,22.5,216.9,22.6,218.2z"/>
<path class="st15" d="M321.9,219.8c-0.1-1-0.4-1.9-0.9-2.7c-5.9-13.3-13.7-25.6-23.1-36.7c-3.6-4.3-7.4-8.4-11.5-12.2
	c-6.2-5.9-13-11.3-20.1-16.1c-1.9-1.2-3.7-2.5-5.6-3.6c-0.3-0.2-0.7-0.4-1.1-0.4l6.7-4.8c0.5-0.2,0.8,0,1.2,0.3
	c6,3.8,11.7,8.1,17.1,12.7c4.3,3.6,8.3,7.5,12.2,11.5c5.8,6,11.1,12.5,15.9,19.3c5.4,7.8,10.2,16,14.2,24.6c0.6,1.3,1.2,2.5,1.7,3.8
	c0.2,0.4,0.4,0.8,0.1,1.2C326.6,217.9,324.3,218.9,321.9,219.8z"/>
<path class="st10" d="M28.8,216.7c-0.7-0.1-0.8-0.6-0.7-1.2c0.4-4.4,0.7-8.7,1.1-13.1c0.1-2.3,0.4-4.5,0.8-6.8
	c2.2-3.6,4.4-7.3,6.8-10.8c4.2-6.2,8.9-12.2,13.9-17.9c3.2-3.6,6.4-7,9.9-10.3c6.2-5.9,12.9-11.4,20-16.3c1-0.7,2-1.5,3.1-2.1
	c0.3-0.2,0.7-0.6,1.2-0.3l6.6,5.2c-0.1,0.5-0.5,0.7-0.9,0.9c-6.3,4.1-12.3,8.6-18,13.5c-4.6,4-8.9,8.2-13.1,12.7
	c-11.8,12.7-21.5,27.2-28.7,43C30.1,214.5,30,215.9,28.8,216.7z"/>
<path class="st15" d="M28.8,216.7c1.5-3.2,2.9-6.3,4.5-9.4c2.7-5.4,5.8-10.7,9.1-15.7c3.8-5.8,8-11.4,12.5-16.7
	c3.8-4.5,7.9-8.8,12.2-12.8c6.2-5.9,12.9-11.3,20.1-16.1l4.1-2.7l5.6,3.9c0.4,0.3,0.8,0.6,1.1,0.9c-2.3,1.2-4.6,2.6-6.7,4.1
	c-3.7,2.6-7.4,5.2-10.9,8.1c-1.9,1.6-3.8,3.2-5.7,4.9c-2.9,2.5-5.5,5.2-8.2,7.9c-5,5.2-9.5,10.7-13.7,16.5
	c-5.8,8.1-10.9,16.6-15.1,25.6c-0.7,1.5-1.3,3.1-2,4.6C33.4,219,31.1,217.9,28.8,216.7z"/>
<path class="st10" d="M328.8,216.7c-0.4-1.5-0.9-2.9-1.7-4.2c-3.6-7.8-7.8-15.2-12.5-22.3c-3.5-5.2-7.3-10.2-11.4-15
	c-4-4.7-8.3-9.2-12.9-13.5c-5.8-5.5-12.1-10.6-18.8-15.1c-1.7-1.2-3.4-2.4-5.2-3.3l6.8-5.5c0.4-0.1,0.7,0.2,1,0.4
	c6.6,4.4,12.9,9.3,18.9,14.6c3.6,3.2,7.1,6.5,10.4,10c5.9,6.3,11.4,13,16.3,20.1c2.8,4.1,5.6,8.3,8,12.7c0.6,3.1,0.8,6.3,1.1,9.5
	c0.3,3.5,0.5,7.1,0.8,10.6C329.6,216.1,329.6,216.6,328.8,216.7z"/>
<path class="st8" d="M109.9,150.9c0.2-0.4,0.5-0.5,0.8-0.6c7-3.7,14.3-6.7,21.8-9.2c7.3-2.5,14.9-4.3,22.6-5.5
	c4.1-0.6,8.3-1.1,12.4-1.4c5.5-0.5,11.1-0.6,16.6-0.4c3.8,0.1,7.6,0.4,11.4,0.9c7.1,0.8,14.1,2.1,21.1,3.9c7.1,1.9,14,4.3,20.8,7.2
	c3.5,1.5,7,3.1,10.3,5c-0.7,0.8-1.9,1-2.9,0.4c-7-3-14.4-4.9-22-5.6c-2.6-0.2-5.2-0.2-7.8-0.1c0-0.4,0.4-0.4,0.5-0.4
	c-5.2-1.4-10.4-2.5-15.8-3.3c-4.9-0.7-9.9-1.2-14.9-1.4c-2.7-0.1-5.3-0.2-8-0.2c-11.3,0.2-22.6,1.7-33.5,4.6
	c-0.4,0.1-0.9,0.1-0.9,0.8c-4.6-0.2-9.3,0.2-13.8,1c-4.5,0.9-9,2.1-13.3,3.7c-1.1,0.4-2.2,0.9-3.4,1.3
	C111.3,151.6,110.5,151.5,109.9,150.9z"/>
<path class="st16" d="M269.8,456.3c-0.4,0-0.9,0.1-1.3,0.3c-6.1,3.1-12.4,5.8-18.8,8.3c-6,2.3-12.1,4.3-18.2,6
	c-5.8,1.6-11.6,2.9-17.5,4c-3.5,0.6-7,1.2-10.5,1.5c-0.7,0.1-1.4,0.6-2.1,0.1c4.5-3.6,8.8-7.3,12.9-11.3c2.3-0.2,4.7-0.6,6.9-1.3
	c11.5-2.6,22.7-6.4,33.5-11.1c8-3.6,15.8-7.7,23.3-12.3c0.6-0.4,1.1-1,1.9-0.4C276.8,445.5,273.5,451,269.8,456.3z"/>
<path class="st16" d="M156.1,476.4c-0.7,0.6-1.5,0.1-2.1,0c-6.3-0.8-12.6-1.9-18.9-3.4c-7.2-1.7-14.3-3.7-21.3-6.2
	c-6.1-2.1-12.1-4.6-17.9-7.3c-2.1-1-4.2-2-6.3-3c-0.5-0.3-1.1-0.4-1.7-0.2c-3.7-5.4-7.2-10.9-10.3-16.6c0.6-0.5,1.2,0,1.7,0.3
	c4.5,2.8,9.1,5.4,13.8,7.9c4.3,2.2,8.7,4.2,13.1,6.1c9.5,4,19.3,7.2,29.3,9.6c2.6,0.6,5.2,1.2,7.9,1.6c2.4,2.2,4.8,4.4,7.3,6.6
	C152.3,473.4,154.1,475,156.1,476.4z"/>
<path class="st9" d="M305.5,228.7c1.6,3.5,3,7.1,4.1,10.8c1.8,5.7,3.2,11.4,4.2,17.2c0.6,3.2,1,6.4,1.4,9.7
	c0.7,6.7,0.9,13.4,0.6,20.1c-0.1,4.2-0.5,8.5-1.1,12.7c-0.8,5.9-2,11.8-3.5,17.5c-4,14.9-10.6,29-19.3,41.7
	c-3.1,4.6-6.5,8.9-10.2,13.1c-2.5,2.8-5.1,5.6-7.8,8.2c-1.6,1.5-3.3,3-5,4.5c-0.2,0.2-0.4,0.2-0.6,0.2l4.1-9.1
	c5.9-5.7,11.2-12,15.8-18.8c4.4-6.3,8.2-12.9,11.4-19.9c5-10.8,8.5-22.3,10.5-34.1c1.6-9.4,2.1-18.9,1.6-28.4
	c-0.5-11.3-2.5-22.5-6-33.3c-1.1-3.3-2.2-6.7-3.5-9.9c-0.2-0.5-0.5-1-0.1-1.6L305.5,228.7z"/>
<path class="st17" d="M82.4,368.4c-0.8,0.3-1-0.5-1.4-0.9c-9.4-10.6-17-22.8-22.5-35.9c-2.8-6.7-5-13.5-6.7-20.6
	c-1.2-5-2.1-10.1-2.6-15.2c-0.4-3.5-0.6-7-0.8-10.5c-0.2-2-0.2-4-0.2-6c0.2-4.4,0.4-8.7,0.9-13.1c1.1-10,3.4-19.9,6.8-29.4
	c0.8-2.3,1.8-4.6,2.7-6.9l4.5,0.6c-0.1,1.2-0.5,2.4-1.1,3.5c-4,9.9-6.7,20.3-8.1,30.9c-0.4,2.8-0.4,5.7-0.8,8.5
	c-0.4,3.1,0.1,6.1,0,9.2c-0.3,11.9,1.8,23.4,5.1,34.8c1.5,5,3.4,9.9,5.4,14.7c2.4,5.4,5.2,10.5,8.3,15.5c1.7,2.9,3.7,5.7,5.8,8.4
	c1.2,3.3,2.4,6.5,3.6,9.8C81.7,366.6,82.1,367.5,82.4,368.4z"/>
<path class="st18" d="M84.7,138c-1.8,1-3.6,2.2-5.2,3.5c-4,2.8-7.8,5.8-11.5,8.9c-1.3,1.1-2.6,2.2-3.9,3.4c-3.3,3-6.5,6.1-9.5,9.3
	c-5.9,6.3-11.4,13.1-16.4,20.2c-2.6,3.8-5.1,7.7-7.4,11.7c-0.2,0.3-0.4,0.6-0.8,0.6c0.3-3.1,0.7-6.3,1.2-9.4
	c0.6-3.6,1.3-7.2,1.9-10.8c0-0.2,0.1-0.3,0.2-0.4c2.5-3.6,5.2-6.9,8-10.2c4.5-5.2,9.2-10.2,14.2-14.9c3.7-3.6,7.6-6.9,11.6-10.1
	c3.3-2.6,6.7-5,10.1-7.5c0.2-0.2,0.4-0.4,0.8-0.3L84.7,138z"/>
<path class="st18" d="M327.6,195.4c-0.9-0.9-1.6-1.9-2.1-3c-4.1-6.9-8.7-13.4-13.8-19.6c-2.3-2.9-4.8-5.7-7.4-8.4
	c-2.3-2.5-4.6-4.9-7-7.2c-5.8-5.5-11.9-10.6-18.4-15.2l-5.9-4.2l6.4-5.8c1.2,0.1,2,1,3,1.7c5,3.6,9.9,7.4,14.6,11.5
	c4.9,4.2,9.4,8.8,13.8,13.4c4.5,4.8,8.8,9.9,12.7,15.2c0.2,0.2,0.4,0.5,0.6,0.8c1.4,6.2,2.3,12.4,3.2,18.6
	C327.6,193.9,327.6,194.6,327.6,195.4z"/>
<path class="st11" d="M256.3,408c1.1,0,1.8-0.8,2.6-1.3c4.6-2.9,9-6,13.2-9.4c2.9-2.3,5.6-4.7,8.3-7.2s5-4.8,7.4-7.3
	c4.5-4.8,8.7-9.9,12.6-15.3c5.3-7.5,10-15.5,13.9-23.9c1.8-3.8,3.4-7.7,4.8-11.7c0.7-1.9,1.5-3.8,2.3-5.7c-0.6,3.8-1.5,7.6-2.4,11.3
	c-1.7,7.5-3.7,15-5.8,22.4c0,0.1-0.1,0.2-0.1,0.3c-4.1,6.8-8.7,13.3-13.7,19.5c-3.9,4.8-8.2,9.4-12.6,13.7
	c-7.6,7.2-15.9,13.6-24.7,19.2c-0.6,0.4-1.1,0.9-1.9,0.8c-1.6-1-3.1-2.1-4.5-3.4c-0.4-0.3-0.3-0.6-0.1-0.9S256,408.4,256.3,408z"/>
<path class="st19" d="M143.3,465.2c-0.8,0.5-1.6,0-2.3-0.1c-10.5-2.2-20.8-5.2-30.8-9.2c-5-2-10-4.1-14.8-6.5
	c-5.5-2.7-10.9-5.8-16.2-9.1c-0.5-0.4-1.1-0.6-1.7-0.6c-2.2-3.5-4.1-7.2-6-10.9c-0.4-0.7-0.1-0.8,0.5-0.9c1-0.2,1.9-0.4,2.9-0.6
	c4.6,3.1,9.2,6.2,14,8.9c9.3,5.4,19.1,9.9,29.3,13.6c4.1,1.5,8.2,2.8,12.4,4c0.8,0.3,1.7,0.5,2.6,0.6c2.6,2.8,5.2,5.7,7.8,8.5
	C141.7,463.7,142.5,464.4,143.3,465.2z"/>
<path class="st19" d="M280,439.9c-1.3-0.1-2.2,1-3.1,1.5c-4.8,2.9-9.6,5.6-14.5,8c-6.7,3.3-13.6,6.2-20.7,8.7
	c-8.6,3-17.4,5.4-26.3,7.2c-0.4,0.1-0.8,0.2-1-0.3c3.5-3.5,6.8-7.1,10.1-10.8c0.6,0.1,1.1,0.1,1.6-0.1c13-3.5,25.5-8.5,37.3-14.8
	c6.4-3.4,12.6-7.2,18.5-11.3c0.3-0.2,0.6-0.5,0.9-0.8c1,0.2,1.9,0.5,2.9,0.6c0.6,0.1,0.8,0.3,0.5,0.9
	C284.1,432.6,282.2,436.3,280,439.9z"/>
<path class="st20" d="M301.9,229.4c0.5,1.7,1.1,3.4,1.8,5c2.5,6.8,4.5,13.8,5.9,20.9c0.8,4.1,1.4,8.3,1.9,12.5
	c0.4,4.9,0.6,9.8,0.5,14.7c0,9.5-1.1,19-3.3,28.2c-1.9,8.5-4.7,16.8-8.3,24.8c-4.3,9.6-9.7,18.7-16.2,27c-3.3,4.3-6.9,8.4-10.7,12.2
	c-0.3,0.3-0.6,0.8-1.2,0.7c1.3-3.2,2.6-6.4,3.9-9.6c2.7-3.2,5.3-6.4,7.7-9.8c4.2-5.8,7.9-12,11-18.5c6.2-12.7,10.2-26.3,12-40.3
	c0.5-4.5,0.8-9,1-13.5c0.4-17.8-2.8-35.5-9.6-51.9c-0.3-0.6-0.6-1.1-1-1.6L301.9,229.4z"/>
<path class="st19" d="M78,132c-3,2.2-6,4.4-8.9,6.6c-2.9,2.3-5.7,4.6-8.5,7c-4.4,3.8-8.5,8-12.6,12.1c-3.6,3.8-7,7.7-10.2,11.8
	c-1.3,1.6-2.5,3.3-3.8,4.9c-0.2,0.2-0.3,0.5-0.6,0.5c0.5-3.4,1.4-6.6,2.2-9.9c1-4.2,2.1-8.3,3.4-12.4c4.7-5.2,9.7-10.1,15-14.7
	c5.2-4.5,10.5-8.6,16-12.6c0.4-0.3,0.7-0.7,1.3-0.6c2,2.1,4,4.2,6,6.3C77.5,131.4,77.9,131.6,78,132z"/>
<path class="st21" d="M297.3,230.1c0.5,0,0.7,0.2,0.9,0.7c2.9,7,5.2,14.2,6.9,21.5c0.8,3.7,1.5,7.5,2.1,11.2
	c0.4,2.8,0.6,5.5,0.9,8.3s0.2,5.4,0.3,8.1c0.1,3.1,0,6.2-0.3,9.3c-0.2,2-0.3,4-0.5,6.1c-2.1,19.2-8.5,37.6-18.7,53.9
	c-3.1,5-6.6,9.8-10.3,14.3c-0.6,0.8-1.1,1.9-2.3,2.2c1.4-3.8,2.7-7.5,4.1-11.3c3-4.1,5.8-8.4,8.3-12.9c8.1-14.7,13.2-30.8,15-47.5
	c0.5-5,0.8-10,0.7-15.1c-0.1-8.3-1.1-16.6-2.9-24.7c-1.6-7.5-4-14.9-7-22c-0.2-0.6-0.7-1.2-0.5-1.9L297.3,230.1z"/>
<path class="st8" d="M251.7,153.1c1.4,0.1,2.4,1.1,3.6,1.8c6,3.7,11.8,7.8,17.3,12.3c5,4.1,9.8,8.6,14.2,13.4
	c5.1,5.4,9.7,11.2,13.9,17.3c4.6,6.7,8.6,13.7,12,21.1c0.5,1.2,1.5,2.3,1.3,3.7c-2,0.7-4,1.2-6,1.7c-0.7-1.2-1.4-2.4-1.9-3.7
	c-4.7-9.9-10.6-19.3-17.5-27.9c-4.4-5.4-9.2-10.5-14.2-15.2c-0.3-0.4-0.8-0.7-1.3-0.8c-3-4.2-6.3-8.3-9.9-12c-4-4-8.4-7.6-13.1-10.6
	C250.6,153.6,251.1,153.3,251.7,153.1z"/>
<path class="st15" d="M260.1,413.6c6.2-3.8,12.2-8.1,17.9-12.7c2.3-1.9,4.6-3.9,6.8-6c2-1.9,4-3.7,5.8-5.7
	c5.5-5.7,10.5-11.8,15.1-18.3c2.2-3.1,4.3-6.3,6.4-9.5c0.3-0.4,0.4-1,1-1.1c-1.4,5.5-3.2,10.9-5,16.3c-1,2.9-2,5.8-3,8.6
	c-3.9,4.7-8.1,9.3-12.5,13.5c-6,5.8-12.5,11.2-19.4,16c-1.7,1.2-3.3,2.4-5,3.5C265.3,417,262.6,415.4,260.1,413.6z"/>
<path class="st22" d="M77.8,355.9c-0.4,0-0.7-0.2-0.9-0.5c-2.8-3.7-5.3-7.6-7.5-11.6c-1.5-2.6-3-5.1-4.3-7.9
	c-3.2-6.9-5.9-14.1-8-21.5c-1.2-4.6-2.2-9.2-3-13.8c-0.5-2.5-0.8-5-1-7.5c-0.1-2.7-0.6-5.3-0.5-8c0.1-1.9,0.2-3.7,0.2-5.6
	c0-1.1-0.4-2.1-0.3-3.2c0.2-1.9,0.4-3.8,0.5-5.7c0.1-2.2,0.4-4.4,0.7-6.6c0.7-5.2,1.7-10.4,3.1-15.4c1-3.9,2.2-7.7,3.7-11.5
	c0.8-2.2,1.8-4.4,2.6-6.6c1,0,1.6,0.1,1.3,1.6c-0.6,3-0.7,6-1,9c-0.1,0.6-0.2,1.2-0.3,1.8c-0.7,1.6-1.3,3.4-1.7,5.1
	c-1.9,6.8-3.2,13.7-3.9,20.7c-2.6,24.9,2.7,50,15,71.9c0.2,0.4,0.4,0.7,0.7,0.9L77.8,355.9z"/>
<path class="st8" d="M43.7,222.7c2.1-5.1,4.5-10,7.3-14.8c3.2-5.6,6.8-11,10.7-16.1c2.7-3.5,5.5-6.8,8.4-10.1c2.5-2.7,5-5.3,7.6-7.8
	c4.9-4.7,10-8.9,15.5-12.8c3.9-2.8,7.9-5.4,12-7.8c0.2-0.1,0.4-0.2,0.7-0.3l1.6,0.8c-2.2,1.4-4.2,2.7-6.1,4.2
	c-6.4,5-11.9,10.9-16.4,17.5c-0.3,0.4-0.6,0.8-0.9,1.2c-0.2,0-0.4,0.1-0.5,0.2c-8.5,7.9-16,16.9-22.5,26.5
	c-4.1,6.3-7.7,12.8-10.7,19.7c-0.1,0.4-0.3,0.7-0.6,1C47.7,224,45.7,223.4,43.7,222.7z"/>
<path class="st15" d="M97.2,413.8c-2.2,1.6-4.6,3-7.1,4.1c-0.5,0-1-0.1-1.4-0.5c-5.7-3.8-11.1-7.9-16.3-12.4c-3.1-2.7-6.1-5.4-9-8.3
	c-3.9-3.9-7.6-8-11-12.3c-2-5.2-3.6-10.4-5.3-15.7c-0.8-2.5-1.7-5-2.2-7.6c0.8-0.4,1.1,0.3,1.4,0.7c0.7,1,1.3,2.1,2,3.1
	c4.2,6.6,8.9,12.8,14.1,18.6c2.8,3.1,5.6,6.1,8.6,9c5.9,5.7,12.2,10.9,18.9,15.6c2.2,1.5,4.4,3,6.7,4.4
	C96.9,413,97.6,413.1,97.2,413.8z"/>
<path class="st18" d="M282.8,427.3c0.3,0.5-0.1,0.6-0.4,0.8c-4.9,3.4-10,6.6-15.2,9.5c-3.8,2.2-7.7,4.2-11.7,6
	c-8.2,3.9-16.8,7.2-25.6,9.7c-1.4,0.4-2.8,0.8-4.2,1.2c-0.5,0.1-1,0.5-1.3-0.3l9.4-11.5c2.9-0.8,5.7-1.8,8.5-3c10.2-4,20-9,29.2-15
	c0.4-0.3,0.8-0.5,1.3-0.7l9.2,3C282.1,427.2,282.4,427.2,282.8,427.3z"/>
<path class="st18" d="M133.2,454.4c-0.4,0.6-1,0.2-1.4,0c-7.7-2-15.3-4.6-22.6-7.8c-9.7-4.1-19-9-27.8-14.6
	c-1.9-1.2-3.8-2.6-5.8-3.9c-0.3-0.2-0.8-0.3-0.8-0.8c3.5-0.9,6.9-2,10.3-3.2c2,1,3.8,2.1,5.6,3.4c10,6,20.6,11,31.7,14.8
	c0.4,0.2,0.8,0.2,1.2,0.3c3,3.8,6,7.5,9,11.3C132.8,454,133,454.2,133.2,454.4z"/>
<path class="st19" d="M324.2,174.5c-0.9-0.1-1.1-1-1.5-1.6c-2.7-3.5-5.4-6.8-8.3-10.1c-4.2-4.9-8.8-9.3-13.3-13.7
	c-3.8-3.6-7.7-7-11.9-10.1c-3.1-2.4-6.3-4.7-9.6-6.9l5.8-6c0.6-0.4,1.1,0.1,1.5,0.4c4.5,3.2,8.9,6.5,13.1,10.1
	c5.6,4.8,10.9,9.8,16,15.1c1.2,1.2,2.2,2.5,3.4,3.7c1.7,5.2,2.9,10.5,4.1,15.8C323.8,172.2,324,173.4,324.2,174.5z"/>
<path class="st22" d="M294,230.5c3.1,7.1,5.5,14.5,7.3,22c1,4.5,1.7,9,2.4,13.5c0.9,6.6,1.1,13.3,0.9,19.9c-0.2,5-0.7,10-1.6,15
	c-2.6,16.7-8.7,32.7-17.7,47c-1.3,2.1-2.7,4.1-4,6.1c-0.2,0.3-0.4,0.8-0.9,0.7l4-13c1.7-2.6,3.2-5.4,4.5-8.3
	c3.8-8.1,6.8-16.6,8.7-25.4c1.2-5.4,2.1-10.8,2.6-16.3c0.4-4.8,0.6-9.7,0.4-14.5c-0.2-6.4-0.9-12.8-2.2-19.1
	c-0.9-4.8-2.1-9.4-3.6-14.1c-0.1-0.4-0.2-0.9-0.6-1.1c-0.3-3.8-0.8-7.5-1.3-11.2C292.9,230.5,293.1,230.3,294,230.5z"/>
<path class="st19" d="M34.4,402c-2.5-6.2-4.7-12.5-6.8-18.9c-1.1-3.2-2-6.5-3-9.7c0.9-0.2,1,0.6,1.3,1c3.3,5.4,6.9,10.7,10.8,15.7
	c3.1,4,6.4,7.9,9.8,11.6c3.2,3.5,6.6,6.7,9.9,10.1c0.4,0.5,1,0.9,1.5,1.1l6.5,13.4c0.9,1.8,1.8,3.5,2.6,5.3c-0.4,0.8-0.8,0.2-1.2,0
	c-1.6-1.1-3.1-2.3-4.6-3.5c-6.8-5.6-13.3-11.6-19.4-18C39.3,407.6,36.8,404.8,34.4,402z"/>
<path class="st19" d="M290.4,432.2c0.6-1.3,1.3-2.6,2-3.9c2.4-4.9,4.8-9.8,7.2-14.8c1-0.7,1.9-1.4,2.8-2.3
	c3.5-3.5,7.1-6.9,10.4-10.6c4.6-5.2,9-10.7,13-16.4c2.1-2.9,4-6,6-9c0.3-0.4,0.5-1,1.2-1c-2.7,9.1-5.8,18-9.2,26.9
	c-0.2,0.5-0.4,0.9-0.6,1.4c-1.1,1.4-2.3,2.7-3.6,4c-5,5.5-10.3,10.8-15.9,15.8c-3.7,3.3-7.5,6.4-11.5,9.4c-0.5,0.4-1,1-1.8,0.7
	C290.4,432.4,290.4,432.3,290.4,432.2C290.4,432.3,290.4,432.3,290.4,432.2z"/>
<path class="st23" d="M247.5,95.8c1.9,0.4,3.7,1,5.4,1.9c5.8,2.3,11.4,4.8,16.9,7.7c5.9,3,11.6,6.4,17.1,10c0.5,0.3,0.9,0.7,1.3,1
	c-1.7,2.7-3.8,5.1-6,7.4c-2.4-1.4-4.7-3-7.1-4.4c-7.8-4.6-16-8.7-24.3-12.2c-0.2-0.1-0.4-0.1-0.6-0.2c-0.7-0.3-1.1-0.1-1,0.7
	c0,0.4,0,0.8,0,1.2c0,0.3,0.1,0.8-0.5,0.8c0.1-4.5-0.3-9-1.2-13.4C247.5,96.1,247.5,95.9,247.5,95.8z"/>
<path class="st11" d="M97.2,413.8c-0.6-1.1-1.8-1.5-2.8-2.1c-4.6-2.9-9.1-6.1-13.3-9.6c-5.1-4.1-10-8.6-14.5-13.3
	c-5.7-5.9-10.9-12.3-15.5-19c-1.7-2.5-3.3-5-4.9-7.5c-0.3-0.5-0.6-1-1.3-1.1c-1.5-4.5-2.6-9.1-3.8-13.6c-0.7-2.6-1.3-5.3-1.9-8
	c0.5,0.2,0.6,0.7,0.8,1.1c3.8,8.6,8.3,16.9,13.6,24.7c3.4,5,7,9.8,11,14.3c2.7,3,5.4,6.1,8.3,8.9c4.4,4.3,9,8.3,13.9,12.1
	c4.6,3.5,9.3,6.6,14.2,9.7c0.2,0.1,0.4,0.1,0.6,0.2C100.2,412,98.6,412.7,97.2,413.8z"/>
<path class="st16" d="M69.6,116.7c2.8-1.7,5.6-3.5,8.4-5.2c5.8-3.4,11.7-6.6,17.9-9.4c4-1.8,8-3.5,12.1-5.2c0.5-0.2,1-0.3,1.5-0.5
	c0.5-0.2,0.5,0,0.6,0.4c-0.7,3.6-1,7.2-1,10.9c0,0.6,0,1.2,0,1.8c-0.6-0.2-0.4-0.8-0.5-1.2c-0.1-1.2-0.1-1.2-1.2-0.8
	c-2.6,1.1-5.2,2.1-7.7,3.3c-8.2,3.8-16,8.2-23.5,13.1c-0.1,0.1-0.3,0.1-0.4,0.2C73.4,121.8,71.4,119.3,69.6,116.7z"/>
<path class="st19" d="M5.6,232.4c0.1-5.3,0.4-10.7,0.8-16c0.3-4.2,0.7-8.4,1.1-12.6c0-0.4,0-0.8,0.2-1.2c0.8-1.1,1.5-2.3,2-3.5
	c2.6-5.4,5.4-10.6,8.5-15.7c3.2-5.2,6.6-10.3,10.3-15.2c0.3-0.5,0.6-1.2,1.5-0.8c-1.5,6.3-2.7,12.7-3.7,19.2
	c-0.1,0.2-0.1,0.5-0.2,0.7c-2.2,3.2-4.2,6.6-5.9,10.2c-4.9,9.3-8.9,18.9-12.1,28.9c-0.5,1.6-1,3.2-1.5,4.8
	C6.3,231.6,6.3,232.2,5.6,232.4z"/>
<path class="st15" d="M335.8,237.6c0.6,0.2,0.6,0.8,0.7,1.2c1.6,6.1,2.9,12.4,3.8,18.6c0.6,4.2,1.1,8.5,1.3,12.8
	c0.2,4.5,0.6,9.1,0.4,13.6c-0.2,4.5-0.4,9-0.9,13.4c-0.6,5.9-1.5,11.7-2.7,17.5c-1.6,7.7-3.8,15.2-6.5,22.6
	c-2.6,7-5.6,13.7-9.1,20.3c-1.6,3.2-3.5,6.2-5.4,9.3c-0.1,0.2-0.3,0.5-0.6,0.5c0.9-3.2,1.8-6.5,2.8-9.7c0.2-0.7,0.4-1.4,0.6-2
	c3.9-7.7,7.3-15.6,10.1-23.8c3-8.9,5.2-18,6.5-27.3c0.7-4.9,1.2-9.7,1.5-14.6c0.3-5.4,0.3-10.9,0.1-16.3c-0.3-7.2-1.1-14.4-2.4-21.5
	c-0.1-0.8-0.2-1.5-0.4-2.2c0-1.2,0-2.3,0.1-3.5C335.6,243.5,335.6,240.5,335.8,237.6z"/>
<path class="st19" d="M331.7,187c-0.7-3.8-1.4-7.6-2.1-11.3c-0.5-2.5-1-5-1.5-7.4c0.8-0.4,1.2,0.3,1.5,0.7c1.1,1.4,2.1,2.9,3.2,4.4
	c4.2,6,8,12.3,11.5,18.8c1.9,3.5,3.5,7.1,5.4,10.5c0.3,0.5,0.2,1.1,0.6,1.6c0.5,3,0.7,6,0.9,9.1c0.4,5.7,0.7,11.3,1,17
	c0,0.3,0,0.7,0,1.1c-0.7-0.1-0.8-0.8-0.9-1.3c-3.5-11.6-8.1-22.9-13.8-33.6c-1.5-2.8-3-5.5-4.6-8.1
	C332.5,187.8,332.1,187.4,331.7,187z"/>
<path class="st15" d="M40.6,366.7c-1-0.4-1.3-1.4-1.8-2.2c-2.7-4.4-5.1-9-7.3-13.7c-3.8-7.9-6.8-16.2-9.3-24.6
	c-1.5-5.1-2.7-10.3-3.7-15.5c-0.6-3.5-1.2-7.1-1.6-10.7c-0.5-4.6-0.8-9.3-1-13.9c-0.2-2.9-0.2-5.7-0.1-8.6
	c0.3-5.1,0.5-10.2,1.1-15.3c0.9-7.6,2.3-15.1,4.1-22.5c0.1-0.5,0.1-1.1,0.7-1.3c0.1,2.5,0.1,5.1,0,7.6c0.2,1.3,0,2.6,0.1,3.9v0.3
	c-0.8,4.4-1.5,8.8-2,13.3c-0.8,6.8-1.1,13.6-1,20.4c0.5,20.8,5,41.4,13.2,60.6c1.5,3.6,3.5,7,5,10.6c0.8,2.8,1.6,5.5,2.4,8.3
	L40.6,366.7z"/>
<path class="st24" d="M332.9,374.2c-1,1-1.8,2.2-2.5,3.5c-4.2,6.5-8.7,12.8-13.7,18.7c-4.8,5.6-9.9,11-15.3,16.2
	c-0.5,0.5-1,1.1-1.9,1l2.7-6.3l3.2-7.6c1.2-0.2,1.8-1.2,2.4-2c3.6-4.2,7.2-8.4,10.5-12.8c3.8-5.2,7.4-10.6,10.6-16.2
	c2.3-4,4.4-8.1,6.4-12.2c1.4-2.8,2.7-5.7,3.9-8.6c0.2-0.6,0.5-1.1,1-1.5C338.2,355.7,335.7,365,332.9,374.2z"/>
<path class="st24" d="M57.9,413c-0.6,0.5-1-0.1-1.3-0.4c-4.1-4.2-8.4-8.2-12.2-12.6c-3.4-3.9-6.6-7.8-9.7-12
	c-3.2-4.3-6.2-8.7-8.9-13.3c-0.3-0.5-0.4-1.1-1.1-1.3c-2.8-9.3-5.3-18.6-7.4-28.1c1,0.9,1.3,2.3,1.8,3.4c2.6,6,5.5,11.9,8.7,17.6
	c2.7,4.8,5.7,9.5,8.8,14c3,4.3,6.2,8.5,9.6,12.5c1.6,1.9,3.2,3.8,4.9,5.6c0.2,0.2,0.4,0.9,1,0.4L57.9,413z"/>
<path class="st18" d="M5.6,232.4c0.6-1,1-2.1,1.1-3.2c2.5-8,5.5-15.9,9-23.5c2.7-5.9,5.7-11.7,9.1-17.2c0.3-0.4,0.4-1.1,1.1-1.1
	c-0.8,5.3-1.4,10.6-2,15.9c0,0.2-0.1,0.3-0.1,0.5c-0.5-0.1-0.5,0.4-0.7,0.7c-2.7,5.3-5,10.7-7.1,16.2c-4.5,12.2-7.7,24.9-9.4,37.7
	c0,0.6-0.1,1.3-0.3,1.9c-0.1,0.4,0,0.8-0.6,0.9c-0.3-3.6-0.3-7.2-0.3-10.8C5.4,244.4,5.4,238.4,5.6,232.4z"/>
<path class="st25" d="M71.2,124.8c-5.5,3.9-10.7,7.9-15.9,12.2c-1.8,1.5-3.5,3.2-5.3,4.8c-2.7,2.4-5.2,5-7.7,7.5
	c-0.8,0.8-1.6,1.8-2.4,2.6c-0.3,0.3-0.5,0.6-1,0.7c2.1-7.1,4.7-14.1,7.8-20.9c4.7-4.1,9.5-7.9,14.5-11.6c1.1-0.8,2.3-1.6,3.4-2.4
	c0.2-0.2,0.5-0.3,0.8-0.1C67.4,120,69.3,122.4,71.2,124.8z"/>
<path class="st10" d="M52.4,384.5c0.8,0.5,1.5,1.2,2.1,2.1c3.8,4.6,7.8,8.9,12.2,13c4.6,4.3,9.5,8.4,14.6,12.2
	c2.9,2.1,5.8,4.3,8.9,6.1c-3,1.6-6.2,2.9-9.4,3.9c-4.2-3.1-8.4-6.2-12.4-9.6c-2.7-2.3-5.2-4.7-7.9-7
	C57.4,398.4,54.7,391.5,52.4,384.5z"/>
<path class="st26" d="M268.1,418.2c0-0.5,0.4-0.7,0.7-0.9c4.4-3,8.8-6.1,12.9-9.4c2.7-2.2,5.3-4.5,7.9-6.8s5.3-5,7.8-7.6
	c2.3-2.4,4.6-4.9,6.6-7.5c0.3-0.3,0.5-0.7,1-0.7c-1.9,5.8-4.3,11.5-6.6,17.2c-0.4,1-0.9,2-1.3,2.9c-6.3,6-13.1,11.4-20.2,16.4
	C273.9,420.9,270.9,419.6,268.1,418.2z"/>
<path class="st27" d="M142.6,145.4l-0.9-0.4c13.2-4,27-5.7,40.9-5.3c11.5,0.2,22.9,2,34,5.2c-0.6,0.5-1.1,0.1-1.5,0.5
	c-4.6,0.3-9.1,0.8-13.7,1.4c-3.1-0.5-6.3-0.9-9.5-1.2c-5.4-0.4-10.9-0.6-16.4-0.5c-5.5,0.1-11,0.5-16.4,1.4c-1,0.1-1.9,0.2-2.8,0.4
	C151.7,146.2,147.1,145.7,142.6,145.4z"/>
<path class="st18" d="M331.7,187c0.7-0.3,0.8,0.4,1,0.7c1.6,2.7,3.3,5.5,4.8,8.3c5.2,9.7,9.5,19.9,12.9,30.4
	c0.4,1.7,0.9,3.4,1.7,4.9c0,1.6,0.1,3.2,0.1,4.8c0.3,7.2,0,14.4-0.1,21.5c0,0.2-0.1,0.3-0.1,0.4c-0.6-0.4-0.6-1.1-0.7-1.7
	c-0.5-4-1.4-8-2.2-12c-1.1-5.1-2.4-10.2-4-15.2c-2.7-8.6-6-16.9-10-25c-0.4-0.9-0.9-1.7-1.4-2.5l-1.2-8.9L331.7,187z"/>
<path class="st28" d="M294.3,242.7c0.7,0.1,0.8,0.7,1,1.2c1.7,5.6,3.1,11.2,4.1,17c0.7,4.4,1.2,8.8,1.5,13.2c0.3,4,0.3,8.1,0.1,12.1
	c-0.3,6.5-1.1,13-2.4,19.3c-1.5,7.3-3.6,14.4-6.4,21.2c-1.9,4.9-4.2,9.6-6.8,14.1c-0.2,0.3-0.2,0.9-0.9,0.6c0.3-2,1-3.8,1.5-5.7
	c0.8-3.5,1.7-6.9,2.6-10.4c0.5-0.2,0.5-0.7,0.6-1.1c3.7-9.5,6.3-19.4,7.5-29.5c0.7-6.6,0.9-13.2,0.6-19.7c-0.2-4.9-0.7-9.9-1.7-14.7
	c0-0.5-0.1-1-0.3-1.5c-0.1-2.8-0.2-5.6-0.4-8.5C294.7,247.7,294.5,245.2,294.3,242.7z"/>
<path class="st19" d="M248.7,109.7c0.2-0.7,0.3-1.4,0.2-2.1c0.1-1.4,0.1-1.4,1.3-0.9c2.2,0.9,4.4,1.8,6.5,2.8
	c8.5,3.9,16.8,8.4,24.6,13.5c0.3,0.2,0.8,0.4,0.9,0.9c-1.5,1.8-3.1,3.5-4.8,5.1c-0.4,0.4-0.8,0.7-1.2,1c-0.5,0.2-0.8-0.1-1.1-0.4
	c-6.2-4-12.6-7.5-19.2-10.7c-2.6-1.2-5.1-2.4-7.8-3.4L248.7,109.7z"/>
<path class="st19" d="M75.6,124.1c1.4-1.3,3-2.4,4.7-3.3c4.9-3.1,9.9-5.9,15.1-8.4c4.1-2,8.2-3.9,12.4-5.5c0.7-0.3,0.9-0.2,0.9,0.6
	c-0.1,0.7-0.1,1.4,0.2,2l0.5,6c-1.6,0.9-3.3,1.7-5,2.3c-7.6,3.5-15,7.5-22.1,12c-0.2,0.2-0.5,0.3-0.8,0.4
	C79.4,128.3,77.4,126.3,75.6,124.1z"/>
<path class="st10" d="M123.7,442.5c-0.3,0.4-0.7,0.3-1.1,0.1c-8-2.8-15.8-6.2-23.3-10.1c-4.7-2.5-9.2-5.2-13.7-8
	c-0.2-0.1-0.2-0.3-0.4-0.5c3-1.2,6-2.6,8.9-4.1c4.2,2.4,8.4,4.8,12.7,6.9c2.9,1.4,5.8,2.7,8.7,4.2l7.8,11
	C123.4,442.2,123.5,442.4,123.7,442.5z"/>
<path class="st10" d="M272.7,424.1c-1.6,1.4-3.4,2.6-5.3,3.5c-4.6,2.8-9.3,5.4-14.2,7.7c-5.3,2.6-10.8,4.8-16.3,6.7
	c-0.7,0.2-1.3,0.5-2,0.8c-0.4,0.1-0.8,0.3-1.1-0.1c1.2-1.7,2.4-3.3,3.6-5c1.6-2.2,3.2-4.5,4.8-6.7c2-0.5,4-1.2,5.8-2.3
	c5.2-2.4,10.3-5.1,15.2-8.1c0.3-0.2,0.6-0.3,0.9-0.4L272.7,424.1z"/>
<path class="st24" d="M248.2,115.4c1-0.4,1.7,0.4,2.4,0.7c8.9,3.9,17.5,8.5,25.7,13.8c-2.1,2.2-4.3,4.2-6.8,5.9
	c-1.7-0.8-3.3-1.8-4.9-2.8c-5.6-3.2-11.4-6.2-17.4-8.8c-0.4-0.1-0.7-0.3-1-0.6C247.2,120.9,247.8,118.2,248.2,115.4z"/>
<path class="st28" d="M73.3,341.5c-0.6,0-0.9-0.5-1.1-0.9c-2.7-4.9-5-9.9-7.1-15c-3-7.6-5.2-15.4-6.6-23.4c-0.7-3.4-1-6.9-1.3-10.4
	c-0.4-4.9-0.5-9.9-0.4-14.8c0.1-4.4,0.5-8.7,1.1-13c1-6.5,2.4-12.9,4.2-19.2c0.2-0.7,0.4-1.5,1.1-1.9c-0.1,2-0.2,4.1-0.3,6.1
	c-0.1,2.3-0.3,4.6-0.4,7c-0.5,0.2-0.4,0.6-0.5,1c-1,4.8-1.7,9.7-2.1,14.6c-0.3,3.7-0.5,7.3-0.5,11c0.1,5.6,0.7,11.2,1.5,16.8
	c1.5,9.4,4.1,18.5,7.7,27.3c0.5,1.2,1,2.4,1.7,3.6c0.8,2.9,1.5,5.8,2.2,8.7C72.8,339.8,73,340.7,73.3,341.5z"/>
<path class="st24" d="M81.6,130.2c1.2-1.4,2.9-2,4.4-3c5.2-3.2,10.7-6.1,16.2-8.7c2.2-1.1,4.5-2.1,6.7-3.1c0.1,0,0.3,0,0.4,0.1
	c0.5,2.8,1.1,5.5,2,8.2c-1.3,1.2-3.1,1.6-4.7,2.4c-5.9,2.8-11.6,5.8-17.2,9.2c-0.4,0.3-0.8,0.7-1.2,1
	C86,134.3,83.7,132.3,81.6,130.2z"/>
<path class="st16" d="M319.4,155.3c-1-0.5-1.8-1.2-2.4-2.1c-3.3-3.6-6.8-7-10.4-10.4c-2.6-2.4-5.3-4.8-8.1-7.1
	c-3.4-2.8-6.9-5.5-10.5-8c-0.8-0.8-1.7-1.3-2.7-1.7l4.1-4.8c0.5-0.2,0.8,0.2,1.1,0.4c5.7,4,11.2,8.3,16.4,12.8
	c2.7,2.4,5.4,4.8,8,7.4C316.7,146.3,318,150.8,319.4,155.3z"/>
<path class="st15" d="M37.3,355c-0.4-0.1-0.5-0.4-0.6-0.7c-1.5-3.1-3.1-6.2-4.5-9.4c-2-4.5-3.7-9.1-5.2-13.7
	c-2.5-7.5-4.4-15.1-5.7-22.9c-0.7-4.4-1.3-8.8-1.7-13.2c-0.6-6.3-0.8-12.7-0.6-19c0.1-4,0.4-8.1,0.9-12.1c0.5-4.3,1.1-8.6,1.9-12.8
	c0-0.4,0.2-0.8,0.5-1.1l0.1,5.7c0.2,0.6,0,1.4,0.2,2l0.1,3.7c0.2,0.4,0,0.9,0.1,1.3v0.3c-0.3,1.7-0.5,3.5-0.5,5.2
	c-0.2,2-0.3,4-0.3,6c0.1,2.3-0.4,4.5-0.2,6.8c0.3,6,0.4,12,1.1,18c1.3,10.6,3.5,21.1,6.9,31.3c1.3,4,3,7.8,4.3,11.8
	c0.1,0.2,0.2,0.4,0.4,0.6L37.3,355z"/>
<path class="st23" d="M191.1,83.8c1.5-0.5,3,0.1,4.5,0.1c1.9,0,3.8,0.4,5.8,0.6c3.7,0.4,7.4,0.9,11.1,1.6c0.8,0.2,1.8-0.1,2.4,0.8
	c-0.9,3.1-1.5,6.2-1.9,9.4c-1.4,0-2.7-0.2-4-0.5c-6.1-1-12.2-1.7-18.4-2.1c-0.4,0-0.8-0.1-1.1-0.3C189.6,90.1,190.2,86.9,191.1,83.8
	z"/>
<path class="st29" d="M323.3,343.7c0.5-2.3,1-4.6,1.5-6.9c2.3-9.9,4.2-20,5.7-30c1.5-9.5,2.6-19.1,3.5-28.6c0.5-5,0.7-10,1.1-15.1
	c0.1-0.2,0.2-0.4,0.5-0.2c0.9,0.9,0.6,2,0.7,3c0.3,3.3,0.5,6.5,0.6,9.8c0.1,2.3,0.2,4.6,0.2,6.9c-0.2,20.1-4.3,40-11.9,58.7
	c-0.3,0.8-0.7,1.5-1.1,2.3C323.9,343.7,323.7,344.4,323.3,343.7z"/>
<path class="st15" d="M323.3,343.7c0.6,0.3,0.5-0.3,0.6-0.6c4.4-10.1,7.6-20.6,9.7-31.4c0.9-4.8,1.7-9.7,2.2-14.6
	c0.4-3.7,0.6-7.4,0.7-11.2c0.1-2.3,0.3-4.6,0.2-6.9c-0.2-4.8-0.2-9.5-0.9-14.3c-0.1-0.7,0.3-1.5-0.5-2c-0.2-0.4-0.2-0.9,0-1.3
	l0.1-3.8c0.2-0.6-0.1-1.2,0.1-1.8c0-2,0.1-3.9,0.1-5.9c0.1-0.1,0.1-0.1,0.2,0c0.9,1.8,0.9,3.7,1.2,5.5c0.5,2.8,0.8,5.6,1.2,8.4
	c0.2,1.8,0.4,3.6,0.5,5.5c0.4,6.3,0.4,12.7,0.2,19c-0.3,5.7-0.9,11.5-1.8,17.1c-1.3,8.1-3.2,16.2-5.6,24c-2.2,7-4.9,13.8-8.1,20.4
	c-0.8,1.6-1.5,3.2-2.4,4.7c-0.2,0.3-0.3,0.8-0.7,0.9C321.2,351.7,322.2,347.7,323.3,343.7z"/>
<path class="st29" d="M200.6,128.7c-0.9,0.5-1.9,0.1-2.8-0.1c-3.7-0.5-7.4-0.7-11-1c-4.6-0.3-9.3-0.3-13.9-0.1
	c-4.8,0.1-9.6,0.6-14.3,1.3c-0.5,0.1-0.9-0.2-1.4-0.2c3.1-1.7,6-3.8,8.5-6.3l1.5-1.6c0.4-0.2,0.8-0.4,1.2-0.4
	c5.4-0.2,10.8-0.4,16.1-0.2c1.6,0,3.2,0.2,4.8,0.2c0.5,0,1,0.1,1.4,0.4C193.4,124,196.8,126.6,200.6,128.7z"/>
<path class="st13" d="M141.6,116.4c1.2-3.2,2.1-6.6,2.7-10c0.4-0.4,0.9-0.6,1.4-0.6c5.6-1.1,11.2-1.9,16.8-2.4
	c1.4-0.1,2.7-0.2,4-0.4c0.5-0.2,1.1-0.1,1.5,0.3c-0.4,3.6-1.8,7-3.9,10c-4.5,0.5-9.1,1-13.5,1.8c-2.5,0.4-4.9,1-7.4,1.4
	C142.7,116.6,142.1,116.9,141.6,116.4z"/>
<path class="st30" d="M143.3,88.6c3-0.6,6-1.1,9-1.4c2.4-0.3,4.8-0.6,7.2-0.9s5-0.4,7.5-0.6c0.8,3.1,1.2,6.2,1.4,9.4
	c-1,0.4-2.2,0.6-3.3,0.5c-6.4,0.5-12.7,1.2-19,2.3c-0.5,0.2-1,0.1-1.4-0.2C144.5,94.6,144,91.6,143.3,88.6z"/>
<path class="st31" d="M34.1,342.7c-0.4-0.2-0.7-0.6-0.8-1c-3.4-8-6-16.3-8-24.7c-1.2-5-2.1-10.1-2.8-15.2c-0.4-3.6-0.8-7.1-1-10.7
	c-0.2-3.8-0.5-7.6-0.4-11.4c0.2-5.3,0.3-10.6,0.9-15.8c0-0.3,0.2-0.6,0.4-0.8l0.1,2.8c0.2,0.4,0,0.9,0.2,1.3
	c0.7,10.1,1.6,20.1,3,30.1c1.4,10.2,3.1,20.3,5.1,30.4c0.9,4.8,2.1,9.5,3.1,14.3C34,342.2,34,342.5,34.1,342.7z"/>
<path class="st32" d="M310.9,430.6c-0.9,0.1-1.4,0.9-2,1.4c-8.1,7-16.8,13.3-25.9,18.9c-1.4,0.9-2.8,1.7-4.2,2.5
	c-0.2,0.1-0.4,0.2-0.6-0.1l5.6-9c0.5-0.3,1-0.6,1.4-1c3.8-2.7,7.7-5.3,11.4-8.1c1.5-1.2,3-2.4,4.5-3.5c0.4-0.1,0.7-0.4,1-0.7
	c0.2-0.2,0.4-0.4,0.6-0.5c0.3-0.1,0.6-0.4,0.8-0.7c0.2-0.2,0.4-0.4,0.6-0.5c0.4-0.2,0.7-0.4,0.9-0.8c2.9-2.3,5.6-4.8,8.2-7.4
	c0.7-0.7,1.5-1.3,2.2-2c0.2-0.2,0.5-0.5,0.9-0.2C314.7,422.8,312.9,426.8,310.9,430.6z"/>
<path class="st33" d="M273.1,176.7c0.6-0.4,1,0.1,1.3,0.4c3.7,3.8,7.6,7.4,11,11.4c4.3,4.9,8.2,10.1,11.8,15.6
	c4,6.2,7.5,12.7,10.5,19.4c0.1,0.3,0.2,0.5,0.2,0.8l-3.8,0.8c-0.6-0.3-0.8-0.9-1-1.4c-5.2-11.3-11.9-21.9-20-31.3
	c-0.7-0.9-1.5-1.8-2.4-2.5C278.5,185.4,275.9,181,273.1,176.7z"/>
<path class="st32" d="M319.9,140.9c0.2-0.8,0.6-0.3,0.8,0c1.7,1.8,3.4,3.5,5,5.3c1.6,1.8,3,3.5,4.5,5.2c3.2,3.7,6.3,7.5,9.1,11.5
	c1.7,2.4,3.4,4.8,5.1,7.2c0.3,0.3,0.5,0.6,0.9,0.8c0.9,4.3,1.7,8.6,2.2,13c-0.8,0.2-0.9-0.5-1.2-0.9c-3.1-5.2-6.4-10.3-9.9-15.2
	s-7.2-9.6-11.2-14.1c-0.6-0.7-1.2-1.5-1.8-2.2L319.9,140.9z"/>
<path class="st32" d="M12.2,171.4c0.4-0.2,0.6-0.5,0.8-0.9c3.3-4.9,6.7-9.7,10.4-14.3c2.5-3.2,5.2-6.2,7.9-9.2
	c1.7-1.8,3.6-3.4,5.1-5.4c0.3-0.3,0.5-1.1,1.2-0.7c-1,2.7-1.9,5.4-2.8,8.1c-0.2,1.1-0.6,2.2-1,3.3c-2.8,3.1-5.5,6.4-8.1,9.7
	c-5.3,6.8-10.1,14-14.4,21.4c-0.3,0.6-0.5,1.4-1.4,1.4C10.5,180.3,11.2,175.8,12.2,171.4z"/>
<path class="st32" d="M79.5,453.4c-1.9-0.6-3.5-1.9-5.2-2.9c-5.4-3.3-10.6-6.8-15.6-10.6c-3.8-2.9-7.5-5.8-11.1-9.1
	c-0.2-0.3-0.6-0.5-1-0.5c-1.9-3.9-3.8-7.8-5.4-11.7c0.4-0.4,0.8-0.1,1,0.2c0.8,0.8,1.8,1.5,2.6,2.3c8.9,8.6,18.6,16.2,28.9,22.9
	l5,8.3C79,452.6,79.3,453,79.5,453.4z"/>
<path class="st34" d="M189.4,93.4c4.4,0.2,8.7,0.5,13.1,1.2c3.3,0.4,6.6,0.9,9.9,1.5c0.2,0,0.5,0.1,0.6,0.3c-0.1,2.9,0,5.7,0.2,8.6
	c-0.6,0.2-1.3,0.2-1.9,0c-6.9-1.3-13.8-2.1-20.8-2.5c-0.4,0-0.8-0.1-1.1-0.3C189,99.2,189,96.2,189.4,93.4z"/>
<path class="st9" d="M280.8,189.9c0.6,0.1,1,0.4,1.8,1.4c4.2,4.9,8.1,10.1,11.6,15.6c3.8,5.9,7.1,12,9.9,18.4
	c-2.1,0.6-4.3,1-6.5,1.1c-0.3-0.2-0.6-0.6-0.7-0.9c-2.2-4.6-4.6-9-7.3-13.3c-0.3-0.6-0.6-1.1-1-1.6c-1.5-4.7-3-9.4-5-14
	C282.8,194.3,281.8,192.1,280.8,189.9z"/>
<path class="st10" d="M246.3,123.6c1,0.2,1.9,0.5,2.8,1.1c6.9,3.1,13.6,6.6,20,10.7c0.2,0.1,0.4,0.3,0.5,0.5c-2.2,2-4.5,3.9-7,5.5
	c-2.4-1.6-4.9-3-7.5-4.3c-3.8-1.9-7.5-3.9-11.4-5.5c-0.6-0.2-1.1-0.5-1.5-0.9C244,128.5,245.3,126.2,246.3,123.6z"/>
<path class="st15" d="M128.1,133.9c-0.1,0.4-0.5,0.5-0.8,0.6c-6.2,2.3-12.3,4.9-18.3,7.9c-1.9,1-3.8,2-5.7,3.1
	c-0.4,0.2-0.8,0.5-0.9,1c-2.5-1.6-5-3.3-7.4-5.1c-0.3-0.7,0.4-0.9,0.8-1.1c2.1-1.3,4.2-2.6,6.4-3.7c3.8-2,7.7-4,11.8-5.6
	c0.4-0.3,0.9-0.4,1.4-0.3c2.6,2.9,6.2,2.8,9.6,3.1L128.1,133.9z"/>
<path class="st10" d="M115.4,130.6c-4.2,1.8-8.2,3.7-12.2,5.8c-2.4,1.3-4.8,2.7-7.1,4c-0.3,0.2-0.8,0.4-0.9,0.9
	c-2.3-1.6-4.6-3.3-6.7-5.2c0-0.8,0.7-1,1.2-1.3c6.9-4.2,14.1-7.9,21.5-11.1c0.1,0,0.2,0,0.2,0C112.3,126.2,113.7,128.5,115.4,130.6z
	"/>
<path class="st34" d="M144.8,97.7c2.4-0.3,4.7-0.7,7-1s4.9-0.7,7.4-0.9c2.9-0.2,5.8-0.5,8.8-0.8c0.2,0,0.3,0,0.5,0.1
	c0.2,2.7,0.1,5.5-0.4,8.2c-3.3,0.3-6.5,0.5-9.8,0.9c-3.9,0.5-7.7,1.1-11.5,1.7c-0.8,0.2-1.6,0.3-2.4,0.5
	C144.6,103.5,144.8,100.6,144.8,97.7z"/>
<path class="st16" d="M34.4,402c1.6,0.7,2.3,2.3,3.5,3.5c1.6,1.6,3,3.5,4.7,5.1c2.1,2.1,4.2,4.3,6.4,6.4c3.7,3.7,7.7,7.2,11.8,10.4
	c1.7,1.3,3.3,2.6,5,3.9c0.3,0.2,0.6,0.9,1.3,0.5l4.9,8.9c-0.5,0.5-1,0.1-1.4-0.2c-6-4.2-11.8-8.6-17.4-13.4c-2.3-1.9-4.5-3.9-6.7-6
	c-2.5-2.4-4.9-4.8-7.2-7.4C37.4,409.9,35.8,406,34.4,402z"/>
<path class="st24" d="M189.4,102c8,0.3,15.9,1.3,23.7,2.9c0.4,2.8,1,5.6,1.8,8.4c-0.5,0.5-1.2,0.4-1.8,0.2c-5.2-1-10.4-1.8-15.7-2.4
	c-1.3-0.1-2.5-0.3-3.8-0.3c-0.6,0-1.3-0.2-1.8-0.6C190.5,107.6,189.6,104.9,189.4,102z"/>
<path class="st9" d="M60.2,226.4c-2.2-0.3-4.3-0.6-6.4-1.1c-0.3-0.4,0-0.8,0.1-1.1c5.2-11.6,12.1-22.4,20.3-32.1
	c0.3-0.4,0.6-0.8,1-1.2c0.3-0.3,0.6-0.7,1.1-0.4c-3,6.5-5.5,13.3-7.4,20.2c0,0.1-0.1,0.3-0.2,0.4c-1.2,2.1-2.5,4.1-3.7,6.2
	c-1.5,2.7-2.9,5.5-4.2,8.3C60.7,226,60.5,226.3,60.2,226.4z"/>
<path class="st11" d="M328.6,275.4c-0.3-0.4-0.5-0.8-0.5-1.3c-0.2-4.8-0.7-9.6-1.4-14.3c-0.7-4.9-1.7-9.9-2.9-14.7
	c-1.5-6.3-3.5-12.5-5.9-18.5c-0.1-0.4-0.2-0.8-0.4-1.1l4.1-1.5c0.6,0.2,0.7,0.7,0.9,1.2c3.1,8,5.5,16.3,7.2,24.7
	c0.1,0.3,0,0.7,0.3,1c-0.1,8.1-0.7,16.1-1.3,24.1C328.7,275.1,328.7,275.2,328.6,275.4z"/>
<path class="st10" d="M191.8,110.2c4.2,0.5,8.5,0.9,12.7,1.5c2.9,0.4,5.8,1,8.6,1.5c0.6,0.1,1.2,0.1,1.8,0.1
	c1.1,3.2,2.6,6.2,4.3,9.1c-0.4,0.5-1,0.3-1.5,0.2c-5.9-1.4-11.9-2.5-18-3.3c-0.4,0-0.7-0.2-1.1-0.2
	C195.7,116.8,193.3,113.7,191.8,110.2z"/>
<path class="st35" d="M350.1,204.3c-0.6-1-1.2-1.9-1.7-3c-3.2-7-6.9-13.7-11.1-20.2c-2.5-4-5.1-7.8-7.9-11.6
	c-0.4-0.5-0.7-1.2-1.5-1.2c-0.8-3.1-1.6-6.2-2.4-9.4c0.1-0.8,0.6-0.4,0.9-0.2c0.4,0.4,0.8,0.8,1.1,1.2c7.1,8.7,13.4,18.1,18.9,27.9
	c0.8,1.3,1.5,2.7,2.1,4.1c0.4,3.5,0.9,7,1.3,10.5C350.1,203.1,350.1,203.7,350.1,204.3z"/>
<path class="st36" d="M156.3,146.9c0.6-0.7,1.4-0.5,2.1-0.7c4-0.6,7.9-1,11.9-1.3c5.2-0.3,10.5-0.3,15.7-0.1c5,0.1,9.9,0.6,14.8,1.6
	c0.3,0.1,0.6,0.1,0.6,0.4c-6,1-11.9,2.1-17.8,3.6c-3.1,0.8-6.3,0.8-9.3,0C168.3,149,162.3,147.9,156.3,146.9z"/>
<path class="st16" d="M29.8,167.3c-1,0-1.2,1-1.7,1.6c-4.1,5.5-7.8,11.1-11.3,17c-3,5.1-5.7,10.3-8.2,15.7c-0.2,0.4-0.3,1-1,1
	c0.1-3.4,0.8-6.8,1.1-10.2c0-0.1,0.1-0.2,0.2-0.3c2.2-4.5,4.7-8.8,7.4-13c3.7-5.8,7.6-11.5,11.8-16.9c0.8-1,1.7-2,2.5-3.1
	c0.2-0.4,0.6-0.6,1-0.7c0.5-0.1,0.6,0.1,0.4,0.5L29.8,167.3z"/>
<path class="st37" d="M295.2,258.7c0.6,1.4,1,2.9,1.2,4.4c1.1,7.5,1.5,15.1,1.2,22.8c-0.1,3.4-0.5,6.8-0.9,10.2
	c-0.6,5.1-1.6,10.1-2.9,15.1c-1.2,4.6-2.7,9.1-4.4,13.5c-0.1,0.4-0.3,0.7-0.6,1c-0.3,0.3-0.2-0.2-0.3-0.3c0.6-3.1,1.2-6.2,1.8-9.3
	c1.1-5.9,2.1-11.8,2.8-17.8c0.9-7.3,1.5-14.7,1.9-22.1c0.2-3.5,0.2-7,0.3-10.5C295.2,263.4,295.2,261.1,295.2,258.7z"/>
<path class="st38" d="M190.6,120.7c-7.8-0.4-15.7-0.3-23.5,0c2-2.6,3.6-5.5,4.8-8.6c0.8-0.3,1.6-0.4,2.5-0.4c3.3,0,6.6,0,9.8,0
	c0.6-0.1,1.1,0,1.6,0.4C186.9,115.2,188.6,118.1,190.6,120.7z"/>
<path class="st15" d="M264,420.3c-1.8,1.4-3.7,2.6-5.8,3.5c-4.7,2.6-9.5,5-14.4,7.1c-0.5,0.2-1.1,0.6-1.6,0.1
	c2.9-4.6,6-9.2,8.7-13.9c0.7-1.2,1.4-2.3,2.1-3.5c0.3-0.5,0.5-0.7,1-0.2C257.1,416,260.5,418.3,264,420.3z"/>
<path class="st37" d="M62.4,260.2c0.1,4.9,0.1,9.8,0.3,14.7c0.3,8.2,1,16.3,2,24.4c0.7,4.8,1.3,9.6,2.1,14.4c0.6,3.5,1.4,7,2.1,10.5
	c0.2,0.6,0,0.7-0.5,0.4c-0.4-0.4-0.7-0.9-0.9-1.4c-3.5-9.2-5.8-18.7-7-28.4c-0.7-6.5-0.9-13-0.7-19.5c0.1-4.4,0.6-8.8,1.4-13.2
	C61.5,261.4,61.5,260.5,62.4,260.2z"/>
<path class="st15" d="M242.2,130.6c5,2,9.7,4.4,14.4,6.9c1.7,0.9,3.3,1.9,5,2.8c0.4,0.2,0.9,0.4,0.9,1c-1.8,1.4-3.6,2.7-5.5,3.8
	c-3.4-2.1-6.9-4-10.5-5.7c-3.6-1.7-7.3-3.3-11.1-4.8c-0.6-0.2-1.2-0.5-1.5-1.1c0.6-0.2,1.3-0.3,2-0.2
	C238.3,133.3,240.6,132.3,242.2,130.6z"/>
<path class="st39" d="M233.9,133.7c5.7,2.5,11.5,4.8,17.1,7.7c1.8,0.9,3.5,1.9,5.2,2.9c0.4,0.2,0.8,0.4,0.8,0.9l-4.3,2.7
	c-0.2-0.3-0.5-0.6-0.8-0.7c-3.9-2.1-7.9-4.1-12-5.9c-3.6-1.5-7.1-3-10.8-4.3c-2.9-1.1-5.9-1.9-8.9-2.7c-0.5-0.2-1.1-0.4-1.6-0.7
	C223.8,133.9,228.9,134,233.9,133.7z"/>
<path class="st14" d="M49.7,224.4c0-0.3,0.1-0.6,0.2-0.9c3.5-7.7,7.6-15.2,12.4-22.2c3-4.4,6.3-8.6,9.8-12.6
	c2.2-2.6,4.5-4.9,6.8-7.4c1.4-1.5,3-2.9,4.5-4.3c0.2-0.2,0.4-0.4,0.7,0c-1.7,2.5-3.2,5.1-4.6,7.7c-0.2,0.4-0.4,0.7-0.7,1.1
	c-1.8,1.6-3.4,3.3-4.8,5.1c-5.3,6.2-10,12.8-14.1,19.8c-2.6,4.4-4.9,9-7,13.6c-0.1,0.3-0.2,0.5-0.5,0.7L49.7,224.4z"/>
<path class="st25" d="M314.9,141.9c-1-0.5-1.9-1.2-2.7-2.1c-3-2.9-6.2-5.6-9.4-8.3c-3.8-3.2-7.8-6.2-11.9-9.1l-1.5-1.1l2.9-3.8
	c0.6-0.3,1,0.1,1.4,0.4c4.2,2.9,8.2,5.9,12.1,9.2c1.6,1.3,3.3,2.7,4.8,4.1C312.3,134.6,313.7,138.2,314.9,141.9z"/>
<path class="st15" d="M115.5,431.1c-1.6-0.4-3.2-1-4.6-1.8c-5.4-2.5-10.7-5.3-15.8-8.4c-0.4-0.2-0.8-0.5-1-0.9
	c3.5-1.9,6.7-4.1,9.7-6.6c0.8-0.7,0.8,0.1,1,0.4c3.1,5.4,6.6,10.6,9.8,16C114.9,430.2,115.2,430.6,115.5,431.1z"/>
<path class="st7" d="M65.5,117.6c-2.1,1.3-4.1,2.9-6.1,4.3c-4,2.9-7.8,6-11.5,9.3c-0.3,0.3-0.7,0.5-1.2,0.5
	c1.8-4.3,3.9-8.6,6.2-12.6c2-3.5,4.1-7,6.4-10.3c0.2-0.2,0.3-0.6,0.7-0.7C61.6,111.4,63.4,114.6,65.5,117.6z"/>
<path class="st29" d="M36.6,224.1c-0.7,0.3-0.8,1-1,1.5c-3.1,8.2-5.5,16.7-7.3,25.3c0,0.6-0.3,1.1-0.7,1.5
	c-0.5-10.7-0.3-21.4,0.2-32.2L36.6,224.1z"/>
<path class="st38" d="M141.6,116.4c2.7-0.5,5.4-1.1,8.1-1.5c3-0.5,6.1-0.9,9.1-1.3c1-0.2,2-0.3,3.1-0.4c0.7-0.2,1.5-0.1,2.2,0.1
	c-1.6,2.7-3.7,5-6.2,6.7c-1.5,0-3,0.2-4.5,0.5c-4.5,0.7-8.9,1.6-13.3,2.8c-0.7,0.2-1.5,0.5-2.1-0.1
	C139.3,121,140.6,118.7,141.6,116.4z"/>
<path class="st18" d="M60.4,405.2c0.9,0,1.4,0.8,1.9,1.3c4.9,4.6,10.2,9,15.7,12.9c0.7,0.5,1.4,1.1,2.1,1.5c0.3,0.2,0.5,0.5,0.6,0.8
	c-3.5,1.2-7,2.3-10.7,3c-0.3,0.2-0.7,0-0.9-0.3c0,0,0-0.1,0-0.1C66.1,418,63,411.7,60.4,405.2z"/>
<path class="st7" d="M310.6,131.1c-1.4-0.6-2.3-1.8-3.5-2.7c-4.6-3.8-9.3-7.5-14.2-10.8c-0.2-0.1-0.4-0.2-0.5-0.2
	c2-2.9,3.7-6,5.2-9.2c0.4,0,0.4,0.2,0.6,0.4c4.8,7,8.9,14.4,12.4,22.2C310.5,130.8,310.5,130.9,310.6,131.1z"/>
<path class="st24" d="M277,421.8c0.2-0.9,1.1-1.1,1.7-1.6c4.9-3.5,9.7-7.3,14.2-11.4c1.1-1.2,2.3-2.2,3.6-3.2
	c0.2-0.1,0.4-0.2,0.6-0.3c-1.8,4.7-4,9.2-6.1,13.7c-0.8,1.7-1.6,3.4-2.5,5c-0.2,0.4-0.3,0.8-0.9,0.6C284,424,280.4,423,277,421.8z"
	/>
<path class="st29" d="M330.1,250.8c-1-0.7-0.8-1.8-1-2.7c-1.8-8.1-4.2-16-7.2-23.7c-0.1-0.2-0.2-0.4-0.3-0.5l8.1-3.6
	c0.4,2.7,0.3,5.4,0.4,8c0.3,6.4,0.1,12.8,0.1,19.3C330.2,248.7,330.1,249.8,330.1,250.8z"/>
<path class="st40" d="M171.8,83.4c0.1-0.5,0.5-0.5,0.9-0.5c2.4-0.1,4.9-0.2,7.4-0.2c1.7,0,3.3,0.3,5,0.2c0.4,0,0.7,0.1,0.8,0.6
	c-0.8,3.1-1.3,6.3-1.7,9.5c0,0.4-0.1,0.9-0.2,1.3c-0.5-0.6-1.2-1-2-0.9c-2-0.1-4,0-6.1,0c-0.8,0-1.5,0.2-2.1,0.7
	c-0.5-2.7-0.7-5.4-1.4-8C172.1,85.1,171.9,84.3,171.8,83.4z"/>
<path class="st16" d="M348.8,192c-0.7-0.7-1.2-1.6-1.6-2.5c-4.4-8.2-9.5-16.1-15.2-23.6c-1.8-2.3-3.5-4.7-5.4-6.8
	c-0.3-0.3-0.5-0.8-0.9-0.2c-0.7-2.5-1.4-5-2.2-7.5c1.5,1.3,2.9,2.8,4.1,4.5c2.9,3.4,5.7,7,8.4,10.7c3.9,5.2,7.4,10.7,10.7,16.2
	c0.2,0.4,0.4,0.9,0.9,1C348.1,186.5,348.5,189.3,348.8,192z"/>
<path class="st41" d="M333.6,201.6c0.6,0.4,1,0.9,1.3,1.6c4.2,8.4,7.8,17.1,10.6,26.1c1.5,4.6,2.7,9.2,3.7,13.9s1.9,9.2,2.5,13.8
	c0.1,0.3,0.2,0.7,0.3,1c0,3.5-0.1,7-0.5,10.5c-0.4-0.1-0.6-0.5-0.5-0.9c-0.2-4-0.6-7.9-1.2-11.8c-0.6-4.4-1.5-8.8-2.4-13.1
	c-1.2-5.4-2.7-10.7-4.4-16c-1.7-5.2-3.7-10.4-6-15.4c-0.5-1.2-1-2.5-1.6-3.7c-0.3-0.6-0.3-1.4-1.1-1.6
	C333.8,204.6,333.6,203.1,333.6,201.6z"/>
<path class="st16" d="M32,158.9c-0.5-0.8-0.8-0.1-1,0.1c-2.4,3-4.8,6-7.1,9.1c-3.6,5-7,10.2-10.1,15.5c-1.4,2.4-2.8,4.9-4.1,7.4
	c-0.2,0.3-0.3,0.8-0.7,0.9c0.2-2.4,0.5-4.8,1-7.2c1.1-0.9,1.6-2.4,2.3-3.6c4.5-7.6,9.6-14.9,15.2-21.8c1.9-2.3,3.8-4.6,5.8-7
	c0.2-0.2,0.3-0.7,0.7-0.3C33.2,154.5,32.6,156.7,32,158.9z"/>
<path class="st42" d="M185.8,112.1c-4.4,0.1-8.7-0.1-13.1,0.1c-0.3,0-0.6,0-0.8-0.1c0.9-3,1.6-6,1.9-9.1c0.4-0.3,0.9-0.4,1.3-0.4
	c2.5,0,4.9,0,7.4,0c0.5-0.1,1,0.1,1.3,0.4C184.2,106.1,184.8,109.1,185.8,112.1z"/>
<path class="st43" d="M229.5,97.7c0.1-2.4,0.9-4.8,2.2-6.8c2.2-3.1,5.4-3.3,7.9-0.4c2.3,2.7,3.2,5.9,4,9.2c0.1,0.5,0.1,0.9,0.2,1.4
	c-1.3-0.2-2.6-0.6-3.8-1.2c-0.4-0.6-0.8-1.1-1.2-1.6c-1.8-1.8-3.9-1.3-4.9,0.9C232.4,98.7,230.8,98.6,229.5,97.7z"/>
<path class="st43" d="M123.5,98.4c-1.6-1.7-3.5-1.6-5,0.2c-0.4,0.5-0.7,1.1-1.1,1.7c-0.8,0.4-1.6,0.8-2.4,1.1
	c-0.4,0.2-0.9,0.1-1.2-0.2c0.6-4.2,1.7-8.2,4.7-11.4c1.9-2.1,4.3-2.1,6.4-0.2c0.6,0.5,1,1.1,1.4,1.8c1,1.9,1.6,4,1.8,6.1
	c-1.2,0-2.3,0.2-3.4,0.7C124.4,98.5,124,98.7,123.5,98.4z"/>
<path class="st42" d="M5.8,261.1c0.5-1.7,0.8-3.5,0.9-5.2c0.6-4.1,1.4-8.1,2.2-12.2c1.5-7,3.5-14,5.9-20.7
	c2.3-6.6,5.1-13.1,8.3-19.3c0.1-0.2,0.1-0.7,0.6-0.6c0.1,0,0.1,0.4,0.1,0.6l-0.3,3.3c-1.2,1.1-1.6,2.7-2.2,4.1
	c-2.4,5.4-4.5,10.8-6.3,16.4c-2.2,6.7-4,13.5-5.3,20.4c-1,5.1-1.8,10.2-2.2,15.3c-0.3,3.2-0.6,6.3-1,9.5c-0.3-1.3-0.4-2.7-0.3-4
	C6,266,5.9,263.6,5.8,261.1z"/>
<path class="st10" d="M241.2,121.3c-0.6,1-1.3,1.9-2,2.8c-2.7,2.9-6.4,3.3-10.2,0.9c-3.4-2.3-6.1-5.6-7.5-9.5c0-0.7,0.5-0.5,0.9-0.4
	c2.3,0.5,4.6,1.2,6.8,2.1c0.8,1.3,2,2.4,3.4,3.1c1.7,1,3.2,0.5,4.5-0.7C238.3,119.4,240.8,120.5,241.2,121.3z"/>
<path class="st44" d="M121.2,120c2.3,1.6,4.4,0.2,6-1.4c0.6-0.6,1.1-1.3,1.7-2c2.1-0.8,4.3-1.4,6.5-1.9c0.4-0.1,0.7,0,1,0.2
	c-1.2,3.2-3.2,6-5.6,8.3c-2.4,2.2-5.1,3.6-8.4,3c-2.5-0.6-4.6-2.3-5.6-4.6C118,120.8,119.6,120.3,121.2,120z"/>
<path class="st45" d="M183.9,103h-10.1l-0.1-9c0-0.8,0.4-1.1,1.2-1c2.5,0,5.1-0.1,7.6,0c1,0,1.4,0.3,1.4,1.3
	C183.9,97.1,183.9,100,183.9,103z"/>
<path class="st15" d="M198.6,119.1c1.4-0.4,2.8,0.1,4.2,0.3c5.1,0.7,10.3,1.7,15.3,3c0.4,0,0.7,0,1.1,0c1,1.5,2.4,2.6,3.2,4.1
	c0.6,1,0.2,1.5-0.9,1.4c-7.8-0.5-15.3-3.1-21.7-7.7C199.5,119.8,199,119.5,198.6,119.1z"/>
<path class="st15" d="M137.9,123.1c1.6,0.1,3-0.5,4.4-0.8c4.9-1.2,9.8-1.9,14.8-2.7c0.4,0,0.8-0.1,0.8,0.4c-3.5,2.6-7.5,4.6-11.6,6
	c-3.3,1-6.7,1.7-10.2,2c-0.4,0-0.8,0-1.1-0.3c-0.3-0.3,0.1-0.8,0.2-1.1C136.1,125.3,137,124.2,137.9,123.1z"/>
<path class="st28" d="M62.4,260.2c-0.9,1.4-0.9,3.1-1.2,4.7c-0.9,6.8-1.3,13.7-1,20.6c0.1,3.5,0.4,7.1,0.9,10.6
	c0.7,5.1,1.7,10.2,3,15.2c1,4.1,2.4,8.1,3.9,12.1c0.2,0.4,0.4,0.8,0.7,1.1c0.1,0.1,0.2-0.2,0.2-0.3c0.6,2,1,4,1.4,6
	c-1.3-1.1-1.7-2.8-2.3-4.2c-3.2-7.7-5.5-15.6-7-23.8c-0.7-4-1.3-8-1.6-12c-0.4-4.1-0.5-8.2-0.3-12.2c0.1-4.7,0.6-9.4,1.3-14.1
	c0.4-2.4,0.7-4.8,1.2-7.1c0-0.4,0.2-0.7,0.4-1c0.4-0.3,0.3,0.1,0.4,0.3C62.6,257.3,62.6,258.8,62.4,260.2z"/>
<path class="st19" d="M123.5,98.4c1.2-0.4,2.4-0.7,3.6-1.1c0.5-0.2,0.7,0,1,0.3c0.6,3.3,0.3,6.7-0.7,9.8c-0.4,1.4-1.2,2.6-2.2,3.6
	c-1.5,1.3-2.9,0.9-3.6-0.9c-0.8-2.6-0.6-5.4,0.6-7.8c0.3-0.7,0.6-1.3,1-1.9C123.7,99.9,123.8,99.1,123.5,98.4z"/>
<path class="st16" d="M39.1,413.8c0.2,0,0.5,0.1,0.6,0.3c2.1,2.2,4.5,4.3,6.5,6.7c0.6,0.8,1.6,1.1,2.3,1.8c3.5,3.4,7.2,6.5,11,9.5
	c3.4,2.8,7.1,5.3,10.7,7.9c0.4,0.3,0.8,0.8,1.5,0.6l1.9,3.4c-0.4,0-0.8-0.1-1.1-0.3c-6-3.9-11.8-8.2-17.3-12.8
	c-4-3.3-7.9-6.8-11.7-10.4c-0.7-0.7-1.4-1.7-2.5-1.9C40.4,417.1,39.7,415.4,39.1,413.8z"/>
<path class="st19" d="M229.5,97.7c1.4,0.5,3,0.5,4.3,1.5c0.3,0.9,0.7,1.7,1.2,2.5c1.3,2.4,1.7,5.1,1.2,7.8c-0.2,1-0.6,2.1-1.7,2.4
	s-2-0.5-2.6-1.3c-1.3-1.7-2.1-3.7-2.3-5.8C229.1,102.4,229.1,100,229.5,97.7z"/>
<path class="st33" d="M52.3,225c0.2-0.6,0.4-1.1,0.6-1.7c3.5-7.5,7.6-14.7,12.2-21.5c3-4.2,6.1-8.3,9.6-12.2c1-1,2-2.1,2.9-3.2
	c0.2-0.4,0.7-0.7,1.2-0.6l-2.4,4.8c-0.5,0-0.8,0.4-1.1,0.7c-5.1,5.9-9.6,12.2-13.7,18.9c-2.3,3.8-4.4,7.8-6.4,11.8
	c-0.5,1.1-1,2.3-1.5,3.4L52.3,225z"/>
<path class="st16" d="M304.1,429.4c-0.2,0.1-0.4,0.3-0.5,0.5c-0.3,0.2-0.6,0.5-1,0.7c-0.2,0.1-0.4,0.3-0.5,0.5
	c-0.3,0.2-0.6,0.5-1,0.7c-5.1,4.2-10.5,8.1-16,11.8c-0.4,0.2-0.7,0.6-1.2,0.2l1.6-2.7c2.4-1.5,4.7-3,6.9-4.7c4-2.9,8-5.9,11.6-9.2
	c2.2-2,4.4-3.9,6.5-5.9s4.2-3.9,6.3-5.9c0.2-0.3,0.7-0.5,1.1-0.4c-0.5,1.3-1,2.6-1.7,3.8c-1.1,0.6-2,1.4-2.8,2.3
	c-2.3,2.3-4.8,4.4-7.2,6.7c-0.4,0.4-1,0.3-1.2,0.9C304.7,428.9,304.4,429.2,304.1,429.4z"/>
<path class="st16" d="M318,415c-0.9,0.5-1.7,1.2-2.4,2c-1.5,1.4-2.9,2.7-4.4,4s-2.8,2.6-4.2,4c-2.1,2-4.4,3.8-6.6,5.6
	c-4.5,3.6-9.1,7-13.8,10.2c-0.3,0.2-0.5,0.7-1,0.2c0.4-0.9,0.9-1.8,1.5-2.6c4-2.7,7.8-5.5,11.5-8.6c3.9-3.2,7.7-6.5,11.3-9.9
	c2.1-2,4.2-4,6.3-6.1c0.7-0.9,1.5-1.7,2.3-2.5c0.3-0.2,0.7-0.7,1,0C319,412.6,318.5,413.8,318,415z"/>
<path class="st24" d="M229.1,117.1c-2-0.2-3.8-1-5.8-1.5c-0.6-0.1-1.2-0.7-1.9-0.2c-1.5-3-2.5-6.3-2.8-9.6c0.3-0.3,0.7-0.2,1-0.1
	c1.7,0.3,3.3,0.8,5,1.2c0.2,0,0.4,0.2,0.4,0.4C225.9,110.8,227.3,114.1,229.1,117.1z"/>
<path class="st18" d="M136.4,115c-2,0.3-4,0.8-5.9,1.5c-0.5,0.2-1.1,0.2-1.6,0.2c1.7-2.9,2.9-6.1,3.7-9.4c0.1-0.3,0.4-0.5,0.7-0.6
	c1.5-0.4,3-0.8,4.5-1.1c0.4-0.1,0.9,0,1.2,0.2c-0.3,2.8-1,5.5-2.1,8.1C136.7,114.3,136.5,114.6,136.4,115z"/>
<path class="st46" d="M220.1,88.1c0.3-0.2,0.6-0.3,0.9-0.2c1.8,0.6,3.6,0.7,5.3,1.4c-1.1,2.5-1.7,5.2-1.9,8c0,0.5,0,1-0.2,1.4
	c-2-0.7-4-1.2-6-1.5C218.4,94.1,219,91,220.1,88.1z"/>
<path class="st16" d="M131.5,89.8c1.1-0.5,2.2-0.8,3.4-1c0.9-0.2,1.7-0.5,2.6-0.7c1.1,2.8,1.7,5.8,1.9,8.9c-0.1,0.1,0.1,0,0,0.1
	c-0.8,0.9-4.8,1.8-6,1.3c-0.2-1.9-0.5-3.7-0.9-5.5C132.2,91.9,131.9,90.8,131.5,89.8z"/>
<path class="st16" d="M290.4,432.2c0.5,0.3,0.7-0.1,1-0.4c2.6-2,5.2-4,7.7-6c6-5,11.7-10.4,17-16.1c1.9-2,3.7-4.1,5.5-6.1
	c0.4-0.4,0.9-0.8,1.4-1.1c-0.4,1.2-0.8,2.5-1.4,3.6c-1.6,1.5-2.9,3.1-4.4,4.7c-8.1,8.7-17.1,16.6-26.7,23.6
	c-0.4,0.3-0.8,0.7-1.4,0.3C289.5,433.8,289.9,433,290.4,432.2z"/>
<path class="st19" d="M218.2,97.2c1.5-0.4,2.9,0.4,4.4,0.7c0.6,0.1,1.4,0,1.6,0.9c0,2.9,0.3,5.7,0.9,8.6l-6.5-1.4
	C218.1,103,218,100.1,218.2,97.2z"/>
<path class="st19" d="M133.4,98.4c2.1-0.2,4.1-0.7,6-1.4c0.3,3,0.1,5.9-0.4,8.9c-2.2,0.3-4.3,0.7-6.4,1.4
	C133.1,104.4,133.4,101.4,133.4,98.4z"/>
<path class="st47" d="M288.7,210.5c1.3,1,1.9,2.5,2.7,3.9c2,3.3,3.8,6.6,5.4,10.1c0.3,0.6,0.5,1.2,0.8,1.9c-1.6,0.3-3.1,0.5-4.7,0.7
	c-0.9,0.2-0.7-0.7-0.7-1c-0.5-2.9-1.1-5.8-1.8-8.7C289.9,215,289.2,212.8,288.7,210.5z"/>
<path class="st16" d="M289.1,434.6c1.3-0.1,2.1-1.1,3-1.9c4.7-3.5,9.3-7.2,13.7-11.2c3.5-3.1,6.8-6.4,10.1-9.7
	c1.6-1.6,3.1-3.4,4.7-5.1c0.3-0.3,0.5-0.7,1.1-0.7l-1.2,2.9c-3.3,3.6-6.7,7.1-10.2,10.5c-6.6,6.2-13.5,11.9-20.9,17.1
	c-0.4,0.3-0.8,0.7-1.4,0.2C288.3,436.1,288.7,435.4,289.1,434.6z"/>
<path class="st47" d="M60.2,226.4c2.2-5.1,4.9-9.9,7.8-14.6c0.1-0.3,0.4-0.5,0.7-0.6c-1.1,3.9-1.9,7.8-2.7,11.7
	c-0.2,1-0.4,2-0.5,3.1c-0.1,0.8-0.3,1.2-1.3,1C62.9,226.7,61.6,226.6,60.2,226.4z"/>
<path class="st19" d="M113.8,101.3c0.8,0,1.6-0.2,2.3-0.6c0.4-0.2,0.9-0.3,1.4-0.3c-1.1,3.7-1.2,7.6-0.3,11.3c0,0.3,0.1,0.6,0.1,0.9
	c-0.5,0.4-1.1,0.7-1.7,0.8c-0.6,0.2-1.1,0.5-1.5,0.9c-0.7-3.3-1-6.6-0.6-9.9C113.4,103.3,113.6,102.3,113.8,101.3z"/>
<path class="st18" d="M241.2,121.3c-1.3-0.7-2.7-1.3-4.2-1.8c1.9-2.5,3.2-5.5,3.7-8.6c1.3-0.3,2.3,0.4,3.3,1
	C243.8,115.2,242.9,118.4,241.2,121.3z"/>
<path class="st16" d="M287.9,436.8c1.1,0.1,1.6-0.8,2.3-1.3c3.8-2.8,7.5-5.6,11.1-8.6c5.6-4.7,10.9-9.8,16-15
	c0.7-0.8,1.4-1.5,2.1-2.3c0.3-0.3,0.5-0.6,1-0.6c-0.2,0.9-0.5,1.7-1,2.4c-0.5-0.5-0.7,0.1-0.9,0.3c-1.1,1.1-2.1,2.3-3.2,3.4
	c-8.1,8.2-16.9,15.6-26.2,22.3c-0.6,0.5-1.3,0.9-2.1,1.1C287.2,437.9,287.5,437.3,287.9,436.8z"/>
<path class="st48" d="M244.1,111.9c-1.2-0.1-2.1-0.8-3.3-1c0.5-2.8,0.5-5.6,0-8.4c-0.2-0.9-0.5-1.8-0.8-2.6c1.4-0.1,2.6,0.7,3.8,1.2
	C244.5,104.6,244.6,108.3,244.1,111.9z"/>
<path class="st41" d="M114,114.3c0-0.4,0.1-0.8,0.5-0.9c0.9-0.4,1.8-0.7,2.7-0.9c0.5,2.1,1.4,4,2.6,5.7c0.5,0.6,0.9,1.2,1.5,1.7
	c-1.5,0.7-3,1.3-4.6,1.7C115.2,119.5,114.3,116.9,114,114.3z"/>
<path class="st10" d="M22,249.9c-0.2-1.3-0.3-2.6-0.2-3.9C22.1,247.2,22.1,248.5,22,249.9z"/>
<path class="st10" d="M335.8,250.1h-0.2c-0.1-1.2,0-2.5,0.2-3.7L335.8,250.1z"/>
<path class="st16" d="M284,443.8l1.2-0.2c-0.3,0.5-0.8,0.8-1.4,0.7L284,443.8z"/>
<path class="st15" d="M22.3,257.8c-0.4-0.6-0.1-1.3-0.2-2C22.3,256.4,22.4,257.1,22.3,257.8z"/>
<path class="st15" d="M335.5,256c0,0.6,0.2,1.2-0.1,1.8C335.3,257.2,335.3,256.6,335.5,256z"/>
<path class="st15" d="M335.3,261.5c0,0.4,0,0.9,0,1.3l-0.2,0.2C335,262.5,335.1,262,335.3,261.5z"/>
<path class="st41" d="M350.9,276.1c0-0.4-0.2-0.9,0.2-1.3C351.2,275.3,351.1,275.7,350.9,276.1z"/>
<path class="st15" d="M22.8,267.1c-0.4-0.4-0.2-0.9-0.2-1.3C22.9,266.2,22.8,266.7,22.8,267.1z"/>
<path class="st15" d="M22.5,262.8c-0.3-0.4-0.1-0.9-0.1-1.3C22.7,261.9,22.5,262.4,22.5,262.8z"/>
<path class="st42" d="M22.8,214.4c0-0.4-0.2-0.9,0.2-1.3C23.1,213.6,23,214,22.8,214.4z"/>
<path class="st49" d="M213.9,354.7c0.5-2.2,1.1-4.5,1.6-6.7l14.6-63.3c4.1-17.6,8.1-35.3,12.2-52.9c0.3-1.5,0.4-3.1,0.1-4.6
	c-0.5-2.6-2.7-4.2-5.8-4.4c-1.2,0-2.5,0.1-3.7,0.3c-0.6,0.1-0.8,0-0.8-0.6c0-3.5,0-7,0-10.6c0-0.9,0.5-0.7,1-0.7h17.6
	c5.4,0,10.8,0,16.2,0c1,0,1.2,0.3,1.1,1.2c0,3.3,0,6.6,0,9.8c0,0.8,0,1.3-1.1,1.1c-1-0.2-2.1-0.2-3.1,0c-2.7,0.4-4.8,2.5-5.2,5.1
	c-3.2,14.7-6.5,29.4-9.8,44.1c-4,18.3-8.1,36.5-12.1,54.8c-2.8,12.9-5.7,25.7-8.6,38.6c-3.1,14.2-6.3,28.5-9.4,42.7
	c-2.2,9.8-4.3,19.6-6.5,29.4c-0.2,0.8-0.5,1-1.3,1c-1.5-0.1-3,0-4.6,0c-0.6,0-0.8-0.2-0.9-0.8c-1.8-9.5-3.7-19-5.5-28.5
	c-1.9-9.7-3.8-19.3-5.7-29c-2-10.4-4-20.9-6.1-31.3l-5.7-29.2c-1.9-10-3.9-20-5.8-29.9c0-0.4-0.1-0.8-0.4-1.1
	c-1.5,9.5-2.9,19-4.4,28.4c-1.6,10.7-3.2,21.4-4.9,32.2c-1.4,9.1-2.8,18.3-4.2,27.4c-1.2,8.1-2.4,16.2-3.7,24.4s-2.5,16.2-3.8,24.4
	c-0.6,3.9-1.2,7.8-1.7,11.7c-0.1,1-0.4,1.5-1.5,1.4c-1.6-0.1-3.2-0.1-4.8,0c-0.9,0-1.1-0.3-1.3-1.1c-2-8.7-4-17.5-6.1-26.2
	c-3.2-13.8-6.4-27.7-9.7-41.5c-3.8-16.3-7.6-32.6-11.4-48.9c-3.5-14.9-7-29.9-10.4-44.8c-3.7-16.1-7.5-32.1-11.2-48.1
	c-0.7-3.1-3.3-5.3-6.4-5.6c-1.2-0.1-1.6-0.5-1.6-1.7c0.1-3,0.1-6,0-9c0-0.7,0.2-0.9,0.8-0.9c12.8,0,25.7,0,38.5,0
	c0.7,0,0.9,0.2,0.9,0.9c0,3.3,0,6.6,0,9.8c0,0.7-0.2,1-0.9,0.8h-0.1c-5.5-1.1-8,2-8,7c0,3.2,1.1,6.3,1.8,9.4
	c3.8,16.6,7.8,33.3,11.6,49.9c4,16.9,7.9,33.9,11.9,50.9c1,4.4,2,8.8,3.2,13.1c0.4-2.6,0.8-5.1,1.2-7.7c1.1-7,2.2-14,3.3-21
	c1.1-7,2.2-13.9,3.2-20.8c1.1-7,2.2-13.9,3.3-20.9c1-6.5,2-12.9,3-19.4s2-12.8,3-19.3s2-12.8,3-19.3c1.1-6.9,2.1-13.9,3.2-20.8
	c0.5-3.3,1.1-6.6,1.5-9.9c0.1-0.8,0.4-0.9,1.1-0.9c1.3,0,2.7,0,4,0c0.6,0,0.9,0.2,1,0.8c3.2,15.3,6.4,30.7,9.6,46.1
	c2.2,10.5,4.4,21,6.6,31.4c2.4,11.3,4.7,22.7,7.1,34c2.3,11.2,4.7,22.5,7.1,33.7c1,4.8,2,9.7,3,14.5c0.1,0.4,0.2,0.8,0.3,1.1
	L213.9,354.7z"/>
<path class="st16" d="M304.1,429.4c0.2-0.4,0.6-0.7,1-0.7C305,429.1,304.6,429.4,304.1,429.4z"/>
<path class="st16" d="M302.7,430.6c0.2-0.4,0.6-0.7,1-0.7C303.5,430.3,303.1,430.6,302.7,430.6z"/>
<path class="st16" d="M301.2,431.8c0.2-0.4,0.6-0.7,1-0.7C302.1,431.5,301.7,431.8,301.2,431.8z"/>
</svg>
