<svg id="Layer_1" data-name="Layer 1" xmlns="http://www.w3.org/2000/svg" viewBox="0 0 428.47 323.8"><defs><style>.cls-1{fill:#0a080e;}.cls-2{fill:#2e327c;}.cls-3{fill:#e2252a;}.cls-4{fill:#2d337b;}.cls-5{fill:#e3262a;}.cls-6{fill:#2d327d;}.cls-7{fill:#2e337c;}.cls-8{fill:#2f347a;}.cls-9{fill:#292929;}.cls-10{fill:#282727;}.cls-11{fill:#2b292a;}.cls-12{fill:#2a2929;}.cls-13{fill:#292728;}.cls-14{fill:#302f2f;}.cls-15{fill:#2a2a2a;}.cls-16{fill:#393838;}.cls-17{fill:#2e2c2d;}.cls-18{fill:#323232;}.cls-19{fill:#545454;}.cls-20{fill:#fff;}.cls-21{fill:#050506;}.cls-22{fill:#180705;}.cls-23{fill:#2d327f;}.cls-24{fill:#2d337c;}.cls-25{fill:#fdfdfd;}.cls-26{fill:#e12529;}.cls-27{fill:#e3242a;}.cls-28{fill:#2d2d2d;}.cls-29{fill:#e4242a;}.cls-30{fill:#e1252b;}.cls-31{fill:#e3262b;}.cls-32{fill:#282728;}.cls-33{fill:#210b0a;}.cls-34{fill:#353334;}.cls-35{fill:#2d2a2b;}.cls-36{fill:#2f2e2e;}.cls-37{fill:#e72127;}.cls-38{fill:#f9fafa;}.cls-39{fill:#f9faf9;}.cls-40{fill:#f8fafa;}.cls-41{fill:#2d317f;}.cls-42{fill:#e62128;}.cls-43{fill:#2c317f;}.cls-44{fill:#f9fbfa;}.cls-45{fill:#e62129;}.cls-46{fill:#e72128;}.cls-47{fill:#fcfdfc;}.cls-48{fill:#2c327f;}.cls-49{fill:#f8f9f8;}.cls-50{fill:#2f357a;}.cls-51{fill:#220c09;}.cls-52{fill:#efe2e2;}.cls-53{fill:#cb3239;}.cls-54{fill:#e9e7e8;}.cls-55{fill:#e72028;}.cls-56{fill:#2c327e;}.cls-57{fill:#fcfcfc;}.cls-58{fill:#fbfbfb;}.cls-59{fill:#d22830;}.cls-60{fill:#f6f6f6;}.cls-61{fill:#f2f3f2;}.cls-62{fill:#f4ddd6;}</style></defs><title>experience-4</title><path class="cls-1" d="M3248.84,3350c2.76,6.88.85,13.39-2.21,19.48-7.52,14.93-20.15,24.85-33.86,33.66-8.41,5.4-17.59,9.09-26.79,12.8-6.37,1-12.57,2.95-19.08,3.25-2,.09-3.45,1.74-4.85,3.23-8.9,9.44-17.65,19-26.86,28.16-12.17,12.07-26.8,19-44.22,18.48-13.69-.37-24.09-6.64-30.85-18.68-.56-1-1-2.11-1.65-3.06-3.6-5.25-7.44-6.51-13.11-3.45-13.83,7.49-28.27,6.92-42.64,2.91-16.08-4.49-25-16.81-30.88-31.53-6.76-17.05-10.61-34.89-12.7-53.09-.25-2.25-.49-3.9-3-4.18-18.57-13-30.91-30.42-37.63-52a59.68,59.68,0,0,1-2.27-26c1.53-11.25,8.18-18.8,18.86-22.75a68.34,68.34,0,0,1,20.92-1c-.56,2.47-2.66,1.86-4.28,2.08-2,.26-4.23-.33-6.05,1.13a13.46,13.46,0,0,1-2.73,1.38c-3.11.92-6.31,1.51-9.38,2.61-8.06,3.14-11.16,10-13,17.67-1.31,5.51-1.64,11.15.32,16.67.78,2.56,1.34,5.19,2.3,7.69,2.33,9.27,6.9,17.41,12.62,25,2.94,4.71,5.76,9.52,12.34,9.63,1.19,0,2.77,1,2.2,2.14-2.63,5.17,1.93,6.12,4.52,8.22,1,.83,2.23,1.46,3.23,2.35,4.27,3.67,6.16,8.36,6.33,13.93.15,4.78,1.91,9.33,2.41,14.07.47,2,1,4,1.38,6,3.15,14.17,6.34,28.32,15.11,40.39,4.37,6,9.58,11.1,16.31,14.41a18.52,18.52,0,0,0,7.65,2.13,19.85,19.85,0,0,1,3.85.45c10.2,3.31,19.62-.38,29.12-3.27a66.61,66.61,0,0,0,6.37-2.81c2.84-.61,4-2.42,4.11-5.28a35.81,35.81,0,0,1,1.68-9.66,2.45,2.45,0,0,1,2.62-1.27c2.7,4.41.4,9.39,1.72,14.63,5-9.18,7.83-18.68,11.51-27.82,4.82-12,10.31-23.63,14.82-35.71,1.78.82,1.14-3.31,3.35-1.64,1.36,4.58-.74,8.58-2.13,12.71-1.11,3-2.37,6-3.46,9-2.22,4.3-3.7,8.94-6,13.21-1.35,2.33-2,5-3.14,7.38-3.16,7-5.47,14.25-8.27,21.36-3.28,8.31-.06,15.12,6.25,20.93,8,7.37,25.5,12.8,37.67,6.55,4.4-1.84,9-3.34,12.83-6.27,6.76-3.2,11.94-8.39,17.09-13.62,2.46-2.34,4.84-4.76,7.2-7.19,3.59-3.46,6.45-7.6,10-11.07,2.86-2.23,4.42-5.56,6.89-8.13a14.86,14.86,0,0,1,8-2.49c11.47,0,21.74-4.24,31.81-9.16a108.12,108.12,0,0,0,10.31-5.34c9.93-6.76,19.23-14.2,26.52-23.89,3.56-4.73,6.19-9.84,7-15.77a30.67,30.67,0,0,0,.73-7.46C3246.66,3348.57,3246.7,3348.54,3248.84,3350Z" transform="translate(-2856.64 -3237.34)"/><path class="cls-2" d="M3045.21,3493.71a35.55,35.55,0,0,1,5.73.53c5,1.19,7,4.05,6,9.17-1,5.54-2.3,11-3.59,16.52-.83,3.51-6.55,6.09-8.81,3.49-1.82-2.09-2.45-.86-3.68-.31-5.84,2.66-11.91,1.5-13.64-2.63-2.35-5.63.62-11.49,7.17-13.75a34.49,34.49,0,0,1,10.24-1.91c1.21,0,2.93.49,3.19-1.48s-1.5-2.48-2.85-2.9c-2.81-.87-5.57-.15-8.34.56-1.39.36-3.85,2.29-4.12.09-.24-1.91-.85-5.37,3.06-6.33A53.91,53.91,0,0,1,3045.21,3493.71Z" transform="translate(-2856.64 -3237.34)"/><path class="cls-3" d="M3111,3495c3.1.39,6.5-1.69,9.38,1.28.36.37,2.31-.81,3.53-1.28,3.72-1.42,7.61-2.13,10.88.61s2.4,6.67,1.67,10.27c-1,5-2.3,10-3.32,15.09-1,4.8-4.71,2.83-7.23,2.74-3.49-.12-1.66-2.94-1.38-4.57.6-3.6,1.77-7.12,2.25-10.73.35-2.52,2-6.16-2.35-6.85-3.38-.53-6.05.71-6.79,4.81-1.05,5.88-2.53,11.68-3.83,17.52-9,0-9,0-7.16-8.64C3108.09,3508.52,3109.56,3501.77,3111,3495Z" transform="translate(-2856.64 -3237.34)"/><path class="cls-4" d="M2987.85,3523.44c-2.62-2.11-6.42.4-10.38,1-6.13,1-10-2.49-9.16-8.47a159.12,159.12,0,0,1,3.9-19c1.16-4.28,5.14-2,7.73-2,3.47,0,1.16,2.84,1,4.09-.64,4.08-2,8-2.67,12.12-.37,2.25-1.29,5.52,2.64,5.71,3,.15,6-.38,6.77-4.26.94-4.71,2.53-9.34,2.94-14.08.55-6.23,5.06-3.74,7.71-3.53,3.43.26,1.35,3,.95,4.86-1.39,6.48-2.92,12.94-4,19.47C2994.61,3523,2993.12,3524.78,2987.85,3523.44Z" transform="translate(-2856.64 -3237.34)"/><path class="cls-5" d="M3095.36,3485a53.81,53.81,0,0,1,6.48.06c1.45.18,4.33-1.28,3.87,2-.3,2.09.31,5.54-3.8,4.95-2.35-.33-3.29,1-3.72,3-1.35,6.16-2.72,12.32-4,18.48-.37,1.75-.46,3.44,2.16,3.3,1.7-.09,3.15.25,2.59,2.43-.5,1.91,0,4.62-3.3,4.61-5.16,0-10.31,0-15.47,0-1.61,0-3.69.31-3.28-2.36.31-2,.1-4.87,3.21-4.63,3.42.26,4.14-1.58,4.66-4.3,1.14-5.86,2.43-11.69,3.78-17.51.41-1.74.52-3-1.76-3s-3.41-.64-2.83-3.21c.51-2.23.93-4.18,4-3.93C3090.36,3485.2,3092.87,3485,3095.36,3485Z" transform="translate(-2856.64 -3237.34)"/><path class="cls-6" d="M2947.89,3523c-2.14-2.52-2.2-5.44-1.53-8.46.75-3.4,1.67-6.76,2.36-10.17.23-1.1,1.09-2.26-.6-3.42-2.95-2-2.46-4.91,1.08-6.08,1.77-.58,2-1.46,1.74-2.9,1.6-2.31.28-6.58,5.74-6.27,4.58.26,5.37,1.52,3.92,5.32-1.23,3.22,0,4,3.18,3.86,1.27-.07,4.12-1.65,3.75,1.75-.25,2.32-.47,5.24-4.27,4.37-4.08-.93-5.58,1.21-6,4.9a45.34,45.34,0,0,1-1.14,4.81c-1.46,6.55-.33,7.75,6.52,6.65.3,4.79-1.33,7.34-6.54,6.89C2953.36,3524,2950.5,3524.39,2947.89,3523Z" transform="translate(-2856.64 -3237.34)"/><path class="cls-7" d="M2944,3488c-2.38,10.44-4.78,20.88-7.13,31.33a6.22,6.22,0,0,1-8.71,4.53c-1.62-.71-1-1.88-.77-2.92,2.56-11.8,5.09-23.6,7.75-35.37,1-4.35,4.6-2,7-2.32,3.4-.45,1.58,2.36,2,3.78Z" transform="translate(-2856.64 -3237.34)"/><path class="cls-8" d="M3002.36,3523.42c1.89-8.74,3.79-17.47,5.63-26.21.26-1.24.51-2.47,2-2.33,2.38.22,6.17-1.32,6.86.83,1,3.24,2,1.19,3.1.76.62-.24,1.14-.79,1.77-.91,2.17-.44,5.31-2.38,6.31-.25.91,1.94-.51,5.09-1.24,7.61-.38,1.29-1.71.35-2.62.31-7.91-.28-8.36.06-10.06,7.86q-.58,2.67-1.11,5.34C3011.4,3524.62,3011.23,3524.73,3002.36,3523.42Z" transform="translate(-2856.64 -3237.34)"/><path class="cls-9" d="M3091.81,3556.58c2.25-4.25,4.53-8.44,6.68-12.69.66-1.31,1.33-2.07,3-2,2.05,0,1.89,1.57,2.1,2.75.6,3.42,1.08,6.86,1.55,10.29.1.77.23,1.76-.75,2.11a1.69,1.69,0,0,1-2.14-.78c-2.13-3.83-4.49-3.39-6.78-.26C3094.4,3557.39,3093.38,3557.33,3091.81,3556.58Z" transform="translate(-2856.64 -3237.34)"/><path class="cls-10" d="M3205.05,3549c1.33-4.75,5.36-3.08,8-2.7,3,.42,2,3.73,1.89,5.88-.19,3.19-1.95,5.51-5.37,5-2.2-.35-2.89.3-3.3,2.12-.21.95-.34,2-1.77,1.87s-1.33-1.14-1.43-2.09C3204.07,3555.75,3205.13,3552.48,3205.05,3549Z" transform="translate(-2856.64 -3237.34)"/><path class="cls-11" d="M3107.3,3552.43c.42-2.12.64-4.63,2.81-6,2.52-1.55,5.32.67,7.95-.28.8,4.33-1.22,8.27-1.78,12.41-.12,1,.34,2.56-1.57,2.52a2.64,2.64,0,0,1-.49,0,7.6,7.6,0,0,1-.89-.29C3114.55,3555.59,3105.35,3558.16,3107.3,3552.43Z" transform="translate(-2856.64 -3237.34)"/><path class="cls-12" d="M3201.76,3546.11c.45,1,.89,1.93,1.33,2.89-.27,1.12-.93,2.29-.76,3.33,1,6-3.6,4.34-6.53,4.87a2.45,2.45,0,0,1-2.66-1.8,3.66,3.66,0,0,1,1.79-4.6c.48-.38,1.29-.55,1.39-1.11,0-.29-1-.05-1.38-.54C3195.68,3545.72,3195.76,3545.68,3201.76,3546.11Z" transform="translate(-2856.64 -3237.34)"/><path class="cls-13" d="M3164.36,3551.26c-.16,3.33-1.61,6-5.82,6-3.29,0-4.75-1.84-4.71-5,.05-3.85,1.49-6.32,5.8-6.38C3163.1,3545.84,3164.32,3547.7,3164.36,3551.26Z" transform="translate(-2856.64 -3237.34)"/><path class="cls-14" d="M3179.84,3552.7c1.63,4.58,4.51-.84,6,2-1.32,2.74-3.8,3.24-6.49,2.2-2.89-1.12-2.92-3.85-2.46-6.35s1.95-4.45,4.95-4.68c3.16-.24,4.64,1.3,4.91,4.23.32,3.46-2.44,2.24-4.12,2.58A15.93,15.93,0,0,1,3179.84,3552.7Z" transform="translate(-2856.64 -3237.34)"/><path class="cls-15" d="M3123.46,3554.88c3.43-.9,2.66-4.16,3.44-6.43.48-1.39.78-2.81,2.47-2.26,1.52.49.61,2,.48,3-.18,1.47-.72,2.91-.86,4.38-.46,5-4.55,3.59-7.12,3.49-3.22-.13-1.94-3.15-1.92-5.16,0-.32,0-.76.18-1,1.31-1.44-.25-5.49,2.92-4.67,2.59.67.09,3.32,0,5.09C3123,3552.53,3122.6,3553.68,3123.46,3554.88Z" transform="translate(-2856.64 -3237.34)"/><path class="cls-16" d="M3165.75,3552.54c-.07-4.74,3.49-7.75,7.62-6.53,1.46.43,2.6,1.48,2.25,2.72-.49,1.72-1.85,1.49-2.94.19s-2.06-.43-2.84.41a3.74,3.74,0,0,0-.68,4.16c.94,2,2,.42,3-.26.81-.51,2.12-.7,2.65.27s-.52,1.77-1.18,2.45a4.85,4.85,0,0,1-5.51,1C3166.2,3556.26,3165.65,3554.51,3165.75,3552.54Z" transform="translate(-2856.64 -3237.34)"/><path class="cls-17" d="M3147.27,3551.51c2.34-1.29,1.44-6.3,6.42-5.15-1.84,3.25-3.54,6.24-5.2,9.25-.51.92-1,1.62-2.26,1.54-1.48-.08-1.31-1.21-1.53-2.12-.45-1.93-1-3.87-1.28-5.83-.18-1.13-1.25-2.82,1-3.11s1.57,1.63,1.87,2.78C3146.51,3549.8,3146.4,3550.87,3147.27,3551.51Z" transform="translate(-2856.64 -3237.34)"/><path class="cls-18" d="M3131.63,3554.9c.42-2.27.9-4.52,1.27-6.8.2-1.28.64-2.37,2.13-2,1.74.39.94,1.84.77,2.83-.39,2.27-1,4.5-1.45,6.75a1.59,1.59,0,0,1-2.09,1.45C3130.57,3556.79,3131.33,3555.78,3131.63,3554.9Z" transform="translate(-2856.64 -3237.34)"/><path class="cls-19" d="M3179.78,3544.84c.82-2.66,2.19-4,4.42-3.45a2.49,2.49,0,0,1,1.66,2.66.86.86,0,0,1-1.42.65C3183,3543.51,3181.71,3545,3179.78,3544.84Z" transform="translate(-2856.64 -3237.34)"/><path class="cls-20" d="M3194.94,3549.15c1.7.77,4-3.09,4.72-.09.43,1.66-3,1.3-4.73,1.74C3194.94,3550.25,3194.94,3549.7,3194.94,3549.15Z" transform="translate(-2856.64 -3237.34)"/><path class="cls-21" d="M3086.05,3371c-1.35-.22-.14,2.87-2.22,1.71-1.27-1.34-1-3-1.16-4.67-.54-7.6-4.7-10.81-12.27-9.52-1.62.28-3.07,1.26-4.79,1.07-3.66-1.28-.54-4.36-1.71-6.32-2.12-5.45-1.17-10.66,1.5-15.6,1.27-2.35,2.36-4.67,2.22-7.4.08-4.62.19-9.15,1.82-13.66,1.92-5.31,1.28-6.48-3.7-9.13-10.5-5.61-21.22-10.78-31.76-16.33a179.49,179.49,0,0,0-17-9.23c-1.39-.86-2.88-1.53-4.33-2.28a7.61,7.61,0,0,1-2.67-2.37c-.63-1.44-2.46-2.64-.94-4.53q23.85,12.38,47.7,24.74c3.68,1.9,7.39,3.76,11.13,5.53,1.49.7,3.73,2.78,4.62.35,1-2.83,5.66-5,2-9.13-5.18-5.85-10-12-15.12-17.94-7.42-8.54-15-17-22.47-25.45a14.88,14.88,0,0,0-6.53-4.36c-2.23-.77-3.6-2.32-3.27-4.93a5.14,5.14,0,0,1,3.93-4.08c1.9-.6,4.08.83,4.87,2.56,7.49,16.32,22.3,26.64,32.91,40.4,2.7,3.51,5.88,6.65,9.23,10.4,2.08-4.52,4.32-8.52,9.53-7.71s6.71,5.32,7.76,10.25c12.44-7.77,23.6-16.65,34.91-25.31,4.75-3.64,9.34-7.49,14.54-10.52a21.43,21.43,0,0,1,10.4-3c1.71,0,3.81.19,4.25,2.61a4.39,4.39,0,0,1-2.06,4.67c-2.15,1.52-4.86,2.39-7.07,1.74-5-1.47-8.36,1.13-11.81,3.66-11.53,8.45-22.36,18.09-34.66,25.19-8.76,5.06-7.45,11.32-6.72,18.56.36,3.62,3,1.89,4.56,1.77,12.43-1,24.77-2.89,37.3-2.88a245.57,245.57,0,0,1,53,5.62c1.29.29,2.63.37,3.95.55,10.23,3.12,20.44,6.29,30.1,11l2.95,2.27c1,1.9-.4,2.25-1.71,2.67a9.47,9.47,0,0,1-3.87-.64,69.93,69.93,0,0,1-9.9-4.78c-13.92-6.05-28.81-7.92-43.61-9.94-16.7-2.29-33.55-.6-50.33-1.12-3.83,0-7.54,1.19-11.37,1.27-1.66.06-3.31-.31-5-.17-3.81.33-6.42,2.12-6.58,6.12-.22,5.37-.83,10.56-3.41,15.41-1,1.82,0,3.93.08,5.92.07,4-.46,8.07-2.68,11.35a16.73,16.73,0,0,0-2.65,13.52C3087.75,3369.94,3087.59,3371.1,3086.05,3371Z" transform="translate(-2856.64 -3237.34)"/><path class="cls-22" d="M3009.07,3272.75c-.35,1.89,2.21,2.55,1.86,4.44-2,1-3.45-.5-5-1.24-8.28-3.84-16.54-7.72-25.36-10.24a106.77,106.77,0,0,0-27.46-5.33c-1.39,0-2.78,0-4.18,0s-2.9-.14-3.88-1.47c.4-2.42,2.32-1.71,3.84-1.89,2.37-.27,4.88.75,7.11-.77C2975.05,3257.3,2992.51,3263.58,3009.07,3272.75Z" transform="translate(-2856.64 -3237.34)"/><path class="cls-23" d="M2890.54,3497.11a12.52,12.52,0,0,1-1.74-.88c-6.21-4.88-10.67-5.6-15.34-2.43s-7.91,12.34-6.13,17.9c1.38,4.33,5.54,6.37,10.44,5a24.74,24.74,0,0,0,4.56-1.95c1.45-.76,2.79-1.71,4.24-2.63.87,6.94-1,10.06-7.18,11.68a26,26,0,0,1-13.81-.18c-6.19-1.73-9.59-8.71-8.84-15.2.8-6.86,2.36-13,7.47-18,6.22-6.12,18.88-8.26,26.42-4.14,1.53.83,2.19,1.77,1.65,3.57C2891.62,3492.08,2891.19,3494.37,2890.54,3497.11Z" transform="translate(-2856.64 -3237.34)"/><path class="cls-24" d="M2925,3495.18c-1.82,8.36-3.56,16.44-5.36,24.52-.85,3.83-6.41,6.4-9.08,3.61-1.83-1.92-2.53-1-3.73-.3a12.83,12.83,0,0,1-5.72,1.53c-5.31.36-8.35-2.4-8.07-7.64.38-7,2.28-13.74,4.12-20.42,1-3.65,4.9-1.43,7.38-1.48,2.86-.06,1.34,2.33,1.08,3.72-.82,4.39-1.81,8.74-2.63,13.13-.4,2.13-.86,4.71,2.22,5.08,2.86.35,5.83-.23,6.76-3.6s1.42-7.15,2.33-10.67C2916.5,3493.94,2914.11,3494.49,2925,3495.18Z" transform="translate(-2856.64 -3237.34)"/><path class="cls-25" d="M2946.61,3507a2,2,0,0,1-2.28,1.31,1.58,1.58,0,0,1-1.17-1.85,1.3,1.3,0,0,1,1.62-1.3A1.86,1.86,0,0,1,2946.61,3507Z" transform="translate(-2856.64 -3237.34)"/><path class="cls-25" d="M2942,3516a4.44,4.44,0,0,1-.11,5.62C2940.58,3519.59,2940.78,3518.09,2942,3516Z" transform="translate(-2856.64 -3237.34)"/><path class="cls-26" d="M3255.14,3520.87c-2.18-11.33,4.66-14.09,14.3-15.81a37.65,37.65,0,0,1,4-.24c1-.06,2.08-.2,2.31-1.42.26-1.43-.73-2-1.86-2.57-3.13-1.47-6.16-.43-9.25.22-1.2.25-3.19,2-3.63-.35-.35-1.81-1-4.72,1.79-5.55,6.34-1.87,12.8-2.15,19.09.16,2.65,1,3.39,3.5,3.2,6.2-.47,7-2.53,13.69-4.1,20.47-.76,3.28-4.31,2.43-5.82,1.72-3.75-1.75-6.8-.22-10.12.69a25.71,25.71,0,0,1-3.94.49h0c-2.72-.25-5.12-1-6-4Z" transform="translate(-2856.64 -3237.34)"/><path class="cls-27" d="M3252,3494.88a1,1,0,0,0,.94.14c2.13,2.41.15,4.82-.3,7.05-.38,1.88-2.08.62-3.18,0-3.16-1.71-6.46-2.6-10-1.61-1.08.3-2.28.71-2.34,2.2s.85,2,2.08,2.34,2.52.78,3.79,1.16c8.43,2.47,9.62,4.38,8,12.78-6.86,7-15.17,6.42-23.68,4.43-4.24-1-2.31-4.09-1.79-6.41.81-3.59,2.77-1.43,4.38-.63a16.58,16.58,0,0,0,8.7,1.69c1.65-.13,3.76-.27,4-2.14.29-2-1.85-2.39-3.42-2.85s-2.9-.73-4.31-1.22c-3.57-1.25-6.82-2.87-6.92-7.38s2.63-7.29,6.49-9.12c.88-.41,1.79-.78,2.68-1.17C3242.12,3493,3247.19,3491.27,3252,3494.88Z" transform="translate(-2856.64 -3237.34)"/><path class="cls-28" d="M3262,3557.2l-2.2-2.22c-.91-3.43-2.37-7,2.42-8.89a.85.85,0,0,0,.78-.25c2.23.21,4.76-.45,6.14,2.17.52,1.61.75,3.2-.52,4.6-.43.48-.33,1.47.24,1.67C3267.51,3557.48,3264.79,3557.44,3262,3557.2Z" transform="translate(-2856.64 -3237.34)"/><path class="cls-20" d="M3268.85,3554.28a3.57,3.57,0,0,1-.95-.22c-1.71-1-4.48,2.73-4.91-.2-.39-2.62,2.94-.86,4.54-1.34,2.67-.79,1.26-2.94,1.6-4.51C3271,3550.18,3269.78,3552.22,3268.85,3554.28Z" transform="translate(-2856.64 -3237.34)"/><path class="cls-29" d="M3148.39,3534.87c-.46,0-1.94-.19-3.43-.36-3-.36-5.95-.39-5-5.14.94-4.95,4-2.25,6-2,3.34.46,6.55,1.27,9.42-1.3.72-.65,1.84-1.17,1.4-2.34s-1.67-.86-2.57-.75c-9.91,1.3-14.12-3.26-12.82-13.31,1.24-9.61,10.25-19.16,21.05-15,2.17.83,4.94.29,7.4.09,3.16-.25,3.62,1.11,3,3.83-1.74,7.43-3.15,14.94-5,22.33C3165.35,3530.83,3159.7,3535,3148.39,3534.87Z" transform="translate(-2856.64 -3237.34)"/><path class="cls-30" d="M3220.69,3514.44c-1.14,8.7-1.14,8.7-9.28,10-9.34,1.45-16-2-18-9.34-1.53-5.7,1.46-14,6.44-17.87,4.81-3.72,14.64-4.62,19.45-1.76,3.61,2.15,5.65,11,3.39,14.5-.89,1.41-2.3,1.13-3.58,1.14-4.49,0-9-.07-13.48,0-1.16,0-2.9-.72-3.34,1.14a3.68,3.68,0,0,0,1.85,3.84c3.65,2.51,7.58,2,11.47.65C3217.18,3516.22,3218.63,3515.39,3220.69,3514.44Z" transform="translate(-2856.64 -3237.34)"/><path class="cls-31" d="M3188.65,3483.18c3.51-.54,4.67.41,3.71,4.34-2.69,10.95-5.05,22-7.26,33.06-1,5.11-4.77,3.3-7.46,3.13-3.47-.21-1.58-3-1.26-4.61,2.2-10.9,4.7-21.74,6.81-32.66C3183.87,3482.89,3186,3482.91,3188.65,3483.18Z" transform="translate(-2856.64 -3237.34)"/><path class="cls-32" d="M3257.89,3553c-.54,5-4.34,4.63-7.59,4.15s-3.53-3.29-3-5.82c.8-3.43,2.45-6.6,6.8-5.08,2.6.9,1.81-.93,2-1.87.49-2.49,1.64-3.1,3.76-1.56C3259.1,3546.13,3260.12,3549.86,3257.89,3553Z" transform="translate(-2856.64 -3237.34)"/><path class="cls-33" d="M3226.71,3331.19c1.14-.2,2.15-.56,2.29-1.94,8.39,5.21,16.24,10.93,19.84,20.73-2.8-1.12-1.47,1.35-2,2.24-1.47,0-2-1.14-2.59-2.16-2.8-6.33-7.87-10.53-13.37-14.37C3229.24,3334.51,3226.92,3333.8,3226.71,3331.19Z" transform="translate(-2856.64 -3237.34)"/><path class="cls-34" d="M3227.36,3553.23c1.21,3.92,4.1-.85,5.85,1.39-1.72,3.13-4.46,3.65-7.16,1.74-2.94-2.07-2.47-5.26-.88-8,1.71-3,4.55-3.09,7.33-1.79,1.7.79,1.76,2.68,1.61,4.38-.16,1.95-1.73,1.62-3,1.74S3228.51,3552.17,3227.36,3553.23Z" transform="translate(-2856.64 -3237.34)"/><path class="cls-35" d="M3241.92,3554.54c.1-.63.2-1.46.38-2.26.31-1.36,1.48-3.43-.17-3.85-2.06-.54-2.64,1.7-3.27,3.49s.27,5.54-2.49,4.93c-3.09-.69-.56-3.87-.34-5.76.61-5.18,2.45-6.18,7.63-5.17a2.57,2.57,0,0,1,2.33,3.17c-.26,2.13-.67,4.24-1,6.36a1.72,1.72,0,0,1-2.07,1.61C3241.29,3556.85,3242,3555.6,3241.92,3554.54Z" transform="translate(-2856.64 -3237.34)"/><path class="cls-36" d="M3220.84,3546.14c1.24.31,2.72-1,3.13.8.26,1.11-.87,1.73-1.72,2.06-3,1.2-2.22,4.13-3,6.32-.44,1.3-1,2.14-2.37,1.71s-.76-1.6-.6-2.47c.33-1.93.82-3.84,1.2-5.77S3218.65,3545.31,3220.84,3546.14Z" transform="translate(-2856.64 -3237.34)"/><path class="cls-20" d="M3257.89,3553a30.09,30.09,0,0,1,2-10.18c.14,1.54.12,3.19,2.3,3.32-2.65,2.46-3.1,5.52-2.42,8.89Z" transform="translate(-2856.64 -3237.34)"/><path class="cls-37" d="M2935.15,3331.05a54.38,54.38,0,0,1-12.74-24.85c5.28-3,11-1.8,16.44-1.18,28.86,3.34,56,12.63,82.13,25,13.23,6.25,26.19,13,38.18,21.5,1.85,1.3,4.2,2.22,4.56,4.94.28,4.35-2.39,7.87-3.37,11.87-2.6,10.67-3.46,21.55-4,32.47-.29,6.1-.46,12.22-2.18,18.16-3.06,3.35-3.66,7.68-4.7,11.84-.67,2.7-.58,5.64-2.38,8-11.16,5.79-22.6,10.11-35.49,6.59,4.92-8.2,7.14-17.51,10.86-26.2,6.29-14.75,15.07-28.14,22.85-42.07,4.75-8.51,4.92-8.57-3.77-12.85-29.52-14.56-60.08-26.05-92.72-31.51C2944.29,3332,2939.46,3333.59,2935.15,3331.05Z" transform="translate(-2856.64 -3237.34)"/><path class="cls-38" d="M3245,3349.87l1.94,2.35c-.26,2.6.59,5.34-.92,7.79a7.61,7.61,0,0,1-3.51,1.8c-21.14,5.2-41.72,12.54-63.12,16.77-8.5,1.68-17.22,1.64-27.07,3.19,8.83,1.93,16.41,4.07,24.06,5.94q15.75,3.84,31.38,8.11c1.94.53,5.05.41,4.45,4a30.75,30.75,0,0,1-11.13,5.52c-4.91,1.71-9.53-.36-14.13-1.37-23.87-5.23-47-12.91-69.69-21.85a18.54,18.54,0,0,0-6.42-2c-8.28-2.85-16.36-6.13-23.63-11.13-1-4.43-2-8.6,1.6-12.73,3-3.41,2.68-8.3,3.69-12.57,3.6-6.66,8.22-12.73,11.25-19.74,1.14-2.64,1.18-5.92,4-7.75,3.5-1.89,7.44-1.39,11.16-2.06,1.82,2.36.18,4.45-.7,6.45-2.19,5-4.79,9.86-7.26,14.75-1.25,2.49-1.28,4.25,2.16,4.12,28.3-1.05,56.86.21,84.23-9.3,3.14-1.09,6.22-2.33,9.31-3.55a12.81,12.81,0,0,1,8.25-.85l9.79,4.73c-.87,2.5-3.2,3.27-5.24,4.31-16.35,8.44-33.83,12.77-52.08,14.55-19.94,2-39.91.51-59.86,1-2.65.07-5.28-.18-7.18,2.46-4.08,5.67-3.6,7.8,2.46,11.34,13.36,7.8,27.67,9.09,42.86,8,32.06-2.25,62.44-11.3,92.66-21.29C3240.37,3350.25,3242.51,3349,3245,3349.87Z" transform="translate(-2856.64 -3237.34)"/><path class="cls-39" d="M3063.07,3356.13c-17.51-13.07-36.81-22.89-56.9-31.24-21.52-8.95-43.69-15.66-66.89-18.5a63.58,63.58,0,0,0-16.88-.19c-1.76-2.56-1.82-5.7-2.87-8.5-.5-3.36,1.66-3.88,4.24-4,6.22-.21,12.17,1.59,18.19,2.67,11.27,2,22.51,4.32,33.72,6.66,1.57.33,3.15.93,5.43.16-3-4.9-7.26-8-11.12-11.49-9.9-8.88-20.34-17.06-32-23.61-2.33-1.3-5.2-2.58-5.08-6.1l10.33-2.23c2.81-.48,5,1.21,7.33,2.19a12.91,12.91,0,0,1,1.16.62c2.11,1.23,3.93,2.87,6,4.14a326.43,326.43,0,0,1,40.46,39.19,29.88,29.88,0,0,0,12.55,8.71c9.26,3.36,17.72,8.46,26.59,12.68a26.19,26.19,0,0,0,6.37,2.66c-.24-3.88-2.21-6.77-4-9.49-6.27-9.42-11.92-19.26-19.24-27.95a9.35,9.35,0,0,1-2.47-5.35c1.08-2.38-2.72-4.09-.93-6.57,5.68,3.1,12,5.08,16.86,9.61,5.77,6.5,9.45,14.39,14.22,21.55,3.58,5.39,7.1,10.83,10.2,16.52,1.71,3.14,3.19,4.94,6,.56,2-3.15,3.33-2.65,4.44,1a13.62,13.62,0,0,1-2.5,8.72c-3.07,4.64-2.05,10.12-1.52,15.36C3064.51,3354.89,3064.81,3356.3,3063.07,3356.13Z" transform="translate(-2856.64 -3237.34)"/><path class="cls-40" d="M2935.15,3331.05c16.24-.9,31.59,3.54,46.85,8.14a359.85,359.85,0,0,1,59.48,23.49c2.21,1.13,4.23,2.67,6.5,3.65,3.47,1.49,3.11,3.32,1.47,6.16q-10.82,18.78-21.25,37.77c-4.82,8.76-7.69,18.33-11.35,27.58-1.09,2.76-.85,6.9-5.23,7.54l-4.66-.46c-2.76-2.35-1.68-5.22-.82-7.84,4.8-14.54,10-28.93,18.12-42,2-3.25,3.9-6.57,5.7-9.95,1.5-2.81.91-3.92-2.31-3.75-10.94.6-21.9,1-32.76,2.58-7.4,1.09-14.72,2.66-22.11,3.82-2,.3-4,.86-5.65-.81l-1.62-7c.92-2.68,3.41-3,5.6-3.48a291.19,291.19,0,0,1,33.89-4.91c8.06-.74,16.17-1,24.21-1.86.89-.33,2.35.64,2.64-.65.11-.52-1.57-.61-2.49-.79-9.09-3.61-18.32-7-27-11.35-10.77-5.37-21.78-5-33-4-4,.34-7.92.82-11.9.22-2.4-.45-4-2.22-5.89-3.55-2.81-2-7.65-3.77.15-8.45C2942.23,3341.88,2937.84,3337.63,2935.15,3331.05Z" transform="translate(-2856.64 -3237.34)"/><path class="cls-41" d="M2967.13,3387c7.52-1.18,15-2.24,22.54-3.56,14.4-2.52,28.92-3.23,43.91-3.31-1.49,5.08-4.1,9.13-6.64,13.1-8.8,13.82-14.48,29-19.59,44.41a12.81,12.81,0,0,0-.39,7.33c-13.18-2.07-21.19-11-27.63-21.52C2972.49,3412.27,2969.55,3399.65,2967.13,3387Z" transform="translate(-2856.64 -3237.34)"/><path class="cls-42" d="M3087.16,3369.07c8.36,2.25,15.58,7.26,23.77,9.93l6.15,2c16.32,5.54,32.39,11.84,49,16.41q17.3,4.76,34.92,7.95c-8.3,5.82-17.81,8.21-27.61,9.53-4.21.57-8.53.35-12.43,2.42-1.76,1.12-3.51.6-5.26-.05-23.53-8.71-47.2-17.12-69-29.94-1.42-.83-3-1.42-3.62-3.2.92-4.38,3-8.51,2.89-13.12Z" transform="translate(-2856.64 -3237.34)"/><path class="cls-43" d="M3212.16,3399.85c-.66-2.16-2.72-2.34-4.37-2.76q-26.22-6.65-52.51-13.06c-1.51-.37-3.45-.61-3.35-2.25s2.3-1.52,3.61-1.7c11.8-1.59,23.72-2.33,35.29-5.55,16.9-4.69,33.83-9.26,50.76-13.83a37.66,37.66,0,0,1,4.38-.69c-.6,9-6,15.71-11.74,21.79C3227.75,3388.73,3220.71,3395.3,3212.16,3399.85Z" transform="translate(-2856.64 -3237.34)"/><path class="cls-41" d="M2932.91,3262c1.27,3.22,4.38,4.35,7,5.83,14.33,8,26.52,18.77,38.54,29.74a19.09,19.09,0,0,1,2.08,2.14c1.24,1.53,3.26,3.21,2.2,5.17s-3.29.14-4.83-.15c-16.27-3.05-32.47-6.48-48.78-9.34-3.07-.54-7.59-3.21-9.6,2.29-2.92-10.66-.69-20.38,5.26-29.47C2926.8,3265.18,2929.82,3263.59,2932.91,3262Z" transform="translate(-2856.64 -3237.34)"/><path class="cls-44" d="M3083.16,3384.13c23.94,13.67,49.57,23.44,75.4,32.77a13,13,0,0,0,2.44.41c-.56,3.73-4,5.22-6.06,7.75-3.07,1.25-5.83-.1-8.62-1-6.9-2.33-13.55-5.3-20.6-8.27,5.5,5.46,11.58,9.78,16.54,15.29,1.29,1.43,3.19,2.54,3,4.9l-7.88,7.66c-3.81-.75-6.37-3.54-8.85-6.06-11-11.24-22.71-21.86-33.32-33.53-2.77-3-6.62-4.32-10.25-5.94-2.18-1-5-1.36-5.47-4.43Z" transform="translate(-2856.64 -3237.34)"/><path class="cls-45" d="M3079.45,3393.64c.32.37.57,1,1,1.09,13.29,3.25,20.62,14.21,29.76,22.85s17.57,17.94,27.19,26c-4.55,5.43-9.52,10.33-16.18,13.15a5.47,5.47,0,0,1-3.4-1.89c-11.15-12.25-22.48-24.34-33.41-36.78-2.41-2.75-5-5.34-7.46-8-1.22-1.3-2.84-2.38-2.87-4.46Q3076.75,3399.63,3079.45,3393.64Z" transform="translate(-2856.64 -3237.34)"/><path class="cls-46" d="M2957.4,3353.13c13.79-1.7,27.63-5.51,41.24.83,9.24,4.31,19.17,7,28.08,12.1a18.17,18.17,0,0,0,4.24,1.18,2.69,2.69,0,0,1,0,3.89c-16.4,1.37-32.89,1.95-49.12,4.93-5.49,1-11.24,1.07-16.3,3.93-.92-5.53-2.57-10.92-2.7-16.58C2962.71,3359.12,2959.55,3356.37,2957.4,3353.13Z" transform="translate(-2856.64 -3237.34)"/><path class="cls-47" d="M3065.17,3359.42a12.11,12.11,0,0,1,14.19-1.19c5.93,3.26,4.64,9.14,4.47,14.49-8,22.76-18,44.74-27.43,67-2.17-6-.93-11.9-1.46-17.71-1.86-2.89,0-5.8.22-8.61,1-14.8,1.67-29.67,4.91-44.21C3060.88,3365.58,3061.52,3361.65,3065.17,3359.42Z" transform="translate(-2856.64 -3237.34)"/><path class="cls-48" d="M3108,3463c-5.3,3.58-11.09,4-17.29,3.19-9.48-1.29-17.74-4.65-24.38-11.88-5.54-6-7-12.66-4.13-20.14,2.67-7.09,5.69-14,8.55-21,11.82,15.17,23.51,30.44,35.45,45.53C3107.15,3459.84,3108.63,3461,3108,3463Z" transform="translate(-2856.64 -3237.34)"/><path class="cls-49" d="M3108,3463q-17.28-22.08-34.59-44.14a11,11,0,0,1-2.66-5.75,28.21,28.21,0,0,1,3.29-7.45c10.2,10.39,19.81,21.31,29.49,32.17,5.72,6.44,11.9,12.51,17.65,19A27.39,27.39,0,0,1,3108,3463Z" transform="translate(-2856.64 -3237.34)"/><path class="cls-50" d="M3145.22,3435.94c-6.63-8.09-15.3-14-23.84-22.33,12.46,3.06,22.28,9.51,33.56,11.45C3151.84,3428.81,3149,3432.78,3145.22,3435.94Z" transform="translate(-2856.64 -3237.34)"/><path class="cls-51" d="M3065.17,3359.42c-4.57,7.43-5.16,15.86-6.07,24.21q-2.08,19.18-4.16,38.38l-1.86,1c-1.32-1.21-.91-2.51-.18-3.82,1.85-4.91,1.38-10.11,1.7-15.17.77-12,1.47-24,4.24-35.85,1-4.2,4.11-7.59,4.23-12,1.33-.14.65-1.85,1.71-2.2C3066.42,3355.66,3063.23,3357.72,3065.17,3359.42Z" transform="translate(-2856.64 -3237.34)"/><path class="cls-52" d="M3052.9,3419.2l.18,3.82a100.92,100.92,0,0,0-.87,10.81c.08,3.8-1.17,5.58-5.09,5C3047.83,3431.9,3047.91,3424.83,3052.9,3419.2Z" transform="translate(-2856.64 -3237.34)"/><path class="cls-53" d="M2950.93,3263.08l-7.69-3.29c.6-.3,1.19-.61,1.78-.92l4,.11C2950,3260.21,2952.53,3260.7,2950.93,3263.08Z" transform="translate(-2856.64 -3237.34)"/><path class="cls-20" d="M3039.92,3518.1c-1.79-.13-4.23.08-3.9-2.89.59-5.2,5.4-3.79,8.48-5,1.29-.51,1.93.07,1.81,1.76C3046,3516,3044,3517.93,3039.92,3518.1Z" transform="translate(-2856.64 -3237.34)"/><path class="cls-20" d="M3100.82,3546.43c-.15,1.69,1.94,3.15-.19,4.5a2.3,2.3,0,0,1-1.83-.15C3098.38,3549,3099.44,3547.82,3100.82,3546.43Z" transform="translate(-2856.64 -3237.34)"/><path class="cls-20" d="M3212.41,3550.8c-.41,1.63-.38,3.63-2.43,3.9-1.76.22-2-1.27-2-2.66,0-1.75.5-3.55,2.31-3.87C3211.92,3547.89,3212.26,3549.52,3212.41,3550.8Z" transform="translate(-2856.64 -3237.34)"/><path class="cls-20" d="M3112.48,3554.88c-1.31-.23-2.37-.79-2.34-2.18,0-1.89.56-3.84,2.49-4.45,1.1-.36,2.07.8,2.22,2.13A4.31,4.31,0,0,1,3112.48,3554.88Z" transform="translate(-2856.64 -3237.34)"/><path class="cls-54" d="M3161.57,3550.81c-.49,1.72-.54,3.71-2.61,3.88s-2.31-1.4-2.16-3,.75-3.41,2.7-3.46C3161,3548.19,3161.54,3549.56,3161.57,3550.81Z" transform="translate(-2856.64 -3237.34)"/><path class="cls-20" d="M3183.92,3549.51c.14,1.13-.57,1.44-1.45,1.35s-2.19.46-2.17-1a2,2,0,0,1,2-1.77C3183.17,3548,3183.63,3548.73,3183.92,3549.51Z" transform="translate(-2856.64 -3237.34)"/><path class="cls-55" d="M3245,3349.87c-36.55,13.25-73.66,23.78-113,24.42-13.37.22-24.29-6-35.46-11.84a2.89,2.89,0,0,1-1.35-1.37c-1-2.7,5.83-12.06,8.78-12.07,12.83,0,25.66-.07,38.49,0,23.81.12,47.18-2.21,69.24-12.06,4.38-2,8.62-4.24,12.92-6.37l2.12.62c5.67,4.49,12.21,8,16.36,14.23C3244,3346.8,3245.24,3348,3245,3349.87Z" transform="translate(-2856.64 -3237.34)"/><path class="cls-37" d="M2950.93,3263.08c.39-1.83-2.13-2.33-1.88-4.1l3.93.19c4.32,1.6,9,1.68,13.44,2.57,5,1,9.79,2.76,14.88,3.18,9.76,2.21,18.66,6.55,27.42,11.22.71.38,1.47.7,2.21,1l1.93,1.43c2.3,2.62,4.83,5.06,6.13,8.4,2.46,6.25,7.77,10.54,11.08,16.26,4.49,7.75,10.06,14.85,14.16,22.85.84,1.65,2.75,3.69,1.08,5.37-1.46,1.46-3.39-.32-5-1.09-11.45-5.64-22.44-12.23-34.55-16.48a11.71,11.71,0,0,1-4.79-3.48,445.28,445.28,0,0,0-44.07-43.13c-1.6-2-3.4-3.69-6-4.25Z" transform="translate(-2856.64 -3237.34)"/><path class="cls-48" d="M3214.8,3325.84c-7.45,1.19-14,5.07-21.11,7.21-18.79,5.62-38.1,6.93-57.54,7.23-9.44.15-18.89,0-28.75,0,2.65-9.22,9.65-16.56,11.41-26.09,14.27,0,28.56-.64,42.79,0,15,.66,29.69,4.08,44.28,7.65C3209.1,3322.65,3211.9,3324.34,3214.8,3325.84Z" transform="translate(-2856.64 -3237.34)"/><path class="cls-56" d="M3068.8,3329.85c-.8-.78-.69-4-2.88-1-1.44,2-3,3.91-4.74,6.23-8.84-15.24-19.08-29.39-27.26-44.83,4.3.34,7.39,3.44,11.12,5.07,7.23,3.17,13.95,7.51,21.16,10.74,5.32,2.39,7,6,4.62,10.86C3068.69,3321.17,3069.25,3325.51,3068.8,3329.85Z" transform="translate(-2856.64 -3237.34)"/><path class="cls-57" d="M3089,3346.45a14.17,14.17,0,0,1-.17,3c-1.38,6.52-3.32,7.55-9.82,5.93-2-.52-4-1.71-6.23-1.35-5.1.79-6.09-1.85-5.77-6.35s1.22-8.76,5.33-11.15c4.56-2.65,9.4-1.4,13.84.58C3089.83,3338.68,3089,3342.31,3089,3346.45Z" transform="translate(-2856.64 -3237.34)"/><path class="cls-58" d="M3093.05,3325.07c-.23,1.08-.48,2.55-.84,4-1.61,6.4-1.78,6.37-7.86,4.72a58.17,58.17,0,0,0-8.77-1.33c-3.72-.42-5-2.46-4.65-6s.66-7.62,5-8.71c5.33-1.35,10.44,0,15.39,2.29C3093.72,3321.08,3092.73,3323,3093.05,3325.07Z" transform="translate(-2856.64 -3237.34)"/><path class="cls-59" d="M3107.65,3316.28c-3.28,10.15-7.52,19.78-15.2,27.49a7.77,7.77,0,0,1,.44-8.43c2.36-3.47,2.29-7.47,2.42-11.49C3095.55,3316.22,3100.23,3313.44,3107.65,3316.28Z" transform="translate(-2856.64 -3237.34)"/><path class="cls-60" d="M3092.79,3317c-5-1.78-9.75-3.27-14.87-2.89-1.59.12-3.91.89-3.76-2.31.12-2.41,0-5.06,3-5.52,5.18-.78,10.25.18,15.24,1.69,1.86.56,1.63,1.91,1.47,3.18C3093.65,3312.91,3093.22,3314.68,3092.79,3317Z" transform="translate(-2856.64 -3237.34)"/><path class="cls-61" d="M3092.69,3304.79c-3.1-.57-5.47-1.18-7.88-1.39s-4.89-.05-7.67-.05c1.86-3.79,4.47-5.85,8.57-5.56C3089.55,3298.05,3091.42,3300.48,3092.69,3304.79Z" transform="translate(-2856.64 -3237.34)"/><path class="cls-62" d="M3019,3287c-2.36-2.56-5.07-4.87-6.12-8.39l4.19,2C3016.93,3283,3020.78,3284.14,3019,3287Z" transform="translate(-2856.64 -3237.34)"/><path class="cls-53" d="M2981.3,3264.92c-6.65.67-12.72-1.86-19-3.38a36.59,36.59,0,0,0-5.37-.53c-1.54-.15-3.48.57-4-1.84A79.73,79.73,0,0,1,2981.3,3264.92Z" transform="translate(-2856.64 -3237.34)"/><path class="cls-20" d="M3267.82,3518.1c-2,0-3.7-.34-3.73-2.86,0-2.91,3.85-5.16,8.5-5,1.53,0,1.72.5,1.65,2C3274.05,3516.51,3271.57,3517.91,3267.82,3518.1Z" transform="translate(-2856.64 -3237.34)"/><path class="cls-20" d="M3266.66,3550.2c-.72,1.06-1.77.69-2.7.63s-1.23-.65-.86-1.37c.45-.91,1.23-1.67,2.37-1.25A2,2,0,0,1,3266.66,3550.2Z" transform="translate(-2856.64 -3237.34)"/><path class="cls-20" d="M3150.86,3510.84c0-6,3.52-10.25,8.46-10.06,1.17,0,2.45.07,3.18,1,1.51,2-3,13.46-5.43,14.08C3153,3516.94,3150.87,3515.2,3150.86,3510.84Z" transform="translate(-2856.64 -3237.34)"/><path class="cls-20" d="M3203.33,3505.23c1-3.59,2.94-5,5.6-5.29s5.58-.13,5.7,3.2c.13,3.74-3.18,1.69-4.92,2C3207.81,3505.51,3205.78,3505.23,3203.33,3505.23Z" transform="translate(-2856.64 -3237.34)"/><path class="cls-20" d="M3254.71,3552a2.84,2.84,0,0,1-2.58,2.7c-1.58.09-2.28-1.24-2-2.69.29-1.72.69-3.82,2.9-3.79C3254.34,3548.28,3255.05,3549.7,3254.71,3552Z" transform="translate(-2856.64 -3237.34)"/><path class="cls-53" d="M2950.93,3263.06c3.32-.44,5.31,1,6,4.25Z" transform="translate(-2856.64 -3237.34)"/><path class="cls-46" d="M3030.93,3371.13l0-3.89c1.55.42,3.82.52,3.65,2.53C3034.47,3371.47,3032.51,3371.55,3030.93,3371.13Z" transform="translate(-2856.64 -3237.34)"/><path class="cls-20" d="M3231.27,3549.62c-.72,1.06-1.77.7-2.7.63s-1.23-.64-.86-1.36c.46-.92,1.23-1.67,2.37-1.26A1.94,1.94,0,0,1,3231.27,3549.62Z" transform="translate(-2856.64 -3237.34)"/><path class="cls-20" d="M3199.85,3554.26c-.71,1.06-1.77.7-2.7.63s-1.22-.64-.86-1.36c.46-.91,1.23-1.67,2.38-1.25A1.93,1.93,0,0,1,3199.85,3554.26Z" transform="translate(-2856.64 -3237.34)"/></svg>