<?xml version="1.0" encoding="utf-8"?>
<!-- Generator: Adobe Illustrator 23.0.2, SVG Export Plug-In . SVG Version: 6.00 Build 0)  -->
<svg version="1.1" id="Layer_1" xmlns="http://www.w3.org/2000/svg" xmlns:xlink="http://www.w3.org/1999/xlink" x="0px" y="0px"
	 viewBox="0 0 1000.18 902.66" style="enable-background:new 0 0 1000.18 902.66;" xml:space="preserve">
<style type="text/css">
	.st0{fill:#008245;}
	.st1{fill:#00A4E2;}
</style>
<title>experience-3</title>
<path class="st0" d="M1000.02,704.38c-1.35-0.39-0.89-1.56-1-2.46c-2.52-22.37-9.38-44.04-20.19-63.79
	c-54.31-99.08-187.58-126.61-277.65-57.41c-75.91,58.36-93.5,161.17-41,239.84c42.89,64.24,124.91,96.21,200.21,76.15
	c72.18-19.24,118.24-65.38,136.24-138.6c1.36-5.55,1.03-11.42,3.46-16.73L1000.02,704.38z M951.39,663c2.9-0.72,5.84-1.24,8.81-1.58
	c1.63-0.22,3.66-0.36,4.4,1.47s-0.88,3-2.18,4.06c-3.95,3.05-8.25,5.62-12.8,7.68c-28,13.54-56.67,25.37-86.88,33.1
	c-1.76,0.45-3.59,0.65-4.98,0.92c-2-0.15-4,0.58-4.74-1.5c-0.68-1.91,0.83-3.08,2.15-4.1c6.62-5.13,14.14-8.69,21.68-12.16
	C901.01,679.76,925.64,669.89,951.39,663z M930.66,617.49c1.41-0.76,3.06-1.54,4.59,0s0.31,3.27-0.57,4.44
	c-2.72,3.78-5.67,7.39-8.83,10.8c-20.49,21.4-42.92,40.86-67,58.13c-3.35,2.46-6.76,4.86-11.22,5.95c-2.81-0.46-3.13-2.12-1.82-4.54
	c2.89-5.34,7.09-9.67,11.25-13.93c19.44-20.1,40.63-38.43,63.33-54.77C923.69,621.34,927.12,619.31,930.66,617.49z M888.22,585.3
	c0.88-1.08,2.41-1.39,3.64-0.72c1.23,0.67,1.32,1.86,1.17,4.29c-0.55,1.7-1.26,4.62-2.4,7.36c-12.27,29.49-27.69,57.57-46,83.74
	c-1.89,2.53-3.99,4.9-6.26,7.09c-0.76,0.79-1.86,1.6-3.12,1c-1.28-0.59-1.95-2.01-1.58-3.37c0.43-2.62,1.1-5.19,2-7.69
	c12.14-30.08,27.76-58.63,46.55-85.07C884.04,589.56,886.05,587.34,888.22,585.3z M833.27,576.59c0.7-2.21,1.61-4.36,2.71-6.4
	c0.66-1.36,1.65-2.75,3.38-2.46s2.4,2,2.47,3.39c0.26,4.17,0.11,8.33,0.11,12.48c-1.79,30.39-5.35,60.56-13.69,90
	c-0.86,2.67-1.92,5.27-3.16,7.78c-0.54,1.22-1.42,2.39-3,2.29c-1.91-0.12-2.32-1.82-2.6-3.22c-0.41-1.95-0.6-3.94-0.58-5.93
	C819.53,641.27,824.65,608.67,833.27,576.59z M781.75,573.51c0.1-1.62,0.23-3.55,2.23-4.06c2.34-0.6,3.27,1.36,4,2.94
	c1.51,2.96,2.8,6.03,3.87,9.17c9.26,29.17,15.6,59.19,18.93,89.62c0.27,3.33,0.27,6.67,0,10c0.04,1.39-0.83,2.65-2.15,3.1
	c-1.54,0.43-2.51-0.73-3.28-1.79c-1.94-2.91-3.42-6.09-4.39-9.45c-9.84-29.87-16.28-60.74-19.21-92.05
	C781.75,578.5,781.64,575.99,781.75,573.51z M732.86,589.17c1.41-1.06,2.62-0.21,3.58,0.6c1.82,1.45,3.49,3.07,5,4.84
	c20.99,26.02,38.9,54.38,53.37,84.52c0.93,2.13,1.66,4.33,2.2,6.59c0.46,1.13,0.13,2.42-0.82,3.19c-1.14,0.79-2.7,0.64-3.66-0.37
	c-1.47-1.07-2.85-2.27-4.12-3.58c-22.03-26.49-40.52-55.74-55-87c-0.63-1.56-1.15-3.16-1.55-4.79
	C731.64,591.08,731.79,589.98,732.86,589.17z M691.37,624.88c0.81-0.89,2.07-1.22,3.21-0.82c2.76,0.67,5.37,1.82,7.73,3.4
	c28.71,17.54,55.32,38.3,79.31,61.89c1.47,1.59,2.81,3.29,4,5.1c0.79,0.93,0.89,2.26,0.26,3.3c-0.79,1.04-2.04,0.97-4.45,0.52
	c-1.93-0.79-3.8-1.69-5.63-2.69c-28.59-17.09-55.06-37.51-78.85-60.82c-1.92-2.07-3.69-4.28-5.29-6.61
	C690.84,627.24,690.72,625.91,691.37,624.88z M665.22,672.13c0.87-3.06,4-1.17,5.78-1.91c11.08,1.24,21.47,4.12,31.84,7.12
	c22,6.36,43.71,13.67,64.64,23.07c3.28,1.59,6.47,3.37,9.53,5.35c1.24,0.75,2.73,1.76,2.25,3.51c-0.55,2-2.47,2.1-4.12,2
	c-5.8-0.38-11.56-1.34-17.17-2.87c-27.44-6.6-54.24-15.64-80.08-27c-3.03-1.36-5.96-2.93-8.77-4.69
	C667.38,675.63,664.56,674.61,665.22,672.13z M659.78,727.61c-1.43-0.49-3.07-0.94-2.94-2.83c0.11-1.51,1.5-2.06,2.78-2.53
	c7.13-2.6,14.61-3.17,22.06-3.82c14.6-1.28,29.23-1.87,43.88-1.96c14.48,0,29,0.14,43.34,2.09c2.91,0.4,7.65,0.07,7.93,3.57
	c0.3,3.78-4.41,3.73-7.29,4.38c-12.72,2.89-25.71,3.35-38.67,4c-20.44,1.13-40.93,0.77-61.31-1.06
	C666.24,729.22,662.96,728.6,659.78,727.61z M679.4,777.92c-2.43,0.58-4.89,1-7.37,1.25c-1.8,0.2-4,0.33-4.75-1.74s1-3.08,2.37-4
	c3.13-2.19,6.41-4.16,9.81-5.9c28.43-13.75,58.14-24.65,88.72-32.54c2.29-0.52,4.62-0.77,6.66-1.12c2,0.21,4.33-0.55,5,1.68
	s-1.42,3.21-2.8,4.28c-4.24,3.28-9.06,5.57-13.88,7.82C736.16,760.27,708.37,770.73,679.4,777.92z M700.79,823.36
	c-1.59,0.83-3.46,1.87-5,0.13s-0.08-3.52,0.92-4.88c2.04-2.84,4.27-5.53,6.69-8.05c20.44-20.77,42.69-39.67,66.49-56.48
	c3.99-2.99,8.31-5.52,12.87-7.55c2.02-0.86,4.33-1.28,4.67,1.61c-0.33,1.98-1.24,3.81-2.62,5.26
	c-8.45,10.59-18.55,19.53-28.63,28.48c-14.81,13.16-30.15,25.67-46.71,36.6C706.67,820.26,703.77,821.89,700.79,823.36z
	 M743.81,855.01c-1.38,1.55-3.06,3.62-5.47,2.11c-2.17-1.37-1.06-3.55-0.51-5.44c2.43-8.34,6.33-16,10.26-23.72
	c11.45-22.33,23.89-44.08,38.82-64.31c2.14-2.75,4.48-5.35,7-7.76c0.85-0.86,2-1.87,3.52-0.79c1.17,0.72,1.7,2.15,1.29,3.46
	c-1.68,7.88-5.27,15-8.78,22.15c-10.88,22.42-23.55,43.92-37.89,64.3C749.48,848.48,746.73,851.82,743.81,855.01z M812.91,778.48
	c-2.43,28.36-7,56.36-14.82,83.77c-0.95,3.18-2.12,6.28-3.49,9.3c-0.77,1.76-1.75,4.05-4.22,3.38c-2-0.54-2.32-2.65-2.35-4.55
	c-0.07-2.95-0.05-5.93-0.05-8.92c2.34-31.72,7.12-63,16.29-93.56c0.58-1.91,1.33-3.75,2.25-5.52c0.74-1.41,1.45-3.25,3.55-3
	c2.33,0.32,2.77,2.44,2.84,4.15C813.22,768.5,813.22,773.5,812.91,778.48z M814.97,729.2c-3.8-0.22-7.07-3.61-6.87-7.13
	c0.44-3.76,3.59-6.62,7.38-6.68c3.79,0.26,6.73,3.39,6.76,7.19C821.98,726.37,818.77,729.29,814.97,729.2z M848.16,871.08
	c-0.12,1.51-0.52,3.09-2.36,3.35c-1.57,0.22-2.37-1-3.08-2.15c-2.05-3.43-3.62-7.14-4.66-11c-8.57-28.87-14.19-58.54-16.79-88.54
	c-0.21-3-0.21-6,0-9c0.09-1.79,0.29-3.94,2.47-4.44s3.3,1.39,4,3c1.71,3.78,3.19,7.65,4.45,11.6c8.46,28.89,13.97,58.55,16.45,88.55
	C848.52,864.78,848.41,867.94,848.16,871.08z M897.35,855.87c-1.7,0.99-2.82-0.41-4-1.3c-1.07-0.78-2.05-1.69-2.91-2.7
	c-21.56-27.28-39.6-57.16-53.69-88.95c-0.58-1.48-1.09-3-1.5-4.54c-0.25-1.93,0-3,1.17-3.7c1.04-0.62,2.38-0.45,3.23,0.42
	c1.71,1.32,3.29,2.8,4.72,4.41c20.79,26.18,38.22,54.87,51.88,85.38c1,2.1,1.44,4.41,2.23,6.59
	C899.12,853.25,899.05,854.88,897.35,855.87z M936.71,821.6c-2.11-0.53-4.13-1.37-6-2.48c-29.24-18.29-56.16-40.06-80.16-64.82
	c-2-2.1-5.88-4.91-3.77-7.79c2.48-3.38,6.19-0.13,8.81,1.39c20.4,11.83,38.57,26.68,56.44,41.91c8.43,7.06,16.38,14.68,23.79,22.8
	c1.8,1.96,3.54,4.01,4.27,6.49C940.09,821.69,938.45,822.1,936.71,821.6z M966.96,774.29c-0.61,1.92-2.49,2.15-4.14,1.87
	c-5.41-0.9-10.89-1.61-16.17-3c-27.48-7.45-54.34-16.67-80.18-28.69c-3.31-1.56-6.52-3.32-9.62-5.27c-1.6-1-4-2.12-3.33-4.44
	s3.29-1.7,5.36-1.92c13.63,1.8,26.77,6,39.91,10.22c18.88,5.89,37.35,13.01,55.3,21.32c3.81,1.67,7.42,3.79,10.74,6.3
	C965.99,771.6,967.5,772.57,966.96,774.29z M973.5,724.19c-6,2-12.35,2.58-18.64,3.09c-12.92,1.1-25.88,1.35-38.85,1.28
	c-17.44-0.22-34.92,0-52.17-3.15c-2.89-0.53-7.64-0.36-7.52-4c0.12-3.39,4.88-3.35,7.82-3.91c12.27-2.35,24.75-2.84,37.2-3
	c21.93-0.32,43.89-0.66,65.66,2.81c2.27,0.44,4.51,1.04,6.7,1.79c1.3,0.39,2.68,1,2.6,2.61S974.73,723.79,973.5,724.19z"/>
<g>
	<path class="st1" d="M811.41,299.4c-20.45-70.59-57-131.56-109.67-182.89c-31.15-30.45-67-55.68-106.18-74.72
		C533.75,11.79,468.51-2.05,399.84,0.25C359.86,1.47,320.28,8.6,282.38,21.4c-76.03,25.73-139.23,69.73-189.6,132
		C39.46,219.3,9.45,294.85,2.31,379.3c-3.71,43.79-0.89,87.31,9.95,129.93c31.58,124.34,104.61,216.38,219,274.18
		c83.3,42.09,171.74,52.43,263.36,34.94c33.19-6.46,65.44-17.06,96-31.54c2.8-1.34,4.17-2.58,3.17-6
		c-4.78-17.05-6.89-34.54-7.7-53.18c-2.62,1.4-4.62,2.51-6.68,3.63c-75.88,38.69-155.74,49.97-239.06,32.75
		c-78.17-16.17-144.29-54.59-196.17-115.23C66.9,558.45,40.09,453.85,63.8,337.57C81.05,253,125.22,183.7,193.46,130.89
		c85.1-65.86,181.59-89.18,287.35-69.95c83.85,15.25,153.89,56.36,208,122.1c75.16,91.31,99.12,195.74,74.4,311.31
		c-1.1,5.12,0.77,4.85,4.3,4.06c16.07-3.69,32.52-5.46,49-5.27c2.81,0.04,3.25-1.17,3.65-3.41c2.17-12.13,3.93-24.3,5.12-36.57
		C830.47,401.49,825.76,349.3,811.41,299.4z"/>
	<path class="st1" d="M641.04,537.47c-0.34-8.79-3.81-12.65-12.34-14.36c-6.72-1.3-13.63-1.34-20.37-0.13
		c-19.87,3.38-37.44-1.67-52-15.43c-12.34-11.62-18.86-26.8-23-43c-0.82-3.11-0.55-6.41,0.79-9.34c5-10.67,10.25-21.23,18.31-32.37
		l11.82,15l1.57-0.95c0.42-3.82,1.5-7.54,3.18-11c1.41-2.7,0.89-4.28-1.3-6.36c-12.86-12.34-26.46-23.89-40.72-34.58
		c-60.76-44.98-128.08-70.66-204.53-69.59c-4.32,0.06-6.58,0.85-8.14,5.51c-5.06,14.98-15.64,25-31,28.26
		c-7.62,1.56-10.48,5.72-12.48,12c-1,2.99-1.24,6.64-4,8.41c-7.42,4.76-8.77,11.55-7.77,19.55c0.49,3.91,1,8.5-4,10.2
		s-6.61-2.82-8.52-5.91c-6.31-10.2-14.6-15.48-27.12-12.9c-7.31,1.47-14.89,1.64-22.24,3c-8.55,1.59-12.43,6.63-11,14.28
		c1.6,8.54,5.39,15.62,14.39,18.83c6.34,2.22,11.94,6.15,16.17,11.36c5.54,6.86,12.08,12.86,18.54,18.86
		c4.03,3.75,7.89,7.69,10.74,12.45c2.64,4.42,6.69,6.47,11.5,7c10.75,1.17,21.5,2.33,32.36,2.33c11.69-0.11,23.3,1.92,34.25,6
		c19.42,7.34,34.07,21.13,48,35.8c2.84,3.11,4.83,6.9,5.77,11c1.17,4.58,4.06,7.13,8.49,8.13c17.51,4,33.41,13.17,51.35,16
		c6.16,0.97,8.74,5.68,7.16,11.57c-7.39,27.53-19.7,52.27-41.7,71.27c-13.01,11.22-26.85,21.34-40.55,31.65
		c-6.17,4.64-10.87,10.19-11.79,18.33c-0.33,3.23-1.99,6.24-5.33,7.32c-16.17,5.22-25.78,19.67-39.68,28.13
		c-4.25,2.58-3.5,6.92,0.93,9.7c2.55,1.56,5.3,2.78,8.16,3.65c35.85,11.26,72.44,16.95,110.13,15.46
		c53.7-2.12,103.83-16.42,150.83-42.42c8.68-4.81,14.84-10.08,14.42-20.63c0.03-0.34,0.09-0.68,0.2-1
		c7.73-39.59,25.81-76.42,52.42-106.73c1.03-1.18,2.53-2.14,1.77-4.27C641.21,557.81,641.42,547.62,641.04,537.47z"/>
	<path class="st1" d="M741.47,370.95c-0.3-3.13-1.81-5.74-5.14-6.66s-5.33,0.89-7.33,3.08c-1.26,1.54-2.62,3.01-4.06,4.39
		c-7.21,6.28-9.89,5.73-14.29-2.72c-2.22-4.26-3.78-8.97-7.31-12.41c-2.21-2.18-4.47-5.01-8.06-4.18s-3.52,4.4-4.24,7.24
		c-0.15,0.65-0.36,1.27-0.63,1.88c-2.56,5.56-9.31,6.33-12.79,1.33c-2.37-3.41-4.33-7.1-6.62-10.57
		c-7.75-11.72-15.86-13.78-27.94-6.52c-7.41,4.45-14.35,9.68-21.5,14.55c-7.85,5.33-15.58,10.84-24.58,14.19
		c-6.63,2.47-12.83,1.37-18.06-3.41s-5.24-10.35-3.07-16.44c0.68-1.88,1.21-3.81,1.77-5.72c2.66-9.24,5.37-11.48,15-12.4
		c1.35-0.13,2.7-0.11,4-0.35c7.69-1.4,10.82-6.08,9-13.69c-0.62-2.59-1.75-5.03-2.43-7.59c-0.76-2.81-0.52-5.57,2.73-6.57
		c4.1-1.22,8.06-3.23,12.53-2.93c11.05,0.74,20.21-3.45,27.79-11.17c4.89-4.99,9.38-10.37,14.09-15.53
		c5.61-6.13,9.83-6.61,16.52-1.79c4.86,3.5,9.48,7.28,14.48,10.65c6.55,4.45,12.8,3.93,18.71-1.14c4.75-4.08,5.05-7.72,1.12-15.72
		c-18.62-38.11-43.15-71.85-74.5-100.53c-23.44-21.32-49.73-39.27-78.13-53.32c-8.53-4.3-11.76-3-15.06,6
		c-2.14,5.59-4.7,11.02-7.65,16.23c-4.31,7.88-8.75,15.69-11.05,24.48c-0.64,2.48-2.42,4.51-4.8,5.47
		c-17.11,7.32-32.84,17.57-50.61,23.57c-12.35,4.07-22.61,12.81-28.58,24.36c-5.4,10.11-11.86,11.73-21.86,6.11
		c-15.62-8.81-21.94-23.43-24.83-40.1c-0.62-3.53,1.06-6.38,4.06-8.53c3.94-2.85,4.49-6.52,1.68-10.4c-3.1-4.28-4.77-9.1-6.1-14.1
		c-3.8-13.83-10.07-26.86-18.51-38.45c-5.78-8.15-13.4-11.01-23.09-8.58c-2.42,0.62-4.87,1.07-7.35,1.35
		c-4.9,0.47-9.02-1.22-11.44-5.53c-2.11-3.75-4.95-3.96-8.45-2.9c-4.93,1.52-9.88,2.94-14.79,4.52
		c-13.17,4.23-26.15,8.93-37.74,16.7c-5.08,3.44-8.83,7.73-7.9,14.44c0.36,2.55,0.71,5.18-1.53,6.89c-2.5,1.91-4.85-0.07-6.85-1.3
		c-4.4-2.66-8.93-4.59-14.17-3.38c-6.35,1.49-11.24,5.56-16,9.74c-1.62,1.43-1.89,3.34-1,5.48c0.83,2.26,2.96,3.77,5.37,3.82
		c2.7,0.2,5.27-0.65,7.81-1.42c7.58-2.39,15.79-1.73,22.89,1.83c5,2.39,5.93,6.7,2,10.7c-2.18,2.19-5,3.26-7.75,4.44
		c-7.49,3.19-15.42,5.33-22.63,9.19c-22.22,11.88-25.38,37.61-6.61,54.28c7.47,6.63,15.11,13.08,22.76,19.5
		c5.14,4.3,10.76,7.88,17.34,9.6c9.26,2.41,16.43-3.75,15.32-13.22c-0.44-3.47-1.11-6.9-2-10.28c-2.02-7.82-1.06-16.12,2.7-23.27
		c4.57-9.14,12.58-10.34,19.49-2.68c2.99,3.31,5.29,7.25,7.85,10.94c6.03,8.7,9.89,9.66,19.31,5.11s12.35-3.47,16.29,6.27
		c6.47,15.99,16.29,29.31,30.69,39.07c2,1.22,3.6,3,4.61,5.12c0.51,1.27,1.22,2.71,0.51,3.81c-0.82,1.29-2.48,0.57-3.72,0.39
		c-20.61-2.93-41.46-3.87-62.25-2.81c-6.32,0.3-6.3,0.21-3.46,5.52c0.9,1.4,1.6,2.91,2.11,4.5c0.78,3.34,2.48,4.29,6,4.11
		c16.98-0.78,34-0.06,50.85,2.15c51.51,6.56,98.89,24.55,142.84,51.92c25.26,15.73,48.35,34.25,70.06,54.55
		c1.29,1.22,2.29,3.66,4.86,2.05c3.67-2.29,7.86-3.42,12.17-5.17l-11.05-11.48c1.04-0.39,2.11-0.7,3.2-0.94
		c16.28-2.48,32.61-4.71,48.84-7.48c9.1-1.55,16.41,1.08,22.56,7.56c7.46,7.85,14.86,15.75,22.19,23.7
		c5.68,6.14,12.5,9.1,20.95,8.23c7.2-0.73,13.85-3.48,20.74-5.31c16.33-4.34,16.33-4.42,15.28-21.42
		C742.6,384.87,742.14,377.9,741.47,370.95z M607.52,251.47c6-1.28,9.47,1.2,10.86,8.41c1.69,8.79,5.13,15.77,15,17.52
		c3.07,0.54,3.1,3,2.49,5.52c-1.39,5.65-13.53,16.57-19.38,17.46c-5.47,0.84-9.05-2.63-8.3-8.1c0.27-1.77,0.71-3.55,0.78-3.9
		c0.34-4.61-1.06-7.28-2.37-10c-2.24-4.63-4.88-9.08-6-14.18C599.12,257.49,601.71,252.7,607.52,251.47z M358.44,178.06
		c-0.34,2.49-2.39,4-4.89,4.35c-2.33,0.25-4.66,0.38-7,0.38c-7.09,0.26-8.73,2.55-6.48,9.1c2.88,8.59-1.76,17.89-10.35,20.77
		c-0.24,0.08-0.49,0.16-0.74,0.23c-0.58,0.15-1.16,0.26-1.75,0.35c-3.6-0.45-5.92-2.59-8-5c-3.39-4.12-7.14-7.93-11.21-11.37
		c-4.89-4.05-10.78-6.71-17.06-7.69c-6.25-0.93-6.61-2.31-4.27-8.38c2.11-5.76,5.07-11.18,8.78-16.06
		c4.24-5.32,5.63-12.36,3.75-18.9c-0.56-2.17-1.59-4.58,0.77-6.45s4.67-0.53,7,0.39c5.1,2,10.28,3.82,15.37,5.84
		c7,2.8,12.17,7.49,14.17,15c0.93,3.61,3.53,6.56,7,7.92c3.79,1.71,7.59,3.4,11.33,5.21C356.67,174.62,358.74,175.83,358.44,178.06z
		"/>
	<path class="st1" d="M122.77,400.36c-2.19-1.8-4.43-3.55-6.51-5.46c-8.03-7.36-14.49-16.04-20.77-24.87
		c-1.25-1.76-2.65-3.85-5.12-3.14c-2.23,0.62-3.23,2.7-3.55,5c-0.13,1-0.45,2-0.52,3c-0.94,12.78-2.18,25.54-2.07,38.38
		c0.02,15.99,1.31,31.95,3.88,47.73c5.47,35.93,15.9,70.32,32.47,102.75c23.4,45.83,56.68,83.15,97.68,113.83
		c7.99,5.94,16.39,11.64,24.64,17s10.74,4.31,13.25-5c1.12-4.17,2.08-8.39,2.94-12.63c2.89-14.13,7.25-27.43,15.89-39.43
		c9.72-13.52,6.15-35.53-6.92-46.32c-10.78-8.91-17.92-20-22.36-33c-2.65-7.36-4.61-14.94-5.86-22.66
		c-1.64-11.37,1.69-20.88,9.5-29.21c8.46-9.03,8.16-14.64-1.23-22.64c-5.56-4.76-11.42-9.2-17.36-13.47
		c-18.88-13.53-35.72-30.2-60.52-34c-10.98-1.68-17.3-11.68-22.39-21.38c-7.97-15.16-16.07-30.28-24.07-45.4
		c-1.29-2.41-2.71-5.1-6.06-3.41c-3.14,1.57-1.45,4.15-0.87,6.51c1.75,7.02,4.97,13.38,8.52,19.62c0.82,1.41,1.68,3,2.32,4.41
		s0.94,2.93-0.43,4.13C125.69,402.08,124.16,401.5,122.77,400.36z"/>
	<path class="st1" d="M609.84,469.38c14.49,0.04,26.28-11.67,26.32-26.16c0.04-14.45-11.54-26.35-25.7-26.41
		c-14.74-0.06-26.86,11.63-26.86,25.87c-0.07,14.54,11.56,26.44,26.1,26.7C609.75,469.38,609.79,469.38,609.84,469.38z"/>
	<path class="st1" d="M272.3,332.53L272.3,332.53c14.08-0.14,25.53-11.41,25.89-25.49c0.37-14.44-11.04-26.45-25.48-26.82
		c-14.78-0.08-26.48,11.28-26.62,25.84C246.09,320.57,257.78,332.38,272.3,332.53z"/>
</g>
</svg>
