<?xml version="1.0" encoding="utf-8"?>
<!-- Generator: Adobe Illustrator 23.0.2, SVG Export Plug-In . SVG Version: 6.00 Build 0)  -->
<svg version="1.1" id="Layer_1" xmlns="http://www.w3.org/2000/svg" xmlns:xlink="http://www.w3.org/1999/xlink" x="0px" y="0px"
	 viewBox="0 0 512.19 512.19" style="enable-background:new 0 0 512.19 512.19;" xml:space="preserve">
<style type="text/css">
	.st0{fill:#FFFFFF;}
	.st1{fill:#007F83;}
	.st2{fill:#00504F;}
	.st3{fill:#0D5C5C;}
</style>
<circle class="st0" cx="256.1" cy="256.1" r="256.1"/>
<title>experience-2</title>
<path class="st1" d="M348.21,173.3c9.73-2.87,19.37,0,29,0.7c5.62,0.41,11.16,2.09,17.49,3.36
	c-55.74-51.53-152.83-69.91-235.87-23.1c-76.3,43.01-144.77,162.52-77.81,291.38c-9.31-7.41-15.88-15.32-22.34-23.22
	c-26.53-32.39-44.57-68.95-53.21-109.96c-5.32-24.98-6.94-50.6-4.81-76.05c4.52-54.08,24.03-101.93,58.52-143.55
	c37.35-45.1,84.8-74.6,142.09-86.67c77.57-16.34,148.55-0.26,211.41,48.16c48.56,37.49,79.1,86.86,93.01,146.53
	c5.32,22.45,7.39,45.54,6.16,68.58c-2.59,46.23-15,89.55-40.91,128.3c-12.5,18.74-29.5,33.1-49.56,43.59
	c-5.69,3.05-11.71,5.41-17.96,7.05c-4.39,1-8.69,2.38-12.83,4.14c-5.66-0.21-11.01,1.74-16.62,2.22
	c-17.87,1.54-34.4-2.7-49.98-10.76c-28.58-14.82-49.45-37.13-55.69-69.05c-8.75-44.8,0.06-86.41,31.71-120.82
	c16.86-18.33,39.19-27.73,63.52-32.25c20.46-3.92,41.53-3.32,61.73,1.76c-22.37-19.51-44.51-37.23-72.23-46.33
	C351.08,176.54,348.31,176.42,348.21,173.3z"/>
<path class="st2" d="M348.21,173.3c12.36,5.25,24.99,9.71,36.53,16.96c15,9.43,28.49,20.67,41.9,32.1c0.9,0.76,2.06,1.5,1.96,3.4
	c-14.18-3.1-28.42-5.65-42.92-4.85c-30.84,1.7-59.28,10.18-82.22,31.91c-14.25,13.51-23.85,30.19-29.47,49.08
	c-7.5,25.44-10.32,51.23-3.07,77.12c7.32,26.24,23.87,45.6,46.92,59.59c17.38,10.82,37.69,15.96,58.12,14.71
	c5-0.29,9.78-2.1,14.82-1.34c0.37,0.22,0.49,0.44,0.36,0.65s-0.24,0.32-0.36,0.32c-12.09,2.94-24.51,4.31-36.95,4.06
	c-41.37-1.32-75.86-17.63-102.98-48.63c-23.94-27.38-35.5-59.84-34.91-96.22c1.15-69.55,51.81-126.96,116.84-137.77
	C337.88,173.64,343.04,173.27,348.21,173.3z"/>
<path class="st3" d="M390.8,452.92c0-0.32,0-0.65,0-0.97c3.78-2.42,8.18-3.69,12.67-3.67C399.54,450.81,394.98,451.36,390.8,452.92z
	"/>
</svg>
