<?xml version="1.0" encoding="utf-8"?>
<!-- Generator: Adobe Illustrator 23.0.2, SVG Export Plug-In . SVG Version: 6.00 Build 0)  -->
<svg version="1.1" id="Layer_1" xmlns="http://www.w3.org/2000/svg" xmlns:xlink="http://www.w3.org/1999/xlink" x="0px" y="0px"
	 viewBox="0 0 192 192" style="enable-background:new 0 0 192 192;" xml:space="preserve">
<style type="text/css">
	.st0{fill:#DA251D;}
	.st1{fill:#68B92E;}
</style>
<title>ifam-logo</title>
<circle class="st0" cx="49" cy="26" r="25"/>
<g>
	<path class="st1" d="M62.58,51H33.42c-4.1,0-7.42,3.32-7.42,7.42v29.16c0,4.1,3.32,7.42,7.42,7.42h29.16c4.1,0,7.42-3.32,7.42-7.42
		V58.42C70,54.32,66.68,51,62.58,51z"/>
	<path class="st1" d="M110.58,2H81.42C77.32,2,74,5.32,74,9.42v29.16c0,4.1,3.32,7.42,7.42,7.42h29.16c4.1,0,7.42-3.32,7.42-7.42
		V9.42C118,5.32,114.68,2,110.58,2z"/>
	<path class="st1" d="M158.58,2h-29.16c-4.1,0-7.42,3.32-7.42,7.42v29.16c0,4.1,3.32,7.42,7.42,7.42h29.16
		c4.1,0,7.42-3.32,7.42-7.42V9.42C166,5.32,162.68,2,158.58,2z"/>
	<path class="st1" d="M110.58,51H81.42c-4.1,0-7.42,3.32-7.42,7.42v29.16c0,4.1,3.32,7.42,7.42,7.42h29.16
		c4.1,0,7.42-3.32,7.42-7.42V58.42C118,54.32,114.68,51,110.58,51z"/>
	<path class="st1" d="M62.58,99H33.42c-4.1,0-7.42,3.32-7.42,7.42v29.16c0,4.1,3.32,7.42,7.42,7.42h29.16c4.1,0,7.42-3.32,7.42-7.42
		v-29.16C70,102.32,66.68,99,62.58,99z"/>
	<path class="st1" d="M62.58,147H33.42c-4.1,0-7.42,3.32-7.42,7.42v29.16c0,4.1,3.32,7.42,7.42,7.42h29.16
		c4.1,0,7.42-3.32,7.42-7.42v-29.16C70,150.32,66.68,147,62.58,147z"/>
	<path class="st1" d="M110.58,99H81.42c-4.1,0-7.42,3.32-7.42,7.42v29.16c0,4.1,3.32,7.42,7.42,7.42h29.16
		c4.1,0,7.42-3.32,7.42-7.42v-29.16C118,102.32,114.68,99,110.58,99z"/>
	<path class="st1" d="M110.58,147H81.42c-4.1,0-7.42,3.32-7.42,7.42v29.16c0,4.1,3.32,7.42,7.42,7.42h29.16
		c4.1,0,7.42-3.32,7.42-7.42v-29.16C118,150.32,114.68,147,110.58,147z"/>
	<path class="st1" d="M158.58,99h-29.16c-4.1,0-7.42,3.32-7.42,7.42v29.16c0,4.1,3.32,7.42,7.42,7.42h29.16
		c4.1,0,7.42-3.32,7.42-7.42v-29.16C166,102.32,162.68,99,158.58,99z"/>
</g>
</svg>
