<?xml version="1.0" encoding="utf-8"?>
<!-- Generator: Adobe Illustrator 23.0.2, SVG Export Plug-In . SVG Version: 6.00 Build 0)  -->
<svg version="1.1" id="Layer_1" xmlns="http://www.w3.org/2000/svg" xmlns:xlink="http://www.w3.org/1999/xlink" x="0px" y="0px"
	 viewBox="0 0 5746.2 2454.4" style="enable-background:new 0 0 5746.2 2454.4;" xml:space="preserve">
<style type="text/css">
	.st0{fill:#344A7D;}
	.st1{fill:#5362A8;}
	.st2{fill:#FDFDFE;}
</style>
<g>
	<path class="st0" d="M4320,1490.9c-129.7,333.5-364.6,533.6-722,569c-326.6,32.3-663.2-138.6-830.1-492.3
		c-93.5,75.5-196.1,133.6-312,163c-288.4,73.1-546.9,12.8-771.9-182.2c-30.8-26.7-39.5-30.2-60.4,10
		c-164.1,315.7-507.3,490.1-854.2,437.7c-348.5-52.7-624.3-318.6-691.3-666.7c-90.3-468.8,255.7-927.4,729.8-969.8
		c244.6-21.8,457.9,48.9,639.8,212.1c30.8,27.6,36.9,17.8,53.1-11.7c159.2-290.3,406-447.9,736.2-447
		c334.6,1,582.6,162.3,739.1,459.3c15.1,28.6,21.7,35,51.3,13.3c318.6-233.6,702.9-229,1018.6,9.9c5.5,4.2,11.5,7.8,20.4,13.7
		c105.9-281.5,295.8-471.8,588.9-547.2c225.5-58,439.5-23.1,637.3,98.7c396.2,244.1,509.5,769.9,251.9,1156.8
		C5286.9,1704,4733.9,1823.7,4320,1490.9z M804.8,1665.2c48.2,3.4,96.1-1.5,143.1-8.8c118.5-18.5,225.7-60.6,297.6-164.1
		c109.8-157.9,56.4-350.5-118.4-428.8c-48.6-21.8-100.1-33.9-152.3-44c-39.7-7.7-80.7-12.1-117.2-31.5
		c-29.6-15.8-43.8-40.8-38.7-74.5c5-32.6,28-47.4,57.8-53.8c56-12,104.6,5.8,149.4,37.8c33.1,23.6,64.2,50.4,99,70.8
		c42.8,25.1,84.1,13.8,105.9-23.4c45.5-77.8-53.3-253.4-144.1-255.9c-7-0.2-15.6-0.8-20.8,2.7c-42.1,28.3-85,10.6-127.9,3.9
		c-132.5-20.4-254.2,4-356.5,94.6c-142.8,126.4-139,320.9,6.3,443.7c46.7,39.4,99.6,67,157.9,83.9c49.1,14.2,99,25.7,148.2,39.9
		c34,9.8,64.5,26.5,62.6,67.9c-1.8,41.1-34.5,55.4-68,63.5c-94.4,22.8-174.7-2.6-239.1-75.4c-23.4-26.5-42.8-56.8-68.2-81.1
		c-34.8-33.4-80.2-21.2-91.5,21.6c-28.8,108.1,69.7,271.1,178.4,292.4C713.3,1655.3,759.3,1659.1,804.8,1665.2z M4650.6,1392.7
		c42.2-4.2,84.8-6.3,126.6-12.9c81.8-13,165.1-21.7,240.2-61.2c28.9-15.2,46.3-36.9,41.2-72.5c-5.1-36-26.6-52.2-60.7-54.8
		c-43.1-3.4-66.5-29-77.9-68.2c-18-61.5-20.5-125.4-27.9-188.5c-2.8-24.1,9.6-38.8,35.9-43.3c54-9.2,83.9,6.6,102.7,58.7
		c6,16.6,9.7,34,16.4,50.3c15.6,38,50,45.2,79,16.3c18.2-18.2,25-42,29.4-66.8c11.2-63.8,4.1-127.2-5.2-190.2
		c-7.5-50.6-17.2-101.4-45.3-145.7c-14.7-23.2-33.1-41.8-65-34.3c-29.4,6.9-37.7,29.5-42.1,54.8c-2.1,12.2-1.8,24.7-3.6,37
		c-7.3,47.4-42.6,56.3-82.1,57.9c-40.2,1.6-54.4-20-58-58.6c-3.9-42.3-9.7-84.5-6.1-126.9c3.1-36.9,19.7-62.1,60.5-68.9
		c105.5-17.6,205.2-18.8,279.9,76.6c18.2,23.2,42.6,37.5,74.6,24.6c30.5-12.3,40.8-37.3,42.5-67.3c4.1-72.4-22.6-134.7-63.2-192.6
		c-25.3-36-58-47.5-101.4-37.6c-202.2,46.2-408,66.7-614.5,81.4c-30.9,2.2-59.8,7.9-83.8,28.1c-43.9,37-36.3,92.1,17.7,111.4
		c44,15.8,67,46.9,73.8,88.9c29.9,185,59.4,370,68.3,557.6c2.1,44-11.9,79.8-51.4,103.2c-27.6,16.4-37.9,40.9-31.7,72.2
		c6.5,32.3,24.2,53.6,57.7,61.7C4601.2,1389.2,4625.5,1391.9,4650.6,1392.7z M2381.5,962c0.2,0,0.4,0,0.6,0
		c0-81.4-0.8-162.9,0.5-244.3c0.4-23.4,7.7-48,34-54.6c27.8-7,40.9,15.3,52.4,35.5c13.2,23,24.4,47.1,37.9,69.9
		c23.5,39.7,56.1,63.4,105.1,54c53.4-10.2,71.9-50.5,74.1-96.9c4.3-94.2-24.9-177.5-93.7-244.8c-23.6-23.1-50.8-28.3-82.9-23.7
		c-181.3,25.7-362.7,23.7-544,0.3c-28.1-3.6-53.6-1.4-73.8,19.1c-74.7,75.6-112.9,166.2-104.5,273c2.5,32.6,19.4,60.7,54.5,71.7
		c32.7,10.2,60.4-1.9,81.9-24.4c20.5-21.5,36.2-47.7,54.5-71.4c19.7-25.4,30.7-71.4,70.4-60.6c39.3,10.7,31.8,57.2,30.7,88.1
		c-5.3,153.8-2.2,308.1-17.5,461.5c-4.3,42.9-24.3,69.5-67,85.1c-54.1,19.7-59.3,75.6-14.3,112.2c21.1,17.2,46.4,26.8,72.3,31.7
		c112.2,21.2,225,22.1,337.7,3.2c26.5-4.4,51.6-13.1,73-29.5c46.7-35.9,43.3-96.1-10.2-119.3c-54.3-23.5-71.6-64.3-71.7-117.9
		C2381.4,1107.1,2381.5,1034.5,2381.5,962z M3405.4,677.6c-55,0.2-110.2-0.6-160.5,26.8c-26.4,14.4-43.6,36.1-44.5,67.5
		c-0.9,30.8,21.5,42.2,45.1,52c32.2,13.4,52.5,35,52,72.1c-2.7,193.2-18.7,385.3-45.2,576.6c-5.1,36.7-23.2,67.1-61.5,79.6
		c-33.3,10.9-48.7,32.5-45.6,67.9c3.4,38.9,31.6,49.1,62.5,53c54.4,6.8,109.2,9.8,163.7,16.3c134.8,16.1,272.7,8.7,404.1,52.3
		c32.3,10.7,59.5-2.2,80.1-27.4c59-72.3,93.1-153.7,88.8-248.8c-0.9-19.9-6.1-38.4-15.6-55.7c-11-20.1-27.9-32.1-51.4-31.9
		c-23.3,0.2-32.9,17.1-41.3,35.6c-13.2,28.9-24,59.4-41.3,85.6c-33.7,51.1-110.3,71.8-177.4,50.2c-61.7-19.9-62.2-71.8-58.2-122.2
		c13.2-165.8,28.3-331.5,42.7-497.2c3-34,15.8-63.3,49.2-75.6c34.1-12.6,61.2-26.6,58.7-69.7c-2.6-44.9-36-59-69.5-69.8
		C3564.2,690,3485.5,678.7,3405.4,677.6z"/>
	<path class="st1" d="M469.5,2367.1c-12.9-3.2-27.8-4.4-39.9-10.6c-17.4-9-50.1-15.4-39.5-39.5c12.3-28,31.2,4.4,47.8,7
		c15.5,2.4,31.2,5.6,46.7,5.1c16.3-0.5,32.6-6.8,35.8-25.5c3.5-20.8-13.2-26.6-28.8-31.3c-16.8-5.1-34.3-8.4-50.8-14.2
		c-26.2-9.2-48.7-23.2-47.9-55.6c0.9-33.8,23.3-49.1,52.4-58.1c33.6-10.4,62.5,0.5,89.6,19.1c7.9,5.4,11.7,13.7,6.3,22.9
		c-5.5,9.2-14.1,9.5-22.6,4.5c-22.1-12.9-44.9-20.9-70.6-12c-10.4,3.6-19.3,9.5-20.6,21.5c-1.4,12.9,7.8,19.4,17.9,22.9
		c16.5,5.8,33.7,9.8,50.5,15.1c34,10.8,65.4,26.4,58,69.1C546.3,2352.6,509,2361.7,469.5,2367.1z"/>
	<path class="st1" d="M1059.4,2255.5c0,14.1,1.8,28.5-0.4,42.2c-3.6,22.4,14.6,53.9-17.1,65.2c-50.2,18-105.8,0-125.8-36.6
		c-19.5-35.7-13-68.6,15.6-96c9.6-9.2,24.1-18.5,36.5-18.7c32.7-0.4,63.6,2.8,55.9-46c-1.4-8.6,6.7-16.7,16.7-16.7
		c13.6,0.1,17.4,11.4,17.7,21.9c0.9,28.2,0.3,56.4,0.3,84.6C1059,2255.5,1059.2,2255.5,1059.4,2255.5z M983.1,2328.9
		c23.3-1.1,37.4-14.1,38.5-39.5c1.1-25-12.1-42.4-36.1-44.3c-27.4-2.2-43.4,16.2-43.5,42.5C942,2310.9,954.7,2327.8,983.1,2328.9z"
		/>
	<path class="st1" d="M2735.9,2378.8c-70.4-27.8-102.1-89.3-77.3-153c3.6-9.1,8.4-15.1,18.8-13.9c8.5,1,11.7,7.7,12.1,14.8
		c0.9,17.6,1.1,35.2,1.2,52.8c0.2,24.1,1.4,49,33.8,48.5c30-0.5,29.4-24.4,29.5-46.2c0-15.9-0.1-31.7,0.4-47.5
		c0.4-11.1,3.4-21.9,16.7-22.6c14-0.8,17.6,10.6,17.4,21.4c-0.5,43.9,2.8,88.7-4.3,131.6c-6.6,39.8-39.8,56.2-79.4,53.3
		c-13.3-1-31-5.7-28.9-24.1c2-17,17.6-11.9,29.7-11.6C2715.6,2382.6,2725.8,2380.1,2735.9,2378.8z"/>
	<path class="st1" d="M2413.5,2258.3c0,10.5,0,21.1,0,31.6c0,78.4,0,78.4-76.5,76.6c-41.8-1-75-36.5-74.6-79.7
		c0.5-50.7,34.4-82.1,91.7-74.3c38.6,5.2,22.4-19.1,25.2-33.5c2.6-13.3-1.4-31.8,19.6-29.6c15.5,1.7,14.4,17.4,14.5,29.8
		C2413.6,2205.6,2413.5,2231.9,2413.5,2258.3z M2379.3,2287.6c-4.7-24.6-16.4-44.3-43.8-42.7c-23.4,1.4-38.3,17.4-38.1,41.7
		c0.2,26.6,14.6,42.7,42.3,41.9C2365.1,2327.8,2375.2,2310.3,2379.3,2287.6z"/>
	<path class="st1" d="M3609.3,2214.2c13.6-19.6-10.9-63.1,19.6-62c34.7,1.2,14,42.1,17.6,65.2c3.5,22.3,0.8,45.6,0.8,68.5
		c0,83.9,0,83.9-77.7,80.6c-43.6-1.8-77.1-41.5-73.2-86.5c4.5-50.7,42.6-74.9,103.8-65.9C3603.2,2214.6,3606.4,2214.2,3609.3,2214.2
		z M3613,2285.4c-4.2-23.5-16.6-40.6-40.7-40.5c-26.7,0.1-42.4,18.1-41.1,44c1.2,25.8,17.4,42.1,45,39.4
		C3601.1,2325.9,3610.9,2308.3,3613,2285.4z"/>
	<path class="st1" d="M2611.4,2292.1c0,72.8,0,72.8-73.3,74.4c-41.6,0.9-76.9-34.4-77.7-77.8c-0.8-43.2,32.8-78.4,75.6-78.8
		C2611.4,2209.1,2611.4,2209.1,2611.4,2292.1z M2535.3,2329.6c25.9-1.2,38.7-15.5,38.8-40.6c0.1-26.9-13-45.6-40.9-44.3
		c-24.8,1.2-36.2,19.4-36.1,43.9C2497.2,2313.7,2509.4,2328.2,2535.3,2329.6z"/>
	<path class="st1" d="M4835,2299.4c18,36.6,40.8,34.4,65.1,26.6c10.1-3.3,21-9.3,27.9,3.1c7.1,12.8-4.3,18.9-12.7,24.8
		c-33.3,23.6-84,12.6-107.4-23c-23.9-36.4-15.1-82.7,20.6-107.9c33.3-23.6,80.2-15.8,103.6,17c9.6,13.5,16.2,28.7,11.3,44.7
		c-6.4,21-26,13.5-40.7,14.4C4883.6,2300.4,4864.4,2299.4,4835,2299.4z M4914.6,2268.7c-42.8-35.8-49.4-35.5-77.6,0.4
		C4861.4,2274.6,4884.1,2273.7,4914.6,2268.7z"/>
	<path class="st1" d="M5207.3,2307.7c20.6,28.8,43.6,26,67.9,17c11.3-4.2,22.1-4,25.7,8.7c2.7,9.4-6.5,15.2-13.7,20.4
		c-31.6,22.6-79.5,14.3-104.4-18c-27.8-36.2-20.7-85.5,16.4-112.3c32.9-23.8,80-16.8,103.8,15.7c10.8,14.8,18.5,32,10.7,49.3
		c-7,15.6-24.6,9.4-38,10.9C5255,2301.6,5233.6,2294.7,5207.3,2307.7z M5204.9,2269c28.7,0,51.4,0,77.3,0
		C5247.3,2233,5241,2232.8,5204.9,2269z"/>
	<path class="st1" d="M3743.3,2307.9c17.3,29.2,40.9,25.6,65.2,17.4c10.8-3.6,21.3-6.9,26.4,6.4c3.9,10.1-4.9,15.6-11.8,21
		c-31.9,24.6-83.4,15.1-108-19.9c-25.8-36.8-16.1-86.8,21.7-111.4c34.4-22.4,80.6-12.9,102.8,21.1c9.1,13.9,15.2,29.6,8.8,45
		c-6.7,16.2-24.2,10.3-37.6,11.9C3789.1,2302.1,3765.8,2293.1,3743.3,2307.9z M3818.3,2270.8c-38.5-39.4-51.2-38.7-74.3,0
		C3767.1,2270.8,3789.2,2270.8,3818.3,2270.8z"/>
	<path class="st1" d="M3202.6,2332c11.1,4.1,39.4-28.2,41.8,3c2,27.1-34.4,32.4-58.3,30.7c-38.7-2.8-65.9-24.6-71.9-64.9
		c-6.2-41.8,10.8-73.9,51-87.2c37.4-12.3,69.9-0.3,89.3,35.8c15.6,29,15.5,51.7-27.3,50.1c-10.5-0.4-21.2-1.1-31.6,0.3
		c-12.4,1.7-33.8-7.6-34.6,11.1C3160.1,2331.3,3182.1,2329.3,3202.6,2332z M3232.7,2270.9c-43-39.5-52.6-38.9-79.4,0
		C3178.2,2270.9,3202,2270.9,3232.7,2270.9z"/>
	<path class="st1" d="M1155.9,2307.4c18,31.9,41.9,24.8,65.3,16.8c9.3-3.1,17.5-4.2,22.1,5.8c4.6,9.9-1.5,16.9-9.2,21.8
		c-29.7,19.2-60.3,20.1-89-0.3c-30.5-21.8-41.2-52.3-29.3-88.4c11.8-36,37.3-54.7,75.8-53.2c36.4,1.5,57.9,22.6,69.1,55.7
		c8,23.6-4,31.8-25.9,33.6C1209.5,2301.3,1182.8,2294,1155.9,2307.4z M1233.9,2269.6c-32.6-34.2-56.5-36-92.7,0
		C1177,2269.6,1201,2269.6,1233.9,2269.6z"/>
	<path class="st1" d="M4363.1,2146.5c16.5,8.5,56.1-16.4,56.4,18.9c0.3,28.7-37.1,13.2-57.5,15.2c-20.6,2-37.5,0.4-37.4,29.8
		c0,29.6,16.9,29.9,37.7,29c8.8-0.4,17.6-0.3,26.4,0.4c10.7,0.8,22.4,2.5,22.2,16.5c-0.1,13.1-10.8,19.2-21.7,17.2
		c-53.9-9.5-73.5,12.9-64.4,65.3c2,11.5-3.8,22.8-15,24.4c-16,2.3-21-10.9-21.2-24c-0.6-54.5-2.1-109.1,0.2-163.6
		C4289.9,2146.3,4293,2146.5,4363.1,2146.5z"/>
	<path class="st1" d="M3445,2290.1c0,74.3,0,74.3-71.2,76.2c-41.7,1.1-76.7-33.3-78.1-76.5c-1.4-44.6,34.7-80.9,79.3-79.8
		C3445,2211.8,3445,2211.8,3445,2290.1z M3411.6,2286.7c-3.5-25-15.8-43.4-43.3-42.4c-25.2,1-37.1,20.4-37.2,42.9
		c-0.1,25.7,13.8,43.4,42.4,42C3399.1,2327.8,3409.1,2310.6,3411.6,2286.7z"/>
	<path class="st1" d="M1310.5,2275.7c-3.4-31.4-8-70.6,56.1-66.3c50.4,3.4,77.4,24,76.4,79c-0.5,25,18.5,69.8-17.1,71.4
		c-31.4,1.5-13.8-42.9-17.2-66.7c-3.1-21.6-1.9-46.3-30.2-47.4c-29.2-1.1-27.8,23.6-31.6,45.2c-4.3,24.6,19.8,59.6-20.9,71.8
		C1314.2,2366.2,1310.5,2350.3,1310.5,2275.7z"/>
	<path class="st1" d="M1944.8,2146.5c12.4,0,24.8-0.8,37.1,0.2c16.5,1.3,42.1-7.6,44.7,15.3c3,26.3-23.7,19.3-39.7,20.6
		c-23.2,1.9-22.6,17.9-22.7,34.1c-0.1,38.8,0.1,77.7-0.3,116.5c-0.1,14.4-1.1,31.2-20.7,29.8c-15.1-1.1-16.8-15.7-16.8-28.5
		c-0.1-37.1-0.6-74.2,0-111.2c0.4-22.9-0.1-43-32.1-41c-13.6,0.8-32.3,1-30.8-19.1c1.5-19,19.8-16.1,33.5-16.4
		C1913,2146.3,1928.9,2146.5,1944.8,2146.5z"/>
	<path class="st1" d="M4616,2285.1c1.2,42.6-33.3,81.9-72.8,82.6c-39.6,0.7-77.3-38-77.3-79.3c0-40.2,32.7-76,71.6-78.4
		C4579.6,2207.3,4614.7,2240.9,4616,2285.1z M4543.9,2244.1c-24.1,2.3-38.7,14.5-39.9,39.4c-1.2,25.8,7.1,45.2,36.7,46
		c24.9,0.7,38.9-12.4,40.6-37.5C4583,2265.2,4569.8,2249.6,4543.9,2244.1z"/>
	<path class="st1" d="M2144.3,2367.6c-40.2-0.3-74.2-38-73.4-81.3c0.8-44.9,34.3-78,77.1-76.3c38.2,1.5,71.7,37.4,72.3,77.5
		C2220.9,2328.9,2184,2367.8,2144.3,2367.6z M2184,2287.1c-2.1-25-14.1-43.6-41.7-42.1c-23.8,1.3-36.9,17.7-36.9,42.4
		c0,27.3,13,42.8,41.2,42.1C2172.9,2328.8,2181.9,2311.4,2184,2287.1z"/>
	<path class="st1" d="M2950.1,2254.4c0-15.9-1.9-32.2,0.5-47.7c3.1-20.2-13.5-55.7,19.4-55.7c27.9,0,14.9,34,16.3,53.1
		c2,28.2,2.8,56.8,0,84.9c-3.4,34.2,10.8,44.4,42.3,40.4c12.2-1.5,24.8-0.7,37.1,0.5c11.5,1.1,20.5,7.1,19.5,20.2
		c-0.7,10.3-9.3,15.9-18.2,16.1c-31.8,0.7-63.7,1.1-95.5-0.6c-18.4-0.9-20.7-16.7-21-31.5c-0.4-26.5-0.1-53.1-0.1-79.7
		C2950.4,2254.4,2950.2,2254.4,2950.1,2254.4z"/>
	<path class="st1" d="M1659.2,2253.8c10.9,15.1,26.1,14.5,38.6,18.6c24.1,7.9,42.6,21.3,40,48.3c-2.8,29.1-25.5,41.7-51.7,44.6
		c-25.6,2.9-48.8-5.8-65.7-26.5c-2.5-3.1-2.5-11-0.3-14.6c5.1-8.6,15-10.3,23.1-6.1c17.8,9.2,35.1,16.9,56.5,4.1
		c-6.5-24.1-30.3-18.6-45.7-25.9c-20.8-9.9-37.2-22.6-32.1-47.9c4.8-23.4,22.4-35.2,45.3-38c24.1-3,47.5,1.7,60.8,23.1
		c9.4,15.1-2,22.7-17.4,21.2C1694.8,2253.1,1680.2,2233.3,1659.2,2253.8z"/>
	<path class="st1" d="M4070.2,2259.2c12.3,4.4,23.6,9,35.2,12.6c23.3,7.2,43.4,18,42.9,46.1c-0.5,27.4-19.4,40.2-43.4,45.9
		c-27.9,6.7-52.3-2-71.7-22.3c-3.4-3.6-3.8-14.4-0.8-18.8c5.4-8,15.2-8,23.7-3.3c17.6,9.7,35.1,15.8,55.8,1.7
		c-9.1-22-32-17.5-47.8-25.1c-20.5-10-37.4-22.8-31.4-48.1c5.4-22.7,22.4-35.5,45.8-37.6c23.8-2.1,46,2,60.5,23.5
		c2.2,3.3,2.1,11-0.3,14.1c-6,7.8-14.9,7.6-23.9,4.7C4099.7,2247.9,4083.2,2231.4,4070.2,2259.2z"/>
	<path class="st1" d="M721.3,2272c7.2-19.3-11.5-57.5,16-57.4c32.6,0.2,15,38.6,17.9,60.1c3.2,23.9-3.9,54.6,33.2,53.7
		c37-0.9,28-32.1,31.2-55.5c2.9-20.7-13-58.4,14.9-58.2c32.4,0.2,15.1,38.6,17.6,60.1c5.3,44.7-6.5,82.6-57.7,90.3
		c-33.6,5-58-13.3-68.6-45.2C720.9,2305.4,722.6,2288.6,721.3,2272z"/>
	<path class="st1" d="M1484.4,2227.2c30.3-16.5,23.7-47.5,34.3-71.8c3-6.8,10.5-8.7,18.1-5.8c7.1,2.7,34,84.3,28.4,89.8
		c-27.5,27-14.9,58.8-9.9,88.6c2.2,13,17.5,27.4-2.9,34.7c-20.5,7.3-33.2-7.4-38.4-26.2C1504.4,2301.1,1528.4,2257.9,1484.4,2227.2z
		"/>
	<path class="st1" d="M644.5,2365.3c-24.1-3.5-32.6-19-35.3-40.5c-3.9-31.3,7.1-62.8-18.4-94.3c-9.1-11.2,18.4-52.3,30.1-79.4
		c0.9-2,13-2.1,13.5-0.7c11,28.6,37.6,66.8,27.8,84.5c-20.9,37.6-16.9,68.4-4.4,103C663.4,2353.3,658.6,2361.4,644.5,2365.3z"/>
	<path class="st1" d="M5053.5,2302.3c12.6-29.1,20.9-50.3,31-70.5c5-10.1,10.3-25.3,26.8-15.9c11.3,6.5,10,17.2,4.4,27.5
		c-0.8,1.5-0.9,3.5-1.8,4.9c-23.3,37.2-20.8,110.3-62.9,109.1c-36.8-1.1-39.5-73.9-60.5-113.3c-6.6-12.5-7.1-25.2,8.3-30.1
		c12.8-4.1,17.9,8,22.3,17.3C5030.9,2251.6,5039.9,2272.4,5053.5,2302.3z"/>
	<path class="st1" d="M4667.6,2287.5c0-5.3,0-10.5,0-15.8c0.1-52,31.8-75.5,81.6-61c7.7,2.3,13.6,6.6,13,13.7
		c-0.5,5.8-5,15-9.4,16.2c-46.9,12.5-48.8,48.7-48.5,87.3c0.2,15.1,2.7,36.1-20.2,34.9c-18-0.9-16.2-19.5-16.4-33.3
		C4667.5,2315.5,4667.6,2301.5,4667.6,2287.5z"/>
	<path class="st1" d="M5367,2283.4c0-7.1-0.9-14.3,0.2-21.2c2.5-16.5-6.3-48.1,9.8-46.2c26.5,3.1,51.1-12.2,75.2-3.2
		c15.3,5.7,14.6,22.3-0.5,27c-44.9,14-52.1,47.2-51.2,87.1c0.3,12.9,5.4,33-14.6,34c-24.5,1.2-17.6-20.9-18.6-35.3
		C5366.2,2311.7,5367,2297.5,5367,2283.4z"/>
	<path class="st1" d="M3901,2284.6c0-7.1-0.1-14.1,0-21.2c0.3-37.2,50-67.8,84.6-51.5c4.1,1.9,8.6,6.6,9.7,10.9
		c2.6,10.1-3.2,16.4-12.8,19.2c-42.8,12.6-47.7,46.3-47.7,83.6c0,14.3,5.9,36.9-18.4,35.6c-18.1-1-15-20.6-15.3-34.4
		C3900.7,2312.8,3901,2298.7,3901,2284.6z"/>
	<path class="st2" d="M804.8,1665.2c-45.5-6.1-91.5-9.9-136.4-18.7c-108.7-21.3-207.1-184.3-178.4-292.4
		c11.4-42.8,56.7-55,91.5-21.6c25.3,24.3,44.8,54.6,68.2,81.1c64.4,72.8,144.8,98.2,239.1,75.4c33.5-8.1,66.2-22.4,68-63.5
		c1.8-41.3-28.7-58.1-62.6-67.9c-49.2-14.1-99.1-25.7-148.2-39.9c-58.3-16.9-111.3-44.5-157.9-83.9
		c-145.3-122.7-149-317.2-6.3-443.7c102.3-90.6,224-115,356.5-94.6c42.9,6.6,85.8,24.3,127.9-3.9c5.2-3.5,13.8-2.9,20.8-2.7
		c90.8,2.5,189.5,178.1,144.1,255.9c-21.7,37.2-63.1,48.5-105.9,23.4c-34.9-20.5-66-47.2-99-70.8c-44.8-32-93.5-49.8-149.4-37.8
		c-29.8,6.4-52.9,21.2-57.8,53.8c-5.1,33.7,9.1,58.7,38.7,74.5c36.5,19.5,77.5,23.9,117.2,31.5c52.2,10.1,103.7,22.2,152.3,44
		c174.8,78.3,228.2,270.9,118.4,428.8c-71.9,103.4-179,145.5-297.6,164.1C900.9,1663.7,853,1668.5,804.8,1665.2z"/>
	<path class="st2" d="M4650.6,1392.7c-25-0.8-49.4-3.5-73.7-9.4c-33.5-8.1-51.2-29.3-57.7-61.7c-6.3-31.3,4-55.8,31.7-72.2
		c39.5-23.4,53.5-59.1,51.4-103.2c-8.9-187.6-38.4-372.6-68.3-557.6c-6.8-42-29.8-73.2-73.8-88.9c-54-19.4-61.6-74.4-17.7-111.4
		c24-20.2,53-25.9,83.8-28.1c206.5-14.6,412.2-35.1,614.5-81.4c43.4-9.9,76.1,1.5,101.4,37.6c40.6,57.8,67.3,120.2,63.2,192.6
		c-1.7,30-12,55-42.5,67.3c-32,12.9-56.4-1.4-74.6-24.6c-74.7-95.5-174.4-94.2-279.9-76.6c-40.8,6.8-57.3,31.9-60.5,68.9
		c-3.6,42.5,2.2,84.6,6.1,126.9c3.6,38.6,17.8,60.2,58,58.6c39.4-1.6,74.8-10.5,82.1-57.9c1.9-12.2,1.5-24.8,3.6-37
		c4.4-25.4,12.7-48,42.1-54.8c32-7.5,50.3,11,65,34.3c28.1,44.3,37.8,95.1,45.3,145.7c9.3,63,16.4,126.4,5.2,190.2
		c-4.4,24.8-11.2,48.6-29.4,66.8c-28.9,28.9-63.4,21.7-79-16.3c-6.7-16.3-10.4-33.7-16.4-50.3c-18.8-52.1-48.7-68-102.7-58.7
		c-26.3,4.5-38.7,19.2-35.9,43.3c7.4,63.1,10,127,27.9,188.5c11.4,39.2,34.8,64.8,77.9,68.2c34,2.7,55.5,18.8,60.7,54.8
		c5.1,35.6-12.2,57.4-41.2,72.5c-75.1,39.4-158.4,48.2-240.2,61.2C4735.3,1386.4,4692.8,1388.6,4650.6,1392.7z"/>
	<path class="st2" d="M2381.5,962c0,72.6-0.1,145.2,0,217.8c0.1,53.6,17.4,94.4,71.7,117.9c53.5,23.1,56.9,83.4,10.2,119.3
		c-21.4,16.4-46.5,25-73,29.5c-112.8,18.9-225.5,18-337.7-3.2c-25.8-4.9-51.1-14.5-72.3-31.7c-45-36.6-39.7-92.5,14.3-112.2
		c42.7-15.6,62.7-42.1,67-85.1c15.4-153.5,12.2-307.7,17.5-461.5c1.1-30.8,8.6-77.4-30.7-88.1c-39.8-10.8-50.8,35.2-70.4,60.6
		c-18.3,23.7-34,49.9-54.5,71.4c-21.5,22.5-49.2,34.6-81.9,24.4c-35.1-10.9-52-39.1-54.5-71.7c-8.3-106.8,29.8-197.4,104.5-273
		c20.2-20.5,45.7-22.7,73.8-19.1c181.3,23.3,362.8,25.4,544-0.3c32.1-4.6,59.3,0.6,82.9,23.7c68.7,67.4,98,150.6,93.7,244.8
		c-2.1,46.4-20.7,86.7-74.1,96.9c-49,9.4-81.6-14.3-105.1-54c-13.5-22.8-24.7-46.9-37.9-69.9c-11.6-20.2-24.6-42.4-52.4-35.5
		c-26.3,6.6-33.7,31.2-34,54.6c-1.3,81.4-0.5,162.9-0.5,244.3C2381.9,962,2381.7,962,2381.5,962z"/>
	<path class="st2" d="M3405.4,677.6c80.1,1.2,158.8,12.4,235,37c33.5,10.8,67,25,69.5,69.8c2.5,43.1-24.6,57.2-58.7,69.7
		c-33.4,12.3-46.3,41.6-49.2,75.6c-14.4,165.7-29.5,331.4-42.7,497.2c-4,50.4-3.5,102.3,58.2,122.2c67.1,21.6,143.7,0.9,177.4-50.2
		c17.3-26.2,28.1-56.8,41.3-85.6c8.4-18.4,17.9-35.4,41.3-35.6c23.4-0.2,40.3,11.8,51.4,31.9c9.5,17.2,14.7,35.7,15.6,55.7
		c4.3,95.1-29.8,176.5-88.8,248.8c-20.6,25.2-47.8,38.2-80.1,27.4c-131.4-43.6-269.2-36.2-404.1-52.3
		c-54.4-6.5-109.3-9.5-163.7-16.3c-30.9-3.9-59.1-14.1-62.5-53c-3.1-35.4,12.3-57,45.6-67.9c38.3-12.5,56.4-43,61.5-79.6
		c26.6-191.2,42.6-383.4,45.2-576.6c0.5-37.1-19.8-58.7-52-72.1c-23.6-9.8-46-21.2-45.1-52c0.9-31.4,18.1-53.1,44.5-67.5
		C3295.1,677,3350.4,677.8,3405.4,677.6z"/>
</g>
</svg>
