<svg id="Layer_1" data-name="Layer 1" xmlns="http://www.w3.org/2000/svg" xmlns:xlink="http://www.w3.org/1999/xlink" viewBox="0 0 5266.67 643.15"><defs><style>.cls-1{fill:#fff;}.cls-2{fill:url(#linear-gradient);}.cls-3{fill:url(#linear-gradient-2);}.cls-4{fill:url(#linear-gradient-3);}.cls-5{fill:url(#linear-gradient-4);}.cls-6{fill:url(#linear-gradient-5);}.cls-7{fill:url(#linear-gradient-6);}.cls-8{fill:url(#linear-gradient-7);}.cls-9{fill:url(#linear-gradient-8);}.cls-10{fill:url(#linear-gradient-9);}.cls-11{fill:url(#linear-gradient-10);}.cls-12{fill:url(#linear-gradient-11);}.cls-13{fill:url(#linear-gradient-12);}.cls-14{fill:url(#linear-gradient-13);}.cls-15{fill:url(#linear-gradient-14);}.cls-16{fill:url(#linear-gradient-15);}.cls-17{fill:url(#linear-gradient-16);}.cls-18{fill:url(#linear-gradient-17);}.cls-19{fill:url(#linear-gradient-18);}.cls-20{fill:url(#linear-gradient-19);}.cls-21{fill:url(#linear-gradient-20);}.cls-22{fill:url(#linear-gradient-21);}.cls-23{fill:url(#linear-gradient-22);}</style><linearGradient id="linear-gradient" x1="8.17" y1="285.12" x2="540.1" y2="285.12" gradientUnits="userSpaceOnUse"><stop offset="0" stop-color="#02598d"/><stop offset="0.25" stop-color="#2577a8"/><stop offset="0.47" stop-color="#4693c2"/><stop offset="0.62" stop-color="#3e92bd"/><stop offset="0.85" stop-color="#298fb1"/><stop offset="1" stop-color="#188ca7"/></linearGradient><linearGradient id="linear-gradient-2" x1="8.17" y1="325" x2="540.1" y2="325" xlink:href="#linear-gradient"/><linearGradient id="linear-gradient-3" x1="8.17" y1="213.78" x2="540.1" y2="213.78" xlink:href="#linear-gradient"/><linearGradient id="linear-gradient-4" x1="547.31" y1="444.5" x2="856.81" y2="444.5" xlink:href="#linear-gradient"/><linearGradient id="linear-gradient-5" x1="555.48" y1="487.8" x2="864.98" y2="487.8" xlink:href="#linear-gradient"/><linearGradient id="linear-gradient-6" x1="1142.29" y1="285.12" x2="1688.13" y2="285.12" xlink:href="#linear-gradient"/><linearGradient id="linear-gradient-7" x1="1142.29" y1="325" x2="1688.13" y2="325" xlink:href="#linear-gradient"/><linearGradient id="linear-gradient-8" x1="1733.49" y1="285.85" x2="2296.89" y2="285.85" xlink:href="#linear-gradient"/><linearGradient id="linear-gradient-9" x1="1733.49" y1="325" x2="2296.89" y2="325" xlink:href="#linear-gradient"/><linearGradient id="linear-gradient-10" x1="1733.49" y1="285.49" x2="2296.89" y2="285.49" xlink:href="#linear-gradient"/><linearGradient id="linear-gradient-11" x1="2350.3" y1="289.51" x2="2911.5" y2="289.51" xlink:href="#linear-gradient"/><linearGradient id="linear-gradient-12" x1="2350.3" y1="330.49" x2="2911.5" y2="330.49" xlink:href="#linear-gradient"/><linearGradient id="linear-gradient-13" x1="2964.79" y1="281.7" x2="3498.93" y2="281.7" xlink:href="#linear-gradient"/><linearGradient id="linear-gradient-14" x1="2972.96" y1="325" x2="3507.09" y2="325" xlink:href="#linear-gradient"/><linearGradient id="linear-gradient-15" x1="3543.68" y1="285.12" x2="4107.81" y2="285.12" xlink:href="#linear-gradient"/><linearGradient id="linear-gradient-16" x1="3543.68" y1="325" x2="4107.81" y2="325" xlink:href="#linear-gradient"/><linearGradient id="linear-gradient-17" x1="3543.68" y1="224.76" x2="4107.81" y2="224.76" xlink:href="#linear-gradient"/><linearGradient id="linear-gradient-18" x1="4161.94" y1="285.12" x2="4732.66" y2="285.12" xlink:href="#linear-gradient"/><linearGradient id="linear-gradient-19" x1="4161.94" y1="325" x2="4732.66" y2="325" xlink:href="#linear-gradient"/><linearGradient id="linear-gradient-20" x1="4161.94" y1="200.25" x2="4732.66" y2="200.25" xlink:href="#linear-gradient"/><linearGradient id="linear-gradient-21" x1="4718.63" y1="281.7" x2="5266.67" y2="281.7" xlink:href="#linear-gradient"/><linearGradient id="linear-gradient-22" x1="4726.8" y1="325" x2="5274.83" y2="325" xlink:href="#linear-gradient"/></defs><title>logo</title><path class="cls-1" d="M2244.58,52.45q-25.24-19.76-69.52-30.73t-112.31-11q-68,0-112.68,11T1880.2,52.45Q1855,72.21,1845.07,99.64t-9.87,61.1v249.5q0,33.66,9.87,61.1t35.13,46.83q25.23,19.4,69.87,30.36t112.68,11q68.05,0,112.31-11t69.52-30.36q25.24-19.38,35.12-46.83t9.87-61.1V160.74q0-33.66-9.87-61.1T2244.58,52.45Zm-34.76,341q0,43.9-31.46,71.34t-117.07,27.44q-85.61,0-116.34-27.44t-30.73-71.34V177.57q0-43.9,30.73-71.35t116.34-27.43q85.61,0,117.07,27.43t31.46,71.35Z" transform="translate(-8.17 -3.42)"/><path class="cls-1" d="M2877.85,21.72H2766.63q-13.9,0-20.12,6.21t-6.22,20.13V381.71a31.64,31.64,0,0,1-11,24.51q-11,9.87-49.75,9.88-38.05,0-49-9.88a31.66,31.66,0,0,1-11-24.51V48.06q0-13.89-6.22-20.13t-20.12-6.21H2478.34q-13.9,0-20.12,6.21T2452,48.06V410.24q0,33.66,9.88,61.1T2497,518.17q25.24,19.4,69.15,30.36t111.94,11q68.05,0,111.95-11t69.15-30.36q25.24-19.38,35.12-46.83t9.88-61.1V48.06q0-13.89-6.22-20.13T2877.85,21.72Zm-51.95,371q0,43.9-30.74,71.34t-116.33,27.44q-85.62,0-116-27.44t-30.36-71.34V87.57h7.31V392.68q0,41,28.91,66.22t110.12,25.24q81.21,0,110.48-25.24t29.27-66.22V87.57h7.32Z" transform="translate(-8.17 -3.42)"/><path class="cls-1" d="M2172.5,111.35q-30-25.25-111.21-25.25T1950.8,111.35q-29.27,25.25-29.26,66.22V393.41q0,41,29.26,66.22t110.49,25.24q81.21,0,111.21-25.24t30-66.22V177.57Q2202.5,136.59,2172.5,111.35ZM2124.21,383.9a31.61,31.61,0,0,1-11,24.51q-11,9.88-50.49,9.88t-50.49-9.88a31.65,31.65,0,0,1-11-24.51V187.08q0-13.89,11-23.78t50.49-9.88q39.51,0,50.49,9.88t11,23.78Z" transform="translate(-8.17 -3.42)"/><path class="cls-1" d="M4072,212,4008.3,45.86q-4.4-12.44-13.54-18.29t-23.05-5.85H3774.89q-14.64,0-23.78,5.85t-13.54,18.29L3673.92,212q-14.65,38.06-21.59,66.59T3645.38,329V522.19q0,13.9,6.22,20.12t20.12,6.22h107.56q13.89,0,20.12-6.22t6.22-20.12V419.75h129.51V522.19q0,13.9,6.95,20.12t21.59,6.22h110.48q13.89,0,20.12-6.22t6.22-20.12V329q0-21.94-6.95-50.48T4072,212Zm-49,270.73h-7.31V356.83H3730.26V482.68h-7.32V326.83a201.16,201.16,0,0,1,3.29-37.68,216,216,0,0,1,9.15-33.29l46.83-120q8-20.48,18.29-34.39t35.12-13.9h71.7q24.15,0,34,13.9T3960,136.59l50.48,119.27a216,216,0,0,1,9.15,33.29,201.16,201.16,0,0,1,3.29,37.68Z" transform="translate(-8.17 -3.42)"/><path class="cls-1" d="M3473.44,265.37h-106.1q-13.9,0-20.12,6.22T3341,291.71V410.24H3240.76V48.06q0-13.89-6.22-20.13t-20.12-6.21H3101q-13.92,0-20.13,6.21t-6.21,20.13V522.19q0,13.9,6.21,20.12t20.13,6.22h372.43q13.89,0,20.12-6.22t6.22-20.12V291.71q0-13.89-6.22-20.12T3473.44,265.37Zm-49.76,217.31H3154.42V87.57h7.32V475.36h254.62V331.22h7.32Z" transform="translate(-8.17 -3.42)"/><path class="cls-1" d="M433.28,121.22q-11-12.42-31.1-19.38t-52.32-7H199.14V331.22H349.86q32.19,0,52.32-6.59T433.28,306a64.56,64.56,0,0,0,15-28.54,153.21,153.21,0,0,0,4-36.22V187.08a158,158,0,0,0-4-36.59A67.37,67.37,0,0,0,433.28,121.22Zm-58.54,112a47.39,47.39,0,0,1-6.58,24.88q-6.59,11-27.81,11H274.5V158.54h65.85q21.21,0,27.81,11a47.38,47.38,0,0,1,6.58,24.87Z" transform="translate(-8.17 -3.42)"/><path class="cls-1" d="M360.11,21.72H136.21q-13.91,0-20.12,6.21t-6.22,20.13V522.19q0,13.9,6.22,20.12t20.12,6.22H249.62q13.89,0,20.12-6.22T276,522.19V400.73h84.15q99.5,0,136.09-39.51t36.59-103.17V164.39q0-63.64-36.59-103.16T360.11,21.72Zm99.51,219.5a164.72,164.72,0,0,1-4.39,39.15,69,69,0,0,1-16.1,30.73q-11.72,12.81-33.29,20.12t-56,7.32H199.14V482.68h-7.32V87.57h158q34.39,0,56,7.68t33.29,20.85a71.82,71.82,0,0,1,16.1,31.47,169.34,169.34,0,0,1,4.39,39.51Z" transform="translate(-8.17 -3.42)"/><path class="cls-1" d="M831.32,347.32H683.52q-13.9,0-20.12,6.22t-6.22,20.12V522.19q0,13.9,6.22,20.12t20.12,6.22h147.8q13.89,0,20.12-6.22t6.22-20.12V373.66q0-13.89-6.22-20.12T831.32,347.32ZM761.08,482.68h-7.32V413.17h7.32Z" transform="translate(-8.17 -3.42)"/><path class="cls-1" d="M1654.47,269.76H1541.06q-13.9,0-20.12,6.22t-6.22,20.12V410.24h-71q-16.83,0-25.24-8.78t-8.41-27.07V199.52q0-18.28,11-27.44t33.66-9.15h152.19q13.89,0,20.12-6.22t6.22-20.12V48.06q0-13.89-6.22-20.13t-20.12-6.21H1424q-91.47,0-135.73,36.58T1244,171V399.27q0,76.1,44.27,112.68T1424,548.53h230.48q13.89,0,20.12-6.22t6.22-20.12V296.1q0-13.89-6.22-20.12T1654.47,269.76Zm-53.41,212.92H1455.45q-40.25,0-65.85-5.12t-40.24-16.47a57.22,57.22,0,0,1-20.13-29.26q-5.48-17.93-5.48-43.54V183.42q0-51.94,23.41-73.9t93.66-22H1567.4v7.31H1440.82q-64.39,0-87.07,20.13t-22.69,68.41V388.29q0,47.58,25.25,67.32t99.14,19.75h138.29V335.61h7.32Z" transform="translate(-8.17 -3.42)"/><path class="cls-1" d="M4003.91,258.78l-50.49-119.26q-8.05-19-16.83-31.83t-29.27-12.81h-71.7q-21.95,0-30.73,12.81a160.33,160.33,0,0,0-16.1,31.1l-46.83,120a228.13,228.13,0,0,0-8.41,31.46,190.44,190.44,0,0,0-3.29,36.59v22.68h285.36V326.83a190.41,190.41,0,0,0-3.3-36.59A228.13,228.13,0,0,0,4003.91,258.78Zm-191,27.81,34.39-111.22q2.91-6.59,6.22-9.51a11.19,11.19,0,0,1,7.68-2.93h18.29a11.19,11.19,0,0,1,7.68,2.93q3.3,2.92,6.22,9.51l34.39,111.22Z" transform="translate(-8.17 -3.42)"/><path class="cls-1" d="M5241.18,21.72H4854.85q-13.92,0-20.13,6.21t-6.22,20.13v88.53q0,13.91,6.22,20.12t20.13,6.22H4962.4V522.19q0,13.9,6.22,20.12t20.12,6.22h118.54q13.89,0,20.12-6.22t6.22-20.12V162.93h107.56q13.89,0,20.12-6.22t6.22-20.12V48.06q0-13.89-6.22-20.13T5241.18,21.72Zm-39.51,73.16h-150v387.8h-7.32V94.88h-150V87.57h307.31Z" transform="translate(-8.17 -3.42)"/><path class="cls-1" d="M4636.81,261q22.66-9.51,31.83-31.1t9.14-52.31V143.91q0-54.15-31.09-88.17t-113-34H4290q-13.9,0-20.12,6.21t-6.22,20.13V522.19q0,13.9,6.22,20.12t20.12,6.22h112.68q13.89,0,20.12-6.22t6.22-20.12V378.78h102.44q15.36,0,21.58,7.68t6.22,23.78v112q0,13.9,6.22,20.12t20.12,6.22H4699q13.91,0,20.13-6.22t6.21-20.12V367.07q0-46.1-24.51-73.9T4636.81,261Zm8.78,221.7h-7.32V384.63q0-35.83-19.75-53.78t-61.46-17.92H4350V482.68h-7.32V87.57H4509.5q42.42,0,62.92,23.78T4592.91,171v50.49q0,33.66-8.78,55.24T4549,306.34h8.05q44.61,0,66.58,20.12t21.95,58.17Z" transform="translate(-8.17 -3.42)"/><path class="cls-1" d="M4570.23,284.39q15.36-21.94,15.36-62.19V171q0-33.64-18.66-54.88T4509.5,94.88H4350V306.34H4509.5Q4554.86,306.34,4570.23,284.39Zm-54.15-71.7q0,14.64-6.58,24.51t-25.61,9.88H4429V153.42h54.88q19,0,25.61,9.88t6.58,24.51Z" transform="translate(-8.17 -3.42)"/><path class="cls-2" d="M439.13,116.1q-11.72-13.17-33.29-20.85t-56-7.68h-158V482.68h7.32V338.54H349.86q34.39,0,56-7.32t33.29-20.12a69,69,0,0,0,16.1-30.73,164.72,164.72,0,0,0,4.39-39.15V187.08a169.34,169.34,0,0,0-4.39-39.51A71.82,71.82,0,0,0,439.13,116.1ZM452.3,241.22a153.21,153.21,0,0,1-4,36.22,64.56,64.56,0,0,1-15,28.54q-11,12.06-31.1,18.65t-52.32,6.59H199.14V94.88H349.86q32.19,0,52.32,7t31.1,19.38a67.37,67.37,0,0,1,15,29.27,158,158,0,0,1,4,36.59Z" transform="translate(-8.17 -3.42)"/><path class="cls-3" d="M502.79,56.1Q482.3,36.35,447.18,25.37t-87.07-11H136.21a48,48,0,0,0-13.53,1.83A28.79,28.79,0,0,0,112.8,21L18.41,100.74a27,27,0,0,0-7.68,11,44.35,44.35,0,0,0-2.56,16.1V601.94q0,17.56,8,25.61t25.61,8.05H155.24a40.5,40.5,0,0,0,13.53-2.19q6.21-2.2,9.15-5.12l95.12-79a27.25,27.25,0,0,0,7.68-11,44.7,44.7,0,0,0,2.56-16.1V487.07q41.72-1.45,70.61-11.34t47.19-25.25l95.12-79a110.82,110.82,0,0,0,34-49.39q9.87-28.89,9.87-64V164.39q0-32.92-8.41-60.73A108.74,108.74,0,0,0,502.79,56.1Zm30,202q0,63.66-36.59,103.17T360.11,400.73H276V522.19q0,13.9-6.22,20.12t-20.12,6.22H136.21q-13.91,0-20.12-6.22t-6.22-20.12V48.06q0-13.89,6.22-20.13t20.12-6.21h223.9q99.5,0,136.09,39.51t36.59,103.16Z" transform="translate(-8.17 -3.42)"/><path class="cls-4" d="M340.35,158.54H274.5V269h65.85q21.21,0,27.81-11a47.39,47.39,0,0,0,6.58-24.88V194.39a47.38,47.38,0,0,0-6.58-24.87Q361.57,158.54,340.35,158.54Z" transform="translate(-8.17 -3.42)"/><rect class="cls-5" x="745.6" y="409.75" width="7.32" height="69.51"/><path class="cls-6" d="M831.32,340H683.52a47.12,47.12,0,0,0-13.9,1.83,28.77,28.77,0,0,0-9.51,4.76L565,426.34A24.43,24.43,0,0,0,558,437a47.39,47.39,0,0,0-2.56,16.46V601.94q0,17.56,8,25.61t25.6,8.05H736.94a40.5,40.5,0,0,0,13.53-2.19q6.21-2.2,9.15-5.12l95.12-79a27.35,27.35,0,0,0,7.68-11,44.7,44.7,0,0,0,2.56-16.1V373.66q0-18.29-8.05-26T831.32,340Zm26.34,182.19q0,13.9-6.22,20.12t-20.12,6.22H683.52q-13.9,0-20.12-6.22t-6.22-20.12V373.66q0-13.89,6.22-20.12t20.12-6.22h147.8q13.89,0,20.12,6.22t6.22,20.12Z" transform="translate(-8.17 -3.42)"/><path class="cls-7" d="M1593.74,475.36H1455.45q-73.9,0-99.14-19.75t-25.25-67.32V183.42q0-48.3,22.69-68.41t87.07-20.13H1567.4V87.57H1440.82q-70.24,0-93.66,22t-23.41,73.9V388.29q0,25.62,5.48,43.54a57.22,57.22,0,0,0,20.13,29.26q14.63,11.36,40.24,16.47t65.85,5.12h145.61V335.61h-7.32Z" transform="translate(-8.17 -3.42)"/><path class="cls-8" d="M1654.47,262.44H1541.06a48.13,48.13,0,0,0-13.54,1.83,28.7,28.7,0,0,0-9.88,4.76l-94.38,79.75-3.3,3.29a13.54,13.54,0,0,0-2.56,3.29V250h95.12a40.56,40.56,0,0,0,13.54-2.19q6.21-2.2,9.15-5.12l95.11-79a27.27,27.27,0,0,0,7.69-11,44.7,44.7,0,0,0,2.56-16.1V48.06q0-17.57-8-25.61t-25.61-8H1424q-47.58,0-83,9.51t-58.17,28.54l-94.39,79.75a125.93,125.93,0,0,0-34.39,49q-11.7,29.28-11.7,69.51V457.07q0,79,45.73,128.78T1329.6,635.6h230.48a40.56,40.56,0,0,0,13.54-2.19q6.21-2.2,9.14-5.12l95.12-79a27.27,27.27,0,0,0,7.69-11,44.7,44.7,0,0,0,2.56-16.1V296.1q0-17.57-8.05-25.61T1654.47,262.44Zm26.34,259.75q0,13.9-6.22,20.12t-20.12,6.22H1424q-91.47,0-135.73-36.58T1244,399.27V171q0-76.09,44.27-112.68T1424,21.72h182.92q13.89,0,20.12,6.21t6.22,20.13v88.53q0,13.91-6.22,20.12t-20.12,6.22H1454.72q-22.7,0-33.66,9.15t-11,27.44V374.39q0,18.3,8.41,27.07t25.24,8.78h71V296.1q0-13.89,6.22-20.12t20.12-6.22h113.41q13.89,0,20.12,6.22t6.22,20.12Z" transform="translate(-8.17 -3.42)"/><path class="cls-9" d="M2113.24,163.3q-11-9.88-50.49-9.88t-50.49,9.88q-11,9.87-11,23.78V383.9a31.65,31.65,0,0,0,11,24.51q11,9.88,50.49,9.88t50.49-9.88a31.61,31.61,0,0,0,11-24.51V187.08Q2124.21,173.19,2113.24,163.3Zm-90.73,242.55c-5.37-2.43-9-5.49-11-9.14a26.85,26.85,0,0,1-2.92-12.81V245.61q8,2.94,11,8.42a26.81,26.81,0,0,1,2.93,12.8Z" transform="translate(-8.17 -3.42)"/><path class="cls-10" d="M2251.89,47.69q-26-20.85-71.7-32.56T2062.75,3.42q-73.17,0-118.9,12.08t-71.34,34l-95.12,79Q1752.51,149,1743,177.93t-9.51,62.56V468.05a225.5,225.5,0,0,0,9.88,66.58q9.87,32.19,35.85,57.07t71.71,39.88q45.72,15,117.43,15,72.45,0,118.54-12.08t71.7-34l94.39-79q24.87-20.48,34.39-49t9.51-62.2V160.74q0-34.4-9.51-63.3T2251.89,47.69Zm37.68,362.55q0,33.66-9.87,61.1t-35.12,46.83q-25.24,19.4-69.52,30.36t-112.31,11q-68,0-112.68-11t-69.87-30.36q-25.25-19.38-35.13-46.83t-9.87-61.1V160.74q0-33.66,9.87-61.1t35.13-47.19q25.23-19.76,69.87-30.73t112.68-11q68.05,0,112.31,11t69.52,30.73q25.24,19.76,35.12,47.19t9.87,61.1Z" transform="translate(-8.17 -3.42)"/><path class="cls-11" d="M2178.36,106.22q-31.47-27.43-117.07-27.43T1945,106.22q-30.73,27.45-30.73,71.35V393.41q0,43.9,30.73,71.34t116.34,27.44q85.61,0,117.07-27.44t31.46-71.34V177.57Q2209.82,133.67,2178.36,106.22Zm24.14,287.19q0,41-30,66.22t-111.21,25.24q-81.22,0-110.49-25.24t-29.26-66.22V177.57q0-41,29.26-66.22T2061.29,86.1q81.21,0,111.21,25.25t30,66.22Z" transform="translate(-8.17 -3.42)"/><path class="cls-12" d="M2818.58,392.68q0,41-29.27,66.22t-110.48,25.24q-81.23,0-110.12-25.24t-28.91-66.22V87.57h-7.31V392.68q0,43.9,30.36,71.34t116,27.44q85.61,0,116.33-27.44t30.74-71.34V87.57h-7.32Z" transform="translate(-8.17 -3.42)"/><path class="cls-13" d="M2877.85,14.4H2766.63a47.12,47.12,0,0,0-13.9,1.83,29,29,0,0,0-9.51,4.75l-95.12,79.76-.74.73a22.06,22.06,0,0,0-6.58,10.24,51.49,51.49,0,0,0-2.2,16.1V402.19q-7.32-2.91-9.51-8.41a32.28,32.28,0,0,1-2.19-12.07V48.06q0-17.57-8.05-25.61t-25.61-8H2478.34a48.06,48.06,0,0,0-13.53,1.83,28.79,28.79,0,0,0-9.88,4.75l-94.39,79.76a27,27,0,0,0-7.68,11,44.35,44.35,0,0,0-2.56,16.1V468.05a225.5,225.5,0,0,0,9.88,66.58q9.87,32.19,35.48,57.07T2467,631.58q45.72,15,116.71,15,72.43,0,117.8-12.08t71-34l95.12-79q24.87-20.48,34.39-49t9.51-62.2V48.06q0-17.57-8-25.61T2877.85,14.4Zm26.34,395.84q0,33.66-9.88,61.1t-35.12,46.83q-25.24,19.4-69.15,30.36t-111.95,11q-68,0-111.94-11T2497,518.17q-25.24-19.38-35.12-46.83t-9.88-61.1V48.06q0-13.89,6.22-20.13t20.12-6.21h114.88q13.89,0,20.12,6.21t6.22,20.13V381.71a31.66,31.66,0,0,0,11,24.51q11,9.87,49,9.88,38.78,0,49.75-9.88a31.64,31.64,0,0,0,11-24.51V48.06q0-13.89,6.22-20.13t20.12-6.21h111.22q13.89,0,20.12,6.21t6.22,20.13Z" transform="translate(-8.17 -3.42)"/><polygon class="cls-14" points="3408.2 471.94 3153.57 471.94 3153.57 84.14 3146.25 84.14 3146.25 479.26 3415.51 479.26 3415.51 327.8 3408.2 327.8 3408.2 471.94"/><path class="cls-15" d="M3473.44,258.05h-106.1a48,48,0,0,0-13.53,1.83,28.53,28.53,0,0,0-9.88,4.76l-94.39,79.75-1.46,1.46V48.06q0-17.57-8-25.61t-25.61-8H3101a48.08,48.08,0,0,0-13.54,1.83,28.88,28.88,0,0,0-9.88,4.75l-94.39,79.76a27.06,27.06,0,0,0-7.68,11,44.56,44.56,0,0,0-2.56,16.1V601.94q0,17.56,8.05,25.61t25.61,8.05h372.43a40.5,40.5,0,0,0,13.53-2.19c4.14-1.47,7.2-3.18,9.15-5.12l95.12-79a27.15,27.15,0,0,0,7.68-11,44.49,44.49,0,0,0,2.56-16.1V291.71q0-17.56-8.05-25.61T3473.44,258.05Zm26.34,264.14q0,13.9-6.22,20.12t-20.12,6.22H3101q-13.92,0-20.13-6.22t-6.21-20.12V48.06q0-13.89,6.21-20.13T3101,21.72h113.41q13.89,0,20.12,6.21t6.22,20.13V410.24H3341V291.71q0-13.89,6.22-20.12t20.12-6.22h106.1q13.89,0,20.12,6.22t6.22,20.12Z" transform="translate(-8.17 -3.42)"/><path class="cls-16" d="M4010.49,255.86,3960,136.59q-8.79-21.21-18.66-35.12t-34-13.9h-71.7q-24.88,0-35.12,13.9t-18.29,34.39l-46.83,120a216,216,0,0,0-9.15,33.29,201.16,201.16,0,0,0-3.29,37.68V482.68h7.32V356.83h285.36V482.68h7.31V326.83a201.16,201.16,0,0,0-3.29-37.68A216,216,0,0,0,4010.49,255.86Zm5.13,93.65H3730.26V326.83a190.44,190.44,0,0,1,3.29-36.59,228.13,228.13,0,0,1,8.41-31.46l46.83-120a160.33,160.33,0,0,1,16.1-31.1q8.78-12.8,30.73-12.81h71.7q20.49,0,29.27,12.81t16.83,31.83l50.49,119.26a228.13,228.13,0,0,1,8.41,31.46,190.41,190.41,0,0,1,3.3,36.59Z" transform="translate(-8.17 -3.42)"/><path class="cls-17" d="M4078.54,209l-63.66-166.1q-5.12-14.62-15.73-21.58t-27.44-7H3774.89A60.4,60.4,0,0,0,3756.6,17a38.46,38.46,0,0,0-13.9,7.68L3649,102.93l-.73.73a60.39,60.39,0,0,0-6.95,8.42,44.47,44.47,0,0,0-5.49,11.34l-62.93,165.36q-15.36,39.51-22.31,68.41t-7,51.59V601.94q0,17.56,8.05,25.61t25.6,8.05h107.56a40.56,40.56,0,0,0,13.54-2.19q6.21-2.2,9.14-5.12l95.12-79a27.27,27.27,0,0,0,7.69-11,44.7,44.7,0,0,0,2.56-16.1V506.83h20.49v95.11q0,16.83,8.78,25.25t27.07,8.41h110.48a40.56,40.56,0,0,0,13.54-2.19q6.21-2.2,9.15-5.12l95.11-79a27.27,27.27,0,0,0,7.69-11,44.7,44.7,0,0,0,2.56-16.1V329q0-22.66-7-51.58T4078.54,209Zm21.95,313.16q0,13.9-6.22,20.12t-20.12,6.22H3963.67q-14.65,0-21.59-6.22t-6.95-20.12V419.75H3805.62V522.19q0,13.9-6.22,20.12t-20.12,6.22H3671.72q-13.91,0-20.12-6.22t-6.22-20.12V329q0-21.94,6.95-50.48T3673.92,212l63.65-166.09q4.39-12.44,13.54-18.29t23.78-5.85h196.82q13.89,0,23.05,5.85t13.54,18.29L4072,212q14.63,38.06,21.58,66.59t6.95,50.48Z" transform="translate(-8.17 -3.42)"/><path class="cls-18" d="M3887.2,165.86a11.19,11.19,0,0,0-7.68-2.93h-18.29a11.19,11.19,0,0,0-7.68,2.93q-3.3,2.92-6.22,9.51l-34.39,111.22h114.87l-34.39-111.22Q3890.5,168.78,3887.2,165.86Z" transform="translate(-8.17 -3.42)"/><path class="cls-19" d="M4623.64,326.46q-21.95-20.11-66.58-20.12H4549q26.34-8,35.12-29.63t8.78-55.24V171q0-35.83-20.49-59.63T4509.5,87.57H4342.67V482.68H4350V312.93h207.07q41.7,0,61.46,17.92t19.75,53.78v98.05h7.32V384.63Q4645.59,346.59,4623.64,326.46ZM4350,306.34V94.88H4509.5q38.78,0,57.43,21.22T4585.59,171V222.2q0,40.25-15.36,62.19t-60.73,21.95Z" transform="translate(-8.17 -3.42)"/><path class="cls-20" d="M4656.57,257.32h.73q14.63-12.44,21.22-32.56t6.58-47.19V143.91q0-57.07-32.19-93.29T4533.64,14.4H4290a48.13,48.13,0,0,0-13.54,1.83,28.74,28.74,0,0,0-9.87,4.75l-94.39,79.76a27,27,0,0,0-7.68,11,44.33,44.33,0,0,0-2.57,16.1V601.94q0,17.56,8.05,25.61t25.61,8.05h112.68a40.56,40.56,0,0,0,13.54-2.19q6.21-2.2,9.14-5.12l95.12-79a27.27,27.27,0,0,0,7.69-11,44.7,44.7,0,0,0,2.56-16.1V465.85h.73q11.7,0,16.1,6.22t4.39,17.93V601.94q0,17.56,8.05,25.61t25.6,8.05h113.42a40.5,40.5,0,0,0,13.53-2.19q6.21-2.2,9.15-5.12l95.12-79a27.25,27.25,0,0,0,7.68-11,44.7,44.7,0,0,0,2.56-16.1V367.07q0-43.15-20.85-71.7T4656.57,257.32Zm68.77,264.87q0,13.9-6.21,20.12T4699,548.53H4585.59q-13.91,0-20.12-6.22t-6.22-20.12v-112q0-16.08-6.22-23.78t-21.58-7.68H4429V522.19q0,13.9-6.22,20.12t-20.12,6.22H4290q-13.9,0-20.12-6.22t-6.22-20.12V48.06q0-13.89,6.22-20.13T4290,21.72h243.65q81.95,0,113,34t31.09,88.17v33.66q0,30.72-9.14,52.31T4636.81,261q39.51,4.38,64,32.19t24.51,73.9Z" transform="translate(-8.17 -3.42)"/><path class="cls-21" d="M4483.89,153.42H4429v93.66h54.88q19,0,25.61-9.88t6.58-24.51V187.81q0-14.62-6.58-24.51T4483.89,153.42Z" transform="translate(-8.17 -3.42)"/><polygon class="cls-22" points="4886.19 91.46 5036.19 91.46 5036.19 479.26 5043.5 479.26 5043.5 91.46 5193.5 91.46 5193.5 84.14 4886.19 84.14 4886.19 91.46"/><path class="cls-23" d="M5241.18,14.4H4854.85a48.08,48.08,0,0,0-13.54,1.83,28.88,28.88,0,0,0-9.88,4.75L4737,100.74a27,27,0,0,0-7.68,11,44.35,44.35,0,0,0-2.56,16.1v88.53q0,17.57,8.05,25.61t25.61,8.05H4860.7V601.94q0,17.56,8.05,25.61t25.61,8.05h118.53a40.46,40.46,0,0,0,13.53-2.19c4.14-1.47,7.2-3.18,9.15-5.12l95.12-79a27.15,27.15,0,0,0,7.68-11,44.49,44.49,0,0,0,2.56-16.1V250h5.86a40.46,40.46,0,0,0,13.53-2.19c4.14-1.47,7.2-3.17,9.15-5.12l95.12-79a27.15,27.15,0,0,0,7.68-11,44.49,44.49,0,0,0,2.56-16.1V48.06q0-17.57-8-25.61T5241.18,14.4Zm26.34,122.19q0,13.91-6.22,20.12t-20.12,6.22H5133.62V522.19q0,13.9-6.22,20.12t-20.12,6.22H4988.74q-13.9,0-20.12-6.22t-6.22-20.12V162.93H4854.85q-13.92,0-20.13-6.22t-6.22-20.12V48.06q0-13.89,6.22-20.13t20.13-6.21h386.33q13.89,0,20.12,6.21t6.22,20.13Z" transform="translate(-8.17 -3.42)"/></svg>